<mxfile host="app.diagrams.net" agent="Mozilla/5.0 (Macintosh; Intel Mac OS X 10_15_7) AppleWebKit/537.36 (KHTML, like Gecko) Chrome/141.0.0.0 Safari/537.36" version="28.2.7">
  <diagram name="PÃ¡gina-1" id="Vf-ZbCxDWEvjP_pVoCqN">
    <mxGraphModel dx="2698" dy="1257" grid="1" gridSize="10" guides="1" tooltips="1" connect="1" arrows="1" fold="1" page="1" pageScale="1" pageWidth="827" pageHeight="1169" math="0" shadow="0">
      <root>
        <mxCell id="0" />
        <mxCell id="1" parent="0" />
        <mxCell id="SlxvSBYQxLeprWDQxKCs-1" value="" style="shape=image;verticalLabelPosition=bottom;labelBackgroundColor=default;verticalAlign=top;aspect=fixed;imageAspect=0;image=data:image/jpeg,/9j/4AAQSkZJRgABAQAAAQABAAD/4gHYSUNDX1BST0ZJTEUAAQEAAAHIAAAAAAQwAABtbnRyUkdCIFhZWiAH4AABAAEAAAAAAABhY3NwAAAAAAAAAAAAAAAAAAAAAAAAAAAAAAAAAAAAAQAA9tYAAQAAAADTLQAAAAAAAAAAAAAAAAAAAAAAAAAAAAAAAAAAAAAAAAAAAAAAAAAAAAAAAAAAAAAAAAAAAAlkZXNjAAAA8AAAACRyWFlaAAABFAAAABRnWFlaAAABKAAAABRiWFlaAAABPAAAABR3dHB0AAABUAAAABRyVFJDAAABZAAAAChnVFJDAAABZAAAAChiVFJDAAABZAAAAChjcHJ0AAABjAAAADxtbHVjAAAAAAAAAAEAAAAMZW5VUwAAAAgAAAAcAHMAUgBHAEJYWVogAAAAAAAAb6IAADj1AAADkFhZWiAAAAAAAABimQAAt4UAABjaWFlaIAAAAAAAACSgAAAPhAAAts9YWVogAAAAAAAA9tYAAQAAAADTLXBhcmEAAAAAAAQAAAACZmYAAPKnAAANWQAAE9AAAApbAAAAAAAAAABtbHVjAAAAAAAAAAEAAAAMZW5VUwAAACAAAAAcAEcAbwBvAGcAbABlACAASQBuAGMALgAgADIAMAAxADb/2wBDAAMCAgICAgMCAgIDAwMDBAYEBAQEBAgGBgUGCQgKCgkICQkKDA8MCgsOCwkJDRENDg8QEBEQCgwSExIQEw8QEBD/2wBDAQMDAwQDBAgEBAgQCwkLEBAQEBAQEBAQEBAQEBAQEBAQEBAQEBAQEBAQEBAQEBAQEBAQEBAQEBAQEBAQEBAQEBD/wAARCALZBT0DASIAAhEBAxEB/8QAHgABAQACAgMBAQAAAAAAAAAAAAcGCAQFAQIDCQr/xABdEAAABgECAgQJCgMFBQUDCAsAAQIDBAUGBxEIEhMhWNUUFxgiMXaVl9MVFjc4QVZXlrW2IzJRCUdhgYYkM0JxxVKRsbLUQ2JyJTRzgoOhtNHSNURThIWSweTw8f/EABQBAQAAAAAAAAAAAAAAAAAAAAD/xAAUEQEAAAAAAAAAAAAAAAAAAAAA/9oADAMBAAIRAxEAPwD82gAAAAAAAAAAAAAAAAAAAAAAAAAAAAAAAAAAAAAAAAAAAAAAAAAAAAAAAAAAAAAAAAAAAAAAAAAAAAAAAAAAAAAAAAAAAAAAAAAAAAAAAAAAAAAAAAAAAAAAAAAAAAAAAAAAAAAAAAAAAAAAAAAAAAAAAAAAAAAAAAAAAAAAAAAAAAAAAAAAAAAAAAAAAAAAAAAAAAAAAAAAAAAAAAAAAAAAAAAAABWeF+1s6LVSVd0ljKr7GvwvM5USXFeU09HebxqyUhxtaTJSFpURGSiMjIyIyEmFP4dPpAtvUTN/2xZgHlScTfaL1P8AzfYfFDypOJvtF6n/AJvsPiiYAAp/lScTfaL1P/N9h8UPKk4m+0Xqf+b7D4omAAKf5UnE32i9T/zfYfFDypOJvtF6n/m+w+KJgACn+VJxN9ovU/8AN9h8UPKk4m+0Xqf+b7D4omAAKf5UnE32i9T/AM32HxQ8qTib7Rep/wCb7D4omAAKf5UnE32i9T/zfYfFDypOJvtF6n/m+w+KJgACn+VJxN9ovU/832HxQ8qTib7Rep/5vsPiiYAAp/lScTfaL1P/ADfYfFDypOJvtF6n/m+w+KL9xOeK6gyLV7C5lxphPfRYu1uHY5imE/J1pTy02DW3TzG6+OhaUR0vNqR00jnUsuXr88usr+GPEKTOsAXWv2ERb+ocHELKJa2NVav7u7qTIciMEtMNZG24SocrpDIySSuYuZICKeVJxN9ovU/832HxQ8qTib7Rep/5vsPijv16Q4ZYaFu6k1c61ucgbg/KNkuvsoK2at45xsnHlVxkmW22bRocKWk1NGpxKOUutRREBT/Kk4m+0Xqf+b7D4oeVJxN9ovU/832HxRMAAU/ypOJvtF6n/m+w+KHlScTfaL1P/N9h8UTAAFP8qTib7Rep/wCb7D4oeVJxN9ovU/8AN9h8UTAAFP8AKk4m+0Xqf+b7D4oeVJxN9ovU/wDN9h8UTAAFP8qTib7Rep/5vsPih5UnE32i9T/zfYfFEwABT/Kk4m+0Xqf+b7D4oeVJxN9ovU/832HxRMAAU/ypOJvtF6n/AJvsPihxSfWb1d9e7/8AUHxMBT+KT6zervr3f/qD4CYAAAAAAAAAAAAAAAAAAAAAAAAAAAAAAAAAAAAAAAAAAAAAAAAAAAAAAAAAAAAAAAAAAAAAAAAAAAAAAAAAAAAAAAAAAAAAAAAAAAAAAAAAAAAAAAAAAAAAAAAzvSrAcYzVrLrbMsqtKGnxChTdyXqynbspL3PYw4SGkMuSY6f55yVGo3OokHsRmZDtPm9wyfi7qf7ua/vsNIvo/wBbvUSJ+56MTABT/m9wyfi7qf7ua/vsPm9wyfi7qf7ua/vsTAAFP+b3DJ+Lup/u5r++w+b3DJ+Lup/u5r++xMAAU/5vcMn4u6n+7mv77D5vcMn4u6n+7mv77EwABT/m9wyfi7qf7ua/vsPm9wyfi7qf7ua/vsTAAFP+b3DJ+Lup/u5r++w+b3DJ+Lup/u5r++xMAAU/5vcMn4u6n+7mv77D5vcMn4u6n+7mv77EwABT/m9wyfi7qf7ua/vsPm9wyfi7qf7ua/vsTAAFP+b3DJ+Lup/u5r++w+b3DJ+Lup/u5r++xMBnlfoxl9hpDaa1odr2aKrntQDZdeUUuQa1JSp5pskmRtIWttClmpPnLIk8xkrlDs/m9wyfi7qf7ua/vsPm9wyfi7qf7ua/vsfHJ+HrU/CaWbdZhSKpvAolRMKLMQ63IfTZdIcZDaOTrXsw8akmZcvRrL+YjSOLUaB6x3F1Y48jTjIYljVUz9/KjTa1+O43BabUvpeVaCPZXIaUdXnKMiIB2Hze4ZPxd1P93Nf32Hze4ZPxd1P93Nf32MKnYTmdZjsPL7LEbqJQ2C+ih2j8B1uJIXsZ8rbykkhZ7EfURn6DHSgKf83uGT8XdT/dzX99h83uGT8XdT/dzX99iYAAp/ze4ZPxd1P93Nf32Hze4ZPxd1P93Nf32JgACn/N7hk/F3U/3c1/fYfN7hk/F3U/3c1/fYmAAKf83uGT8XdT/dzX99h83uGT8XdT/dzX99iYAAp/ze4ZPxd1P93Nf32Hze4ZPxd1P93Nf32JgACn/N7hk/F3U/3c1/fYfN7hk/F3U/3c1/fYmAAKf83uGT8XdT/dzX99h83uGT8XdT/dzX99iYAAtmA6W8O+oudY5p9SayaisWOT20OmiOytPIKWUPSXktIU4abpSiQSlkZmSTPbfYj9AiYp/C39ZvSL17oP1BgTAAAAAAAAAAAAAAAAAAAAAAAAAAAAAAAAAAAAAAAAAAFP4dPpAtvUTN/2xZiYCs8L8yPX6qSp8uqi2bEbC8zedhSlOpZlITjVkZtOG0tDhIURcpmhaFbGfKpJ7GQSYBT/ABu6f9lvTD2hk/e4eN3T/st6Ye0Mn73ATABT/G7p/wBlvTD2hk/e4eN3T/st6Ye0Mn73ATABT/G7p/2W9MPaGT97h43dP+y3ph7QyfvcBMAFP8bun/Zb0w9oZP3uHjd0/wCy3ph7QyfvcBMAFP8AG7p/2W9MPaGT97h43dP+y3ph7QyfvcBMAFP8bun/AGW9MPaGT97h43dP+y3ph7QyfvcBMAFP8bun/Zb0w9oZP3uHjd0/7LemHtDJ+9wGF5Lm2UZfmVhqDkFsuRkFpPXaSpyG0MqXKWvnU4SWySlB83XskiIvsIhncrih1nlS405N9UxX4l7HydpcPHK2PtbMmo0zDJtgiU6o1q51K35y2JW5JSRfDxu6f9lvTD2hk/e4eN3T/st6Ye0Mn73AdQrWnUFeEowH5QryrUQTq+nKpiFPOCb3TeCnN6Pwg2ekLfk6Tbbzf5eoYOKf43dP+y3ph7QyfvcPG7p/2W9MPaGT97gJgAp/jd0/7LemHtDJ+9w8bun/AGW9MPaGT97gJgAp/jd0/wCy3ph7QyfvcPG7p/2W9MPaGT97gJgAp/jd0/7LemHtDJ+9w8bun/Zb0w9oZP3uAmACn+N3T/st6Ye0Mn73Dxu6f9lvTD2hk/e4CYAKf43dP+y3ph7QyfvcPG7p/wBlvTD2hk/e4CYAKf43dP8Ast6Ye0Mn73Dxu6f9lvTD2hk/e4CYCn8Un1m9XfXu/wD1B8PG7p/2W9MPaGT97hxSfWb1d9e7/wDUHwEwAAAAAAAAAAAAAAAAAAAAAAAAAAAAAAAAAAAAAAAAAAAAAAAAAAAAAAAAAAAAAAAAAAAAAAAAAAAAAAAAAAAAAAAAAAAAAAAAAAAAAAAAAAAAAAAAAAAAAAABT9Ivo/1u9RIn7noxMBYuHzHLDLca1lx+qkVbEqVgkfo3LO1i1sYuXJKVZ88iU42y31JPbmWW57JLdRkR9Z5OmoH3h0w96WMd4AJgAp/k6agfeHTD3pYx3gHk6agfeHTD3pYx3gAmACn+TpqB94dMPeljHeAeTpqB94dMPeljHeACYAKf5OmoH3h0w96WMd4B5OmoH3h0w96WMd4AJgAp/k6agfeHTD3pYx3gHk6agfeHTD3pYx3gAmACn+TpqB94dMPeljHeAeTpqB94dMPeljHeACYAKf5OmoH3h0w96WMd4B5OmoH3h0w96WMd4AJgAp/k6agfeHTD3pYx3gHk6agfeHTD3pYx3gAnVVFiTrSHCn2bNbGkSG2npjza1txm1KIlOqS2lS1EkjNRklJqMi6iM+obK22vukl3huoOltficSjpW8RaoMVtlOTnJc84VpHlME8yS1MMrfNMl5xRNoIluqI1bGe8v8nTUD7w6Ye9LGO8A8nTUD7w6Ye9LGO8AGxEfXTRWv1MffbzautIEjJ5c6tmyodkiHDar6AomOvySQ23IJKJEp/nJndxtTKlJ6jQpWJ5JrLgUrFMkwmNl+OwTj4sVVBfpIV0uO89LuYsqwRHdnuvvumTMYtlO9AgzdfIi9C1yPydNQPvDph70sY7wDydNQPvDph70sY7wAVbXDUPSBWkWS4Zp7ltPazpuS1CIi2CuXZUihhRpbcc33ZqUsk8k1sEpthpltCSIk8+6iRq0Kf5OmoH3h0w96WMd4B5OmoH3h0w96WMd4AJgAp/k6agfeHTD3pYx3gHk6agfeHTD3pYx3gAmACn+TpqB94dMPeljHeAeTpqB94dMPeljHeACYAKf5OmoH3h0w96WMd4B5OmoH3h0w96WMd4AJgAp/k6agfeHTD3pYx3gHk6agfeHTD3pYx3gAmACn+TpqB94dMPeljHeAeTpqB94dMPeljHeACYAKf5OmoH3h0w96WMd4B5OmoH3h0w96WMd4AJgAp/k6agfeHTD3pYx3gHk6agfeHTD3pYx3gAcLf1m9IvXug/UGBMBspw36C5xT8RGl1vLvdOnGIOaUkl1EXUjHZTykInMqMm2WpynHV7F1IQlSlHsSSMzIhrWAAAAAAAAAAAAAAAAAAAAAAAAAAAAAAAAAAAAAAAAACn8On0gW3qJm/7YsxMBT+HT6QLb1Ezf9sWYDosD0/m5vS5VKrK5+ZMpYkJ2OhqWlr+LIsI0VJG2baum5jkEkkktvY1ErmMkmhVDyThnZxbCWrSfqLikm1dy5OMuyottzVsBaYzrr7chSmiUlxC0oLnTzNmSj5TV1mWEaVauWOlDN87T1qX59q3W+CyVPcpRHodnFnIcNHKfSEaopI23Ttzb7ntseXZZrVpRdUicUptHreBSzMpPKbRp3KEuvvOKYcbVFZcTESTTSecjQakrUWyuY1cxcoYTp1p1Jz+tyVcJjmk1MeAplxU0mW2lybGNESpaOiWbqd5BFykpsy35t1cvIqn49wf2UjKmaPJNT8PZhofuK2wlV0p+V8nWUCG5IOK8RMdZqJsz52+dBpQ5so1JJJzfS3VPxax79j5C+Ufl1qub38K6HofBbKLN3/kVzc3gvR/Ztz83XtynmWKcScfHrWzmTMIclxbfK7DIpLTdoTSyZlwpURyOhZsqIlkiWpSXTSZboLdBkYCJPNpaeW0l1DpIUaSWjflURH6S3Ij2P8AxIjHqPZ02jdWbCFobNRmhK1EpRJ36iMyItz2+3Yv+Q9QAAAAAAAAAAAAAAAAAAAAAAAAAAAAAAAAAAAAAAAAAU/ik+s3q7693/6g+JgKfxSfWb1d9e7/APUHwEwAAAAAAAAAAAAAAAAAAAAAAAAAAAAAAAAAAAAAAAAAAAAAAAAAAAAAAAAAAAAAAAAAAAAAAAAAAAAAAAAAAAAAAAAAAAAAAAAAAAAAAAAAAAAAAAAAAAAAAABT9Ivo/wBbvUSJ+56MTpFTauVTt6islqrWJDcR2YTKjYQ+tK1IaU5tyktSW3FEkz3MkKMvQYoukX0f63eokT9z0Yz7howvDcoxVp3J6GBYvnn9VDjNyS2KW4qqtXWIS1EZGTb8lmMhRblvuX9AGvj9VaRa+LbSa6U1CnKcRFkrZUlp9TZkThIWZbKNJqTvsfVzFv6R5j09vKrJd1Fqpj1fXraaly22FKZjrd5uiS4si5UGvkXykZlvyK232MbQ6012oydONPk3Wi1RUX51OWP2lOihKIUKOSmeaacMiSUV1DRJWkySRbElzY+bc+Dwd1FXkFTNoLyvjz62y1N07hzIkhsltSGHJ0xDja0n1KSpJmRkfUZGYDWWPGky3Daix3HlkhbhpbQajJCEmpSti+wkkZmf2ERn9g+Y3S0YvG79nGsyxzTjEoWQTm9S8UjRK3HmFpmss401IgxzZUlXTvdNIW0SzJTrqHDbWbhKMj0tVvzHzFse/WW2wAAAAAAAAAAAAAAAAAAAAAAAAAAAAAAAAAAAAAAAAAAAAAAAAAACn8Lf1m9IvXug/UGBMBT+Fv6zekXr3QfqDAmAAAAAAAAAAAAAAAAAAAAAAAAAAAAAAAAAAAAAAAAAAKfw6fSBbeomb/tizEwFP4dPpAtvUTN/2xZgJgAAAAAAAAMnqdLtTL7GpOZ0enuS2FBDJapFpFqn3YjRI/nNTqUmgiT9pmfV9uwDGAH0ejSY6WlyI7rSX0dK0a0GknEbmXMnf0luRluX2kY+1nU2tJL8AuayXAldE090EplTTnRutpcbXyqIj5VIWhaT9BpURluRkYDigAAAAAAAAAAAAAAAAAAAAAAAAAAAAAAAAAAAAKfxSfWb1d9e7/8AUHxMBT+KT6zervr3f/qD4CYAAAAAAAAAAAAAAAAAAAAAAAAAAAAAAAAAAAAAAAAAAAAAAAAAAAAAAAAAAAAAAAAAAAAAAAAAAAAAAAAAAAAAAAAAAAAAAAAAAAAAAAAAAAAAAAAAAAAAAAAp+kX0f63eokT9z0YmAp+kX0f63eokT9z0YmAD2ccceWp11xS1qPdSlHuZn/iY9QAAIzSZKSZkZdZGX2AAAAAAAAAAAAAAAAAAAAAAAAAAAAAAAAAAAAAAAAAAAAAAAAAAAAAKfwt/Wb0i9e6D9QYEwFP4W/rN6RevdB+oMCYAAAAAAAAAAAAAAAAAAAAAAAAAAAAAAAAAAAAAAAAAAp/Dp9IFt6iZv+2LMTAU/h0+kC29RM3/AGxZgOdobIqqbD9U8vl4rRXdhQ4/BkVZXEBExmNIctoTJuk04RoUZNurLZRGk9/OJRbkd+k4Ewm5lWmkuimPZFbW97jbmQVy6BufEqqyfSQpZk00tKyhsOyZEwlPo5DaJlskrQXp0kHs2661zdE6tHOk0K5VGXMk/SR/1IBuqTWk+NnX0GL6X4deUTuDZrksSfZVqX5cpyBc3JVri3t+Y0obhsEpJGROIM0OcySSSexxrAsHu6+wzmo09anZja0eITDqaDAol+hhmXGkeGSWalx9hltDjzMZK3Ub9EbuyUo6XmTouPZp55hXOw6ttWxp3SoyPYy2Mur/AAAVHWioi1VzlsfDsFRW4ZGzObGgTnW2npEd1Kf/AJh4S0662tCE9ZElxZH1K51b7i/aQ4zkGW1uk7WR4VfR4cSqOHSapYXYutx8diqlyHHU2qHWlRt47jzxvJ5mVG2ovOXukz0uHuT76WVR0vLJpaiUpBKPlMy9BmXo3Abk2Nsyxo5UZ1cae4tet49pFFTRSZtCycXw0soTEdXuSEk8tttwjNCzMiU6ZrSfSrJftaxcN0/VAm1+mOHWL9lkuHVbp2tO1LSmJJx2I9KbShZGlJuuLNRrIudJmZpNJmZjTHczIkmZ7F6CABvFE0mpqd2wx3HtJsfvcHZxXOJtpkUiuJ6RXXEQrYozRyz3U040iNCJDG+yiWbvKZmSk6OjN6bVzIaDFl4zV1GPsuqgyqtNuVY38oohyecpDJPfaS0uuoNSiNZIWpCVEk9hhAAAAAAAAAAAAAAAAAAAAAAAAAAAAAAAAAAACn8Un1m9XfXu/wD1B8TAU/ik+s3q7693/wCoPgJgAAAAAAAAAAAAAAAAAAAAAAAAAAAAAAAAAAAAAAAAAAAAAAAAAAAAAAAAAAAAAAAAAAAAAAAAAAAAAAAAAAAAAAAAAAAAAAAAAAAAAAAAAAAAAAAAAAAAAAACn6RfR/rd6iRP3PRjnaVYDpVZ4DY59qdIylbUXJ6rHmYlE9HZWtMtmU4t5S3m1kXRlG3JJF52/L5u/Ong6RfR/rd6iRP3PRjCIeX5FX467ikSw6Oqfso9u5H6Fs95bCHW2nOY083mpfdLl35T5usjMi2DYMuGXTujy6t0uyi/v5GSZXe3lNT2MFxlqDXFBmvQmnZbS21Le6R5hw1khxrom+VW699h6SNE+H2ixmztL6zz6TPxvD8Yy2yZiPw22pZ2seGaobKlNKNrkcmoWTyiWXISkdGaiJapkniO1c6C3bev4D79zPsbN2Y/SwnJceTPIymLjPqZ6SL0pKPmJlSC+0iIxj0/VHOrSNZQ5150rNxUVlFNT4MynpYNelhMNrckEaejTFYLmTspXJ5xq3VuGxzXB9pzVWM5GU5yuNWWOWS8dqJ0rI6epOuiMtRnDnSWpriVTTSUxolMRuU/4az5y520nq9eRcfgxokGuflvWkdyQ1ZumttcRw0uGTSoxp840mgtzNXpP0dQzuu4mtZayVNnN5JBkSpk8rVEiXSwZDkKf0SGvCoinGTOK9yNtlzs8h/w0H/MhJlPrDIbS0rK6nmusLjVfTeDcsZpDn8VfOvncSklunzeg1qVsXUWxdQDaWwq8VyfFbTFcEqsOjzKvD+nsMFyLFCrMihSYtcl2ZPiWZMmuUsjadlEhx9HO2fL0RkRJHE1N0l0Gr3ciyutgZRTtVzmI1FVVsSI0ht6dZU65RvPLWyRE2k2kqWkkma1Gsi5SWXRxyXxDaqTaNVI/bVnO7V/Ij1omjgptX6/oiZ8Gcnkz4StHRF0Z7ubmjzDM09Q6y/1l1FyetZqbm8ZejMrrHdkV8ZpbjlfHcjw3HFobJTi22XVt8yzM1Fy8xq5U7BfLrh50kdzh3Gbi3yb5fyvKMtp6xyvahRYEFdfJcQw64whoiUhxWyTaa6IkERmk9tkDC7jRHTSrw/L4C7LKUZxheHVGVSzX0B1slU56vI2EJJPSI6JFiguc1qJxSTMuQiIlTyTrjqjMyKBlknKOe1rLGwtosjwKOXRy5rhuSnOUm+U+dZmfKZGlPoSRF1DPbfiOjSdHrLAIbdxIsb2irMfmuzmIBkyxDejukpMttlMqQneKhDTTyzSy2tSSNeyTIIQAAAAAAAAAAAAAAAAAAAAAAAAAAAAAAAAAAAAAAAAAAAp/C39ZvSL17oP1BgTAU/hb+s3pF690H6gwJgAAMz00k6TR3L09Vay+mIVVulTlVSENcs/0Nm7zEfmdZnuW+238qt+rDAAAAAAAAAAAAAAAAAAAAAAAAAAAAAAAAAAAAAABT+HT6QLb1Ezf9sWYmAp/Dp9IFt6iZv+2LMBMAGaabaV2upbd/Lh5BQ0lfjMFuys59xJWywwwuQ1HJXmIWpR9I82XKlJqPfqIz2I85yHhF1Po7Bujh2uL3tx8uwcfk11VZG87DfnNuuw3HVKQlomnmmXHCWSz5El/EJs+oBEgFbTw25RKsa9NRmeH2dDPYsH15NFnvfJcQoKUKlpeUtlLqVNk8x1E0rn6dro+fmIdxlnDVEp7iiqImo+LwWp2OV1q/ZWNi4uJKkzHn0soiEwwp5SVoaSouZvzPO6RSPQQQwBsXi3C3An070LKrV+lyOC5mUSx8JmtNQYcilRBNJrV0aj5CVJf6TYzNRIQSCI/wCbC3uHi4h5GukstRMIhQnIUGfAuXp0g4dk3M38HKOlLByFGo0rSfMykkGhXOaS2MwlACpv8OmZ1lRdWWTXeO4/IqLK2p24NpMcaenzK1KVTGWFk2bPOjnSRJccQbij5Uc59Qy5Wl+hmK53jujGdlmDuQ27VUm1yKDZR2oVRJnstOoSiEqMtcltkpCCcM32zWaV8vIRFzBr8AqV/wAOmdY/ljOHypdUqXJqshuWlE8vl8GpnbFuUSvM6lmdTJ5C6yPdvc07ny9jK4X8sq1tqvs3wyrit0kXIbOU/OfcbqYcpEdUQ5KWWVuE48cpskNIQtw+VajSSCJZhHAGYZlpfdYJMuq6/t6VMqnXANtpqZzqsY8xk32JUUtv4rJtdGs1HsZE83uW5mRZbj3D9aZZhVZmMS4pqGvTTSLq0srm0UUdEdFn4CSkttxzWgycW2noyN1S/SnrMkEEiAWHMuHh3AtO8nynIM1plXGPZHXUzdfEW68idGlw1ympTLvR8ppW2SHEcxpM0E5zElRJSqPAAAAAAAAAAAAAAAAAAAAAAAAAAAACn8Un1m9XfXu//UHxMBT+KT6zervr3f8A6g+AmAAAAAAAAAAAAAAAAAAAAAAAAAAAAAAAAAAAAAAAAAAAAAAAAAAAAAAAAAAAAAAAAAAAAAAAAAAAAAAAAAAAAAAAAAAAAAAAAAAAAAAAAAAAAAAAAAAAAAAAAKfpF9H+t3qJE/c9GJgKfpF9H+t3qJE/c9GOFp9ovaZ9jU7MXMyxXGqWBZxqZ2ZezHWUHLkNuLZbSTbTij3JlzdW3KnbdRpSRmQT0BUafh4zG2euKl27x6vyKol2cEselS3PlGW9Xtm5KS0httSEkkkqIjdW2S1JUlBqMjIc8tApluuK9DtKvHKmJi9Ve2lvdTHnY6DmmRNmZR461tkpaiQSeRRJJPMtZb9QR8B31/iEjHWJLku8pJD8S2lVDsWHPRId5mCRu+k0boWws17IcSoyUaFbdRbncG+H3C29LoOaNY/nGQQJeO/Ks3LsemxptfTWBsrV4FLr0MqeaQhwktrdcfR6edKTTsSg1xAXXIOFt+Ka5mPalYrIq67EajKbedOkPxm4iZyEcrZczJKcM3FpJBJI1GS07kR7kXJXwj5VbXLMSoyDGKRFncljlRCubpS5M608ChySjtqbjpSZuFOaJKlJQhKj5FqIzQawgICp0PDtl9/iKsqYyHGYz5UU/Jk0sqctFiuridL0sgm+jNOxqYcSlBrJw9iVykg+cSwAAAAAAAAAAAAAAAAAAAAAAAAAAAAAAAAAAAAAAAAAAAAU/hb+s3pF690H6gwJgKfwt/Wb0i9e6D9QYEwAAFPx7RbwKuayzWPIPmLjy20vsMvR+murVtW+3gMA1INZH1fxnVNM7bmTijLkP5ZLorKbxos+0zyBrN8YS249MXDjm3Z0raFEnmtISVOHEIzPzXCccZV6CdNXmkE1AAAAAAAAAAAAAAAAAAAAAAAAAAAAAAAAAElzKJO5Fue25n1DPdWtJn9KDxNL2VU98WU4+m+Q/Uu9LGZI5kqN0RO+hwyOIZmoiIiNRpLfl5jwIZvqLnFTl2Oac1FbHltPYhiqqOcp9CUpcfO1sJfM0aVGZo6OY0W6iSfMlZbbERmGECn8On0gW3qJm/7YsxMBT+HT6QLb1Ezf9sWYDGcVzn5s4nmmL/JfhPzwrYtf0/T8ngvQzo8rn5eU+ffwfk23Ttzb7ntsdXo+LezxvNrrOKfDkNyrbIqC+S2uxVs0mtjyWFscyUJUfTJkq88jSaOXqJRnuWv4ANiLripr7yxYrLir1AyDFX6qyqrRjJM7es7J9uYphe7D7jPQR+icix1J5Y5ms0H0hqI0kjkwuLPH6llcDHNPshx+NGqqmqgSafLPBbHoYKpZ9C/LTF5lsyPCiU820lo1LZSZKSWyU63AAv2Y8U8XJpOSvRMBdiIyOZls5ZOWxOmy5e+CG4RGTCeZLS4qjT6DUlwiMyNO6vfEuKljHKCPTlil5ClQ6epq2rOiyP5NmuJhLlqU0t4mFrKK/wCFkbjKDQozYb/ifYWvwANj3+LGiVPz65hYNkMZ/ObW5s5dZ86Okp5R2CFebNhrjGl9TDi1qaW2bSuXkSZ7p5z6eLxDYJMvMb1Ly7Sqdbah4rEr48aa3fJYqp7sBtDcORMh+DqdcWhDTJLS3IbS70Zb8u6uaEAAvVTxM06KWHKynAJ11mMDHMlxli5+XEsRzYuDnrcfXG8HUankOWck9ydJKkny8pHsoupPXihu7vJU5lhU+TjuU4/S00qDX26I8lh+sjRWWJbb62Fp3M4yzNCmzLlfUnfciWI2ADOtRNQ6TUC0trh7FZMOQtqqr6Mis+dusrYMUoqI7ieiLp1qaaj/AMQjb2U2s+U+fZPdI1y5NIVaVfNffmolUvh/hv8AW6RZ9L0fR/8AudFy83282/VyiVgAreda6ws7xK8xqbiD0VyxdxqRCkNWRGUd2qqvk5fSINn+Kl5s1LIiNBtq2LdZEe8kAAAAAAAAAAAAAAAAAAAAAAAAAAAAABT+KT6zervr3f8A6g+JgKfxSfWb1d9e7/8AUHwEwAAAAAAAAAAAAAAAAAAAAAAAAAAAAAAAAAAAAAAAAAAAAAAAAAAAAAAAAAAAAAAAAAAAAAAAAAAAAAAAAAAAAAAAAAAAAAAAAAAAAAAAAAAAAAAAAAAAAAAABT9Ivo/1u9RIn7nox3WnGbaVUmh11juolBNyB57Mayzj1sC3TXyDbZhy0qWpamHiU0ZuJQoiSSvPSZKLbY+l0i+j/W71EifuejEwAbQY7xsOQZ8y6u8OuTm2l3c2tpGpMk+TK+zKxUo1lKYKOtTy2ErUlk1OcidkboPlUS8RxjiOraW9i3a6DKayTX4xXY9EnY5lJ101HgieVRqWbC2nGXk9S2VtK22SZK6jJUNABluoGZY/nFvc5JFw5FLaXN/OtllFlF4GxFfNKm4jbBNly9GrpD5+bZRKSXInl3OhYpr3geHS6zN6PS6bAzitozpFPQLpuLTTDKIcUpT8JMbpFuKQZKdQT5JdcI1q25lJOIAArWSa6Qr7CpeMNYg9Hl2ONUePS5arIlt71jiejeQ10JGnnbQhKkms9lcyiPYySXfWXFJ8o5dg+VfMbo/mbm6My8H+U9/C+WNUs+Dc3Rfw/wD9U83SbK/3+3L5m6oOADaih1K06Xp67nGTHSqyZnT+3w+L4PduE+k30SY8dC6843Mp4kPlvIJ/oehLrSTvUWq4AAAAAAAAAAAAAAAAAAAAAAAAAAAAAAAAAAAAAAAAAAAAAKfwt/Wb0i9e6D9QYHcaF5DplW1k6HLOrx3UBLhyaTKMgjqsqxtSU/w4yYpI5Izql7GUp5L6E/8AZa26QdPwt/Wb0i9e6D9QYEwAZpqtj+qVZkzl9qs3YyrPIFLmouJMoprNsW+yn2JiFLalI36udpa09W2/VsPvo1jmqltmUW90mVKg2eOuIsF3ZSUQ4tOlJ9UiTLdNLMdvqMuZ1RJUZ8vWaiSbCdYMhxaDHxa8ixcrwxL/AEz+M3JG9EMlGRunHV/vITqyLY34ym3D6iNRluk/TPtXsmzlpVKwxDxzFmnulh4zStnHro5kWyVGjc1Pu7el55S3D+1X2AKJneVcOchqsTlNBaZjljaHCurnDLBOPV8p01bktRTIspUp491Gt1DERHoIkOf7w8S+cHDJ+Emp/vEr+5BMAAU/5wcMn4S6n+8Sv7kD5wcMn4S6n+8Ov7lEwABT/nBwyfhLqf7w6/uUPl/hk/CbU/3h1/comAAKf8v8Mn4Tan+8Ov7lD5f4ZPwm1P8AeFX9yiYAAp/y/wAMn4T6n+8Kv7lD5f4ZPwn1P94Vf3KJgACn/L/DJ+E+p/vCr+5Q+X+GT8J9T/eFX9yiYAAp/wAv8Mn4Uan+8Gv7lD5f4ZPwo1P94Nf3KJgACn/L/DJ+FGp/vBr+5Q+XuGT8KdT/AHgV/cwmAAKf8vcMn4U6n+8Cv7mD5e4ZPwp1P94Ff3MJgACn/L3DJ+FWp/vAr+5g+XuGT8KtT/eBX9zCYAAp/wAvcMn4V6n/AJ/r+5g+XuGT8K9T/wA/1/cwmAAKf8vcMn4V6n/n+v7mFB0NuOH9/MbhrHtPNQYM08IzE0vzcyhSmktljlibpG0iraM1G2S0pPnIkqNKjJREaT1vFP4dPpAtvUTN/wBsWYCYAK9oZJqqXD9U8vmYpRXlhQ4/BkVabiAiYxGkOW8Jk3eiWRpUfRuuFsojSfN1kZbkeyDuIaO5tqPbYnkmnmKY7juO5/iMZg6yGiK4tmwhzXZUZ5/mStbTz7TWyVuETRbJbNtIDREcqdVWlWmKuyrpURM6OmXFN9lSCfYUZkTiNy85BmlREourdJ/0G6ttgGPOXlVIRo3LPUNqjyOVU0VzgkOhbt3WPBSio+RmJT5uqZSuetK1oSUg2kI2dNtZjurPBLOfaVuRXunFZFsKvD8Zg2FLCwxm8fgOSXrBb+0B9xtiEzuwonnnDLwdSkoQSTM9g0bi4nlM6uK4hY1ayICkSXClNQ3FMmiOSDkKJZFy7Nk60az380nEb7cxb9UN9LGprNJzyymq8aiuVmN2eq7NbXWLSnGDjITVFF50q26Rvk6NREe6Vp233Srr6LG8Eq751nU6DgVGblpjeNyLKBUYPGuDQ/JVNS881XuONRYcdaYSemknsTSlp5CI1nsGlAzKZovrFXYu3nFhpPmUbHHYzcxu4eopSIS47iSUh0nzR0ZoUkyMlb7GRkZGNrZ2jdFTtaq4jTaYtQYddk+YRo11aY23Z1xwY7XNEZdsCWmTUONNpJ1lwiND/TINXMjqGH6mapYDpjdUNpX4LkE3N5ekmP1BWD2RNJqm25uMx46lnBTE6Rw0tOn5q5BoNZEoy280BqgPoUaScZUwo7px0rJpTvIfISzIzJJq9G5kRnt/gY3EjYvV3Oo86kxfTfHWI2F4BQ2CWazDG7+0my50OrU9KTAcWhuW4S3Vl/FMmmkLcXym4rdWWX+nPNJyPSfFMNo2aGbqhhk91qdUo6FqPOrXXDNTjPM42wt8uiQTTm38RTTav4h8waFjlMVNrKrpVvGrJb0CCtpuVKbZUplhTnN0aVrIuVJq5F8pGZb8p7egxtLrfp9NrYmnuUYtpU5KvLOPkcKwh2ODsUZONx45OJccrY7q0NONR3XXkLUonFJabdUR7EZ9DweYhiOVSZCcrxqBcMpzPEoimpbRLJUd56WTzXX/AMKyQklF9uxf0Aa5MRpMpS0RY7rykIU6om0Go0oSW6lHt6CIiMzP7CHzG5mk94q/xykzPH9PMTi5Lf43qJj5Q6vHI5omoiVkaRFQUfkUTjxHIcbNWxuOILlWa91b6ZgAAAAAAAAAAAAAAAAAAAAAAAAAAACn8Un1m9XfXu//AFB8TAU/ik+s3q7693/6g+AmAAAAAAAAAAAAAAAAAAAAAAAAAAAAAAAAAAAAAAAAAAAAAAAAAAAAAAAAAAAAAAAAAAAAAAAAAAAAAAAAAAAAAAAAAAAAAAAAAAAAAAAAAAAAAAAAAAAAAAAAKfpF9H+t3qJE/c9GMFqMTynIGunocatbJs5KIfPDhuPJ8IWhbiGt0Efnmhp1RJ9JpbWZFsk9s60i+j/W71EifuejFN4XKirvsFXUXUBibCkai0xOsPoJSFkVPdGW5H6esiP/ACAazMMPSXm40ZlbrrqiQ22hJqUtRnsRERdZmZ/YPVaFNqNC0mlSTMjIy2Mj/oN4sOxqBj9fpVl0bAazHGau5w19b1zi0Yky1SFNIdlQbhtakzydNS3lsPp5o5kfJymye32040fdyV65azjTth5zKLvJ2JbUPBmXXIj7TSm2WX5y1t/JS0vcimWY7ZuOqcIlEZLQQDUKl0j1UyPGZGaY/ptk9lQRUuLetIlS+7FQlv8A3hm6lJp2R/xHv5v27DExtjkenurWZZzphqPpNIsqvE6/E6BmPlLDbia3FXYUNtuyKU+kuVlTcpuU6tKtlOdLuSVG4XN7VWG1S9Na2QnTatl6cztPLi3tcvXStnJRkbSZfQpKfy87C0y0Q2ExSWlC21kZoM3OYBqYA3QzC8w/E4We/JOjGnal4faYjDqVyMfZeNHh0N1cxTxLIykdIbXUlwlJbNRm2SDIjGV2WjlLT5LGxmh0coHcDXmOa1GWZDIp0yXKqpiWDrbS1S1EZwzZZSpbbhKQpxSOQ1KJJpAaCDnzaC9rYabGxpZ8WIuW/AS+9GWhs5TJIU8ySjLbpEE60akelJOI3IuYt9wc5wzTrEdGvlukwGZMqq/Esft6e+cwyAmC5cunEW+tdu7MNyfzOqlsOQTjqJBEoibImVOHmGpeHVt/qzl11Zae1lllknUDUdzHa92pbJFw6xW1T9YlTJJIpKVIeXJQkyUT7jhGfSdKfMH5/gNwIGI5ouqs7bHeHbF5upqbKii39CjHGprUCvfiuqJ1VeaDRBW+smyeNCEGyaUEk2jcMhmtPpdoRHrLB3EMKs8mxGRk+Ux7qZBxeHaFDgR31oiNrtpM1g6skRibfQ4RfxDXuo1kXRkGhQ5dXT295JXDpauZYSG2HpS2orCnVpZZbU684aUkZkhDaFrUr0JSlRnsRGY2iz3BG29C6G4ptNIdS7DYxx5luyxhpJ2kh9lKVOwbdhw/lFMhZm47FeLdnzkp26NRFhvDxTZJa8QuTY981VxcgmY3nEL5DgRFJU1MXR2KPBGWE7mRk4fRpQW59RF1gIdGqbWZBmWcOslvw68mzmSG2VKajktXKg3FEWyOZXUW5lufUQ+LEaTJ6TwaO670SDdc5EGrkQXpUe3oIv6jYjTfRDKcSqMkh6t6P2sKe7Nxs4EG/jLqnJTLtqhp1Db0gkk0lwjNtTm5JTvuZ9QsU2jnY3b279BglfXy8gwXKYUensNPo9RcpKMbCybegJ6Rp0kpWtKJLREp4mnefc2+oNERlltpHqpQ4qznN3ptk9fjsgm1N2smpfaiKS5/uzJ1SSTsv/hPfZX2bi9VuH6O4qzBvdL8cptUKCI5HkZHfWk9R2UCElaVSVIpP4a45JQSyN1RTEFtuTieocPVbTTW+n1B1e1JuLazqcTtDsHV5O8hZ1+SwZMkjix4jh+ZJ6YjaUlCDPkS2aj5eiPYNZQG+9fppiitUE0WXaN0cLBYee0NdgM35FbYO/rHXHeYlySQlVi29EQl5xxZuGhZoIjQS+U8IxqxxLOcUwuHYaSYFDezHGc1VZyoNG0y6R10KU7AUwZf7hxpaEmbiNlukRE6pzYBp+PpGjSZjyY0SO6+8vflbbQalK2Lc9iLrPqG7OXaX46o7Ksz3TOiw3TiNT4ZKqcmj1KIz0qfKcrEzCRN2I5BqYesXHGuY0t9ASuVJpPmy8sfx3CNXsScq9L5FJcKy6wqKM7DBq+njya1UF9JMsoKXIcstnPBujmKb3V0qiNxRrSkg/P2fU2tUUY7Sslwymx0y4xyGVN9OwozJLqOYi5kGaT2UXUex/0HFG40fBpLOLHcYFo/U5HqMWO404ulfxxqalmLIfsSsZJQVINHOTrUFk1chG0l09jSfWnu8A0ZqbuhuYkzTmrch5EnMX2GaHHEW0eFKjNym4sb5bdd6SOpt9hvwdhhK1PJW2a+YnSAaPANx8gwbwOmto9XonUScWhVGMS9ObI8fSb2Q20iRBJTK5SSS5O8IaXYG6wpxRNqbNKSb5NhLdYcI0jp8QcuDfrsR1BJ9tK8Qo7k72Cpsz/iLU8XMUI0l/7JcmS4ZlsZNgIUAAAAAAAAAAAAAAAAKfwt/Wb0i9e6D9QYEwFP4W/rN6RevdB+oMCYAAAAAAAAAAAAAAAAAAAAAAAAAAAAAAAAAAAAAAAAAAp/Dp9IFt6iZv8AtizEwFP4dPpAtvUTN/2xZgJgAAA+ipMlbyZCpDpup25Vms+YtvRsfp6ti2HqTjieYyWouctlbH/MX+P9R6gA8qUpR7qUZn/UzBK1oJRIWpPMXKrY9ty/oY8AA9/CH+jW107nIsyNSeY9lbejcvt2HoAAPKFrbPmbWpJ7GW5Ht1GWxl/3Aa1n1Gsz6tvT9n9B4AB7LdddM1OOKWalGozUe+5n6T/5j1AAAjNJkpJmRl6DIAAAAAAAAAAAAAAAAAAAAAAAAAAAAAAU/ik+s3q7693/AOoPiYCn8Un1m9XfXu//AFB8BMAAAAAAAAAAAAAAAAAAAAAAAAAAAAAAAAAAAAAAAAAAAAAAAAAAAAAAAAAAAAAAAAAAAAAAAAAAAAAAAAAAAAAAAAAAAAAAAAAAAAAAAAAAAAAAAAAAAAAAAAU/SL6P9bvUSJ+56MTAWLh8t6+hxrWW2tcWq8jisYJH6Sss3JTcZ/mySlSXOqK8y8XKZkouVxPWkt907pPrPG7p/wBlvTD2hk/e4CZKeeW2hpbq1Ib35EmozJO/p2L7Nx5J54tyJ1ZbqJZ+cf8AMXoP/n1n1imeN3T/ALLemHtDJ+9w8bun/Zb0w9oZP3uAmZPPJaUyl1ZNrMlKQSj5TMvQZl9vpMeOmdJo2CdX0Zq5zRzHy83o32/qKb43dP8Ast6Ye0Mn73Dxu6f9lvTD2hk/e4CYDu7TMbu3xqkxOY838n0CZKYaUI5VbPuk65zn/wAXnERl/QZp43dP+y3ph7QyfvcPG7p/2W9MPaGT97gJkbzxtEwbqzbSo1EjmPlIz9J7f16iHjnWSiWSj5i22PfrLb0CneN3T/st6Ye0Mn73Dxu6f9lvTD2hk/e4CZofebUpbby0qWRpUZKMjUR+kj/qRjwl55Da2kOrShzbnSSjIlbHuW5faKb43dP+y3ph7QyfvcPG7p/2W9MPaGT97gJkp55baGlurUhvfkSajMk7+nYvs3HqKf43dP8Ast6Ye0Mn73Dxu6f9lvTD2hk/e4CYD3cffec6Z15a3NiLmUozPYi2Lr/5dQpnjd0/7LemHtDJ+9w8bun/AGW9MPaGT97gJgPZTzq20MrdWptvc0JNRmSd/TsX2Cm+N3T/ALLemHtDJ+9w8bun/Zb0w9oZP3uAmS3nXEIbcdWpLZbISajMklvvsX9Oseop/jd0/wCy3ph7QyfvcPG7p/2W9MPaGT97gMLzHMbvOrtd/fvNrlLYjRz6NHIgkMR22EbJ/r0bKCM/tMtx0633neQ3Hlr6NJIRzKM+VJegi/oQpnjd0/7LemHtDJ+9w8bun/Zb0w9oZP3uAmKVrSZqStRGZGRmR+kj6jHlLrqCJKXFERK5iIj9Cv6/8xTfG7p/2W9MPaGT97h43dP+y3ph7QyfvcBMlPPKbQyp1ZoQZmlJqPZO/p2L7Nx6in+N3T/st6Ye0Mn73Dxu6f8AZb0w9oZP3uAmACn+N3T/ALLemHtDJ+9w8bun/Zb0w9oZP3uAmACn+N3T/st6Ye0Mn73Dxu6f9lvTD2hk/e4CYAKf43dP+y3ph7QyfvcPG7p/2W9MPaGT97gJgAp/jd0/7LemHtDJ+9w8bun/AGW9MPaGT97gJgAp/jd0/wCy3ph7QyfvcPG7p/2W9MPaGT97gHC39ZvSL17oP1BgTAbKcN+qWD2HERpdAicN+nVY/JzSkZamxZ2RKeirVOZInWydtFtmtJnzES0LTuRcyVFuR61gAAAAAAAAAAAAAAAAAAAAAAAAAAAAAAAAAAAAAAAAAp/Dp9IFt6iZv+2LMTAU/h0+kC29RM3/AGxZgOk020rtdS27+XDyChpK/GYLdlZz7iStlhhhchqOSvMQtSj6R5suVKTUe/URnsR5zkPCLqfR2DdHDtcXvbj5dg4/JrqqyN52G/ObddhuOqUhLRNPNMuOEslnyJL+ITZ9QneK5z82cTzTF/kvwn54VsWv6fp+TwXoZ0eVz8vKfPv4Pybbp25t9z22Or0fFvZ43m11nFPhyG5VtkVBfJbXYq2aTWx5LC2OZKEqPpkyVeeRpNHL1Eoz3IMaTw25RKsa9NRmeH2dDPYsH15NFnvfJcQoKUKlpeUtlLqVNk8x1E0rn6dro+fmIdxlnDVEp7iiqImo+LwWp2OV1q/ZWNi4uJKkzHn0soiEwwp5SVoaSouZvzPO6RSPQXa3XFTX3lixWXFXqBkGKv1VlVWjGSZ29Z2T7cxTC92H3Gegj9E5FjqTyxzNZoPpDURpJHJhcWeP1LK4GOafZDj8aNVVNVAk0+WeC2PQwVSz6F+WmLzLZkeFEp5tpLRqWykyUktkpD44twtwJ9O9Cyq1fpcjguZlEsfCZrTUGHIpUQTSa1dGo+QlSX+k2MzUSEEgiP8Amwt7h4uIeRrpLLUTCIUJyFBnwLl6dIOHZNzN/ByjpSwchRqNK0nzMpJBoVzmktjPJ8x4p4uTScleiYC7ERkczLZyyctidNly98ENwiMmE8yWlxVGn0GpLhEZkad1e+JcVLGOUEenLFLyFKh09TVtWdFkfybNcTCXLUppbxMLWUV/wsjcZQaFGbDf8T7CDEX+HTM6yourLJrvHcfkVFlbU7cG0mONPT5lalKpjLCybNnnRzpIkuOINxR8qOc+oWK54TsQi4paWcfD8/hx63T2HmBZW9dw5Fc9LdqmJhx/AUw0PJQp942CUT6jRsS1bpJW2Mv8WNEqfn1zCwbIYz+c2tzZy6z50dJTyjsEK82bDXGNL6mHFrU0ts2lcvIkz3Tzn1sniOwFNo3nVXpLbt5y1icbFkT5eUoerGyaqG6s5KYSITazUplBq5FyFoJSj3JRdQDpZXC/llWttV9m+GVcVuki5DZyn5z7jdTDlIjqiHJSyytwnHjlNkhpCFuHyrUaSQRLP71/ChnMidKi2+X4XRsM2sKnjTLGzcSxPfmxkyYSmDbaWpbbzK0LSs0klJKLnNA+J68UN3d5KnMsKnycdynH6WmlQa+3RHksP1kaKyxLbfWwtO5nGWZoU2Zcr6k77kSwyniJ+cXgsdrEDiw63Iam1r2TsekNiFXQG4UaGaujLmV0TKOZ3Yt1bnyFuA6+p4e7u2xTKclPOsRhScLjSpN3Ty35aJkXoXzYJo1FHOObjjnKltJPbqNafR17Mm4dMvxSGqRaZHjBya+bCr7+E3OX0+PPSt+iKdzNkhJEaVEtTSnCbUXKvlUZEeQZdr3ptl+BWeJv6XZNWT7W6ssjlS67Lo7ceZYvuOHGclMrrlrdRGQ5yJbS8gjI3VEaFOmZdnq7xZvav1z0fIoWcyVXdpEsr2FMzmS9VETR8zrNfD6Mm4yXFnzEbnT9FskkEREZmEoxHBSv7PKa01Nzvm/TWFl00ScTTSvBi/3iVG0vpUfaSSJBqIy89IrWO8GmQSNQqPDMl1DxJpuRldXjF6mtmPSZVSqcajjqUjoSSo3SQpKOVSiS4pCXei6zKTYfn0PDLLKZNdQOORMhpbGlYYcmedEbklslRr5P4poIi+xPN/7oo9PxTvU2pN9qNHwhC3bnMKHLURV2J8rCq2Sp8mDUTXnk5zcvPsnl232UAiVvBZq7abWx7KNYNRJDjCJcbn6GQlKjInEc6Ur5VbblzJSexluRH1DiDl3D1ZJtpsiliSYte7IcXEYkyEvvNMmozQhbiUIJaiTsRqJCSMyMySXoHEAAAAAAAAAAAAAAAAAAAAAAAAAU/ik+s3q7693/AOoPiYCn8Un1m9XfXu//AFB8BMAAAAAAAAAAAAAAAAAAAAAAAAAAAAAAAAAAAAAAAAAAAAAAAAAAAAAAAAAAAAAAAAAAAAAAAAAAAAAAAAAAAAAAAAAAAAAAAAAAAAAAAAAAAAAAAAAAAAAAAAU/SL6P9bvUSJ+56MTpFTauVTt6islqrWJDcR2YTKjYQ+tK1IaU5tyktSW3FEkz3MkKMvQYoukX0f63eokT9z0YovC1ieH31BGm5PitbcknUCriONTGuYnYyqq2dWwZlsZIUtlsz2MutCT9JEA1rAbi6e11FnlJjGfvaQV0m5l0F1Hd+a+Iwp/gpxbGGlqd8jOGhqcaG33GXCIuYkL6U9zb5hyrLTiRjzdinCNHsKy5TmXW8bNnVVKihU8BEOI9GbJx3mcqG9nZazWSkrJ1pbXMZM8hhpgA3VxbHtPbbKCxpjTmqKzxrSfHr6oj1OKMXM62tZkGqXLkrhPPNInLbZdfcJlS+ROzr3ItRLJXzPTvSLJc7yTHJWFIoTwR2lzu/jzIMaBJcrGYJfLUToGX30xzW6cZaIvSKNlbrqORJkaSDS4dnjeMZJmNwxj2JY/ZXdpJ36GFXxVyH3NiMz5W0Eaj2IjM+rqIjMbf/M3TWfoZHyhvTqVLq7nDLi8tLKsw+D4JDvelldEn5ZcmNrh9A6mM2UFDR9I3ykSHFPJMfLIIrF9J1b0a0pwuop8hTilEior6ODyT7tjmhyLJklJ899xZqS70Rf8AAwpKUn17hqXluFZhgNudBnGLW1BZE2l7wSyhuRnTbV/KskrIjNJ7dSi6j+wdMNp8I031Gx3H5NLlNArIc+pMRkW2H4Nb1RTn6lty0jIfccgPIUS3FMKlPojOIPZG7xo9Bnl7lXhGHTly1aTYe5eWOXYJU3kCwp23mKyROqn3bSKyyvzWDU6kiUjb+CslpQSTQk0hpSA3kxzE8UzWXKn1GjGJSbGitdQqOlqItUkm5bcCrivVzbyS86U8264rZazN1w18qlK6tvGOaaY4+qVe5Fp2iNqn8ya2fLxamwSLauQ33bSWy5JKjcdYZJ04bUBa0bbNlJNzo91EaA0rq6C9u32I1LSz570pxTLDcWMt1TriU8ykJJJGalEnrMi6yLrHAG+5UmOWD9Xg9Jp/EYxSBqdPRPhSamIbsF9yjjOG06tlx8mSOQUkkNm+syS0TZmZtbJwWx01lWq8TxOj0lxBnT+4aw9uly2zi+CLlTphRTlmucgidlGp1cxt1jmUTKW1cqUG2XMGoQ5ECtsLWQcWshPynktOvm2y2a1E202pxxZkX/ClCFKUfoJKTM+ohvJd6S0Mg8SyRrSxyRlTzOYRK+qnYMxQtz7CJCiPVrDlY044lwy6WWtonf4knoUktKiPzsBy6hi1eFZndy8VhY1nrullfJyKpi16K8ob7+SssqeRFQlKYy3IJQudtCUp5ZSz2IlmQDX2LpHqpOxBzUCFptk7+MstqeXcN1L6oaW0nyqWbxJ5ORJ9Rq32I+oz3GJjbTUXAdV8g1ga1g06m2NRgBYxDlVmYttOFU1lU1VIbdhm6RciVo2djHGPZa3D5eQzWW/KuMGp4+I2DMvS6rjadR8OxyyxnKPkZtEmfdSHK8n0/KHKS5K1uO2CHIylqS0llfKhJs7gNQQG+HhWAvaipx5OiOnTcRWua8AQRUDRmmicfJDjB7/zOnsRpkH/ABW+sm1ISfKWNSdNY8bT6ljuaT0cfBH9NLq0uMuXToVIRcR3LEoX+3bczTxvMwWiZSpPSpdPclcxGkNNmmnHnEMstqcccUSUISW5qM/QRF9pjlzaS5rYkefY1E2LGmLdbjvPR1obeU0okuJQoy2UaDMiURegzIj2G9GWYjprp+qptKDBpKKent8WcxXIJWHV8OBJNx1k3nTs1zFu2pOtKeWpBsK6JaUmRMpQZDrsjwlMu8vbrxX1tjqKhOYzKWkeoG1lOnNW8JtJqhcnJIU3BdlvIbUhRKNJKMlfaGjYDebRvSpi4zM5ub6U4/AZtcpp6TIKmpxVq3TXl4HGclFIcedQ3SMr8IUtbje7qHUutoIiZNJYy9ptBosOTUyNKYhaft4NezLnJ5VKk50bJYxzENNKnqQTjDqJjcOOUXnSlSFkakGbnMA0/HJm1tjXFHVYQX4xTGEyY5utmknmVGZE4jf+ZJmlRbl1bkZfYL9w8YzZ2entrb6faWU+e5ajJ62DYRLSqRYNw6Zxp4zXyLIyYbcdTyuSvNNokI2WjnMz+dhGl2Gnmmysawyvu7pnJsygV9WpBz2HKptqG82gtzI3ENuyJy0Hv6SUr077hr4AtHDbg2P6uv5FpJZIgRLW2ahWlVbPpSTkQokgjmpJw+tLfgLst5Regzit9R7FtacWqMQzX5DyfFNFqRem2T22QOZrP+Q23lUENpxfQMolGk1QTZhJYeQpC2zddWrmNfoAaczqa3q3Y8ezqpkR2Ww1KjofYU2p5l1JKbcQSiLmQtJkaVF1GR7luPWzrLGlspdNcQJMGfAfcjSoslpTTzDyFGlba0KIjSpKiMjSZbkZGRjcqiwKPGxmnt9ONIKLL796BhabmNLqilpgVkivW4/K2/8AYk88nZyV1Ka5E7LTz7jXLiS+sVqn663n/wCOeATkAAAAAAAAAFP4W/rN6RevdB+oMCYCn8Lf1m9IvXug/UGBMAAAAAAAAAAAAAAAAAAAAAAAAAAAAAAAAAAAAAAAAAAU/h0+kC29RM3/AGxZiYCn8On0gW3qJm/7YswEwAAAAAAAAAAAAAAAAAAAAAAAAAAAAAAAAAAAAAAAAAAAAAAAAAAFP4pPrN6u+vd/+oPiYCn8Un1m9XfXu/8A1B8BMAAAAAAAAAAAAAAAAAAAAAAAAAAAAAAAAAAAAAAAAAAAAAAAAAAAAAAAAAAAAAAAAAAAAAAAAAAAAAAAAAAAAAAAAAAAAAAAAAAAAAAAAAAAAAAAAAAAAAAAAU/SL6P9bvUSJ+56MdHiGld7mWPu5NAsIMeGzcxaNZOokOO9O/HkvoUTbDTilIJMNwjMiMyNSeoy5jT3mkX0f63eokT9z0Yy7h01RwXBKBELK7zwF4s0rbY0+DPO/wCyNVlow45u2hRdTkphPL/MfPuRGRKMgm+K6Qar5HOxoqHB8gSjK56K2lnqgPtxpT6z25W3+XkVsW5qMjPZJKM+ojHEk6XamQk5AasEyJTGMvrjXb7da+pmAtB+cl9ZJ5W9tt/P26usbGV2sOmVZT4PeXWd18uzqJmIOGdIzaRZjkauU0l1mziOEcJZx2kKQ09HVzubIMyPnXy87TDUTQ/FJCF22pFBMV8r5GmZJnt3rhtJnNKYZfgR2m0MG042aOmXJQp0koMib81BLDXnDNGNQslmJkqrnsbq2ILlu/fXDL8WDFhtoZWqQbiUKUstpMblJpK1qOQzypPnTv4yfSOxr1Ub+GZPU59HyV92JAXjyJTj6pbfJzx1xXmW5CXNnEGX8M0rJXmqVsravva14Zk97PwPJM5kIxO80poMKj2S2JK49LYRI1a+pRskjpTZ8NgrbcNtCjUSzWklkREfTYHJ0d0vt2qCJqfBm3V9R31XY5fCjTvkyoVLik1EQ0lbCJK+snkvOpaPZEnZBK5DNQSdrTHVVy8lYSzp7larmI4gpVQmpknJZcUXmc7HJzpMy323Lcy9A+MnTfUisKvkTMCyWIVk663Xrdq32/CXGTPpUtGaS51I5T5iTuadj322FxyfWTHabS6z07oNRFWNxCw6ox0raAiW2m0W3cyZzraHHG0L6Jlp9pojcSjmJnZO6eUVjBNdscz/AF4yJ5jUGdJettSod9RylMSDW3Wx6a4ZdkNktJchoN2IXIfKtWydiPlMyDTt3TjVKJlkTFX8DypnJp6CkxK1dXJTPkJURqJxto09IsjIlGSiI99jMdzjOgmqGT18y6RjNhBrqzI6/GLOXKgSj8BmzFLSgnW2mlumSTQRLJCFLI3Gkkk1OISq+4NqxpTiGIFpdb59j2VW8zHraJ85LBu7RUsKlWMGSiAtxlLE9LZtxJClLbSSSclcquZBuDl0mv2mis/+ULrOqaJEpc601uUyIFZapjT4FK1JjTDZJ85Eham0yGlEqQpK3W2DVypXs0A1pxWJqbiFHbZ/QYranQSoczHplyqsdXBSiS2bLrfTGnkS4aV7ERnuRmXUOtuMH1FxddVPv8PyOoVep6aremV78c56VbecwpaS6Uj5i60778xf1Fwc1Rw75u4rl0bU3wUsexlGPTMGaiSjXYrTYrdcQpRteC+DPoX061G50nSEpJI35VDOaXXHS/AtQZWQWupsXO4WT6jIy9p5MKw5qRgolg0l95LjbSkv9JPYUpEdajIoXmq36IwGritLNUW8nbwZenGUpyJ9sn26c6eQU1bexmSyY5OkNO2/Xy7Dk0GmGQ3LL7trLjY/Gh3USgdct+kZS1OkKUXRqSSTUnkS04twzLzCSRH1qSR7HK1ewVt+Fhacy0tOBHx+yjSW0V2TO000pM+JI8DXOffXYtr3jeEIW02hCHd0GaukWpOJ6ku0uqWF2lXpVOs715OpiFpVKfdeky02EFliMrneInVoS/FkIStwiVs63zkSlERhA7rG8rx+VYtXdTYRHamyXWTluNq5WJyDUSmVr9BOFyL6t9/NM/sGQyYGY6XQKDK/lKG61qHjc2QhsjU7zwXJMqC63IStJFz9JFcWnY1cpk0slEstk5JxE5LU5fqXqRklJm7cmDYZtLei1jZPcs5rmeJNkRknoesiL0q5/wCN1Fy7mO2yiPptqDpXprtrbi9Fb4hisuqnU1lXXCpK5HytYS0E2uPCdYMltyWtjN0iIzMlcu24CeTtL9QI/wAstVWP3N1WUCG5NnNr6yYqJEStpKyW6bjSDa2SrbdaUl1bkZp2M/jn+nGeaZvVVXnFLNrFWtbHuYLchC0kuPIQS0qIlEXnbbEovSSiMj6yG0Dms+kt0/dP2WodWVMmc9JjtojW0G7iuO00OKp+ufjp6J7pVRzZcZlpJBE0kyPlcUosNb1x0oprSjuLOkZySU/hdFUtWrcZL87F5sOP0L/LFnMqiSTWaSUR+ki5DS62rmIBJMP0ftsioJmZZHfVmG4xCcjsHb3bcropDz/SG01HbjsuuvKNLLqjNKDQkkHzKTuW/dZtg+qmS5HRYDRx0Z4dPjzBU7uIxnpzcmr6R15D3IlBOpNK33CUTraFoPzVJSZDPr7MMM1Pwy605yviGVYWT11EyinyjJYNglC0+Dux366U202+thxKSYW2bfSskRKSS079XXVlhpDGxXMdI8M1Ri0PhysfmllVlGnIjW78JMrwxpCWWFvstKdlNONEpsjV4Gg1klaiSQR+Fp/qPcVsmdXYTkk6vq+nOS8xWvusxejNPTc6iSaUcpqTzb7bblv6SHILSrVhGRfNktN8tTfIQ0/8n/I8kpZIcPZtfRcnPso9uU9uv7BtBK4qcRTqNieQ0meWFfAq8wym2muIYktqdQ/AiRok11CUnzuPqZeWZFzKSa183KSuvrsEzGozfQO3oj1QTR2lZp43UW9pPRMUiOtzLlyW2HXGm1uKQtp5HW2lZF0myti59g1mq9PdRLixtaKlwfI5s6nSpVpDi1j7j0NKD2Ub7aUmbZJMjI+Yi2Mh3x6NajIwmvzuzrpUHHrqJOsYMp+PJW1K8FPZwiNttRJUe58ql8qNiMzURdY2Yr9etIJpWNNEynG2pVZdY9YnkGSs37ZXPyfUR4bkxlNY426p8pDDzyG5PKSikbmaF84wyRrbp7cYnYTpeTRI02TAzaIVQiulM/xLJ9D8U20JJxttpRcyOU3lGgy2MzLZZhr3K0/1CrI1RNm4RkUSPkhJTUOu1r7aLLnMiSUdRpIntzMtuTffqHeW+I6y397TaYTdPsmO6pICo1fQN0shMxDBuOPLX4OSOkUaluOLNRl/9ySIrxcam6Z2mrszN5uvE1eO5bk/zhao4LFhHRSEmFLTGRKcJklNGy48zFI4fSH0HSqSZGTZHzcq1L0kyTA2tO6PUfEcbny8OOicnwIl38nxnY94ueUTpZDbss2H2nyMlnzfxY5kokINJmGpdlQ3lMpxNvTToJtSHYbhSY62jQ+3t0jR8xFstPMnmT6S3LcuscNLrqG1tIdWlDm3OklGRK29G5faNp52u2HQsptsgk6tXVxQnHq6l/F4lMmUxkrsGsixXLGUmxQcZkn1suKS4bLsgv8AibQZ8x66Z7fUGUZha5Bi+HxsWqpz5uxaeNJcfbho2IuQnHPOV1kZ/YW5mREktiIOjQ443zdG4pPOnlVyntuX9D/wHqAAAAAAAAAAAAKfwt/Wb0i9e6D9QYEwFP4W/rN6RevdB+oMCYAAAAAAAAAAAAAAAAAAAAAAAAAAAAAAAAAAAAAAAAAAp/Dp9IFt6iZv+2LMTAU/h0+kC29RM3/bFmAmAAAAAAAAAAAAAAAAAAAAAAAAAAAAAAAAAAAAAAAAAAAAAAAAAAAp/FJ9ZvV317v/ANQfEwFP4pPrN6u+vd/+oPgJgAAAAAAAAAAAAAAAAAAAAAAAAAAAAAAAAAAAAAAAAAAAAAAAAAAAAAAAAAAAAAAAAAAAAAAAAAAAAAAAAAAAAAAAAAAAAAAAAAAAAAAAAAAAAAAAAAAAAAAACn6RfR/rd6iRP3PRiYCn6RfR/rd6iRP3PRiYAAAAAAAAD6xZcqC+mVCkux3kb8rjSzQpO5bHsZdZdRmX+Y+QAAAAAAAAD7RZ02CtS4Mx+OpZESjacNBmRGSiI9v8SI/+ZEY+IAAAAAAAAAAAA+rUuUwy9HZkuttSUkl5CVmSXCJRKIlEXUZEZEfX9pEY+QAAAAAAAAAAAAAAAAAAAAAAAACn8Lf1m9IvXug/UGBMBT+Fv6zekXr3QfqDAmAAAAAAAAAAAAAAAAAAAAAAAAAAAAAAAAAAAAAAAAAAKzwvzI9fqpKny6qLZsRsLzN52FKU6lmUhONWRm04bS0OEhRFymaFoVsZ8qknsZSYU/h0+kC29RM3/bFmAeN3T/st6Ye0Mn73Dxu6f9lvTD2hk/e4mAAKf43dP+y3ph7QyfvcPG7p/wBlvTD2hk/e4mAAKf43dP8Ast6Ye0Mn73Dxu6f9lvTD2hk/e4wHHcayPMLmNjmJUFld20w1FHgV0RyTIeNKTWrkbbI1K2SlSj2LqIjP0EPNXjOSXcKysqXH7KfEpmClWT8WI463CZNRJJx5SSMm0GoyTzK2LcyIBnvjd0/7LemHtDJ+9w8bun/Zb0w9oZP3uJgOU7VWjFZGun62U3XzHnY8aWplRMvOtEg3UIWZcqlIJ1o1ER7kTiN9uYtwovjd0/7LemHtDJ+9w8bun/Zb0w9oZP3uMFpMTynJS3x3GrW0I5bEDeFDcfLwl8lmyz5hH/EcJp00I9KujXsR8p7dUAp/jd0/7LemHtDJ+9w8bun/AGW9MPaGT97icQq2wslPIr4T8k47K5LpNNmro2kFutatvQki6zM+ofeRQXsOE5Zy6WexDZk+BOSHIy0tokcvN0JqMtiXykauU+vYt9gFA8bun/Zb0w9oZP3uHjd0/wCy3ph7QyfvcTAAFP8AG7p/2W9MPaGT97h43dP+y3ph7QyfvcYvi+l2pecV0u3wvT3JL6DAM0ypNZVPyWmTItzJSm0mRGRHvsfXt1+gY45FksstSHY7qGnubo1qQZJXynsrlP0Hsfp2AUvxu6f9lvTD2hk/e4eN3T/st6Ye0Mn73E6n1NrVFGO0rJcMpsdMuMchlTfTsKMyS6jmIuZBmk9lF1Hsf9BxQFP8bun/AGW9MPaGT97h43dP+y3ph7QyfvcTmdW2NYtpuxgvxVSGG5LRPNmjpGXEkpC07+lKiMjIy6jHc4dpxqHqI9Kj6f4HkWTuwkJckt01W/NUwlRmSTWTSVGkjMjIjPbfYBlvjd0/7LemHtDJ+9w8bun/AGW9MPaGT97jCrjCM0x56zj3+IXdY7SutM2SJle6yqE46Rm0h4lpI21LJKjSStjVse2+w+eL4jlecXDWO4VjFtkFq8la24NXCclyFpQk1KNLbaTUZERGZmRdRFuAznxu6f8AZb0w9oZP3uHjd0/7LemHtDJ+9xhmW4Lm+AWCKjO8OvMbnONk6iLb170N1SDPYlEh1KTMtyPr22HRgKf43dP+y3ph7QyfvcPG7p/2W9MPaGT97idPVNrHrYtzIrJbVfNddZjS1sqSy+40SDdQhZlyqUgnG+YiMzLnTvtuQ4oCn+N3T/st6Ye0Mn73Dxu6f9lvTD2hk/e4nVXU2l3NTXUtbKny1oWtLEVlTrikoQa1mSUkZmSUJUoz+wkmZ9RDigKf43dP+y3ph7QyfvcPG7p/2W9MPaGT97iYAAp/jd0/7LemHtDJ+9w4pPrN6u+vd/8AqD4mAp/FJ9ZvV317v/1B8BMAAAAAAAAAAAAAAAAAAAAAAAAAAAAAAAAAAAAAAAAAAAAAAAAAAAAAAAAAAAAAAAAAAAAAAAAAAAAAAAAAAAAAAAAAAAAAAAAAAAAAAAAAAAAAAAAAAAAAAAAU/SL6P9bvUSJ+56MTAU/SL6P9bvUSJ+56MTAAAAAAAAAAAAAAAAAAAAAAAAAAAAAAAAAAAAAAAAAAAAAAAAAAAAAAAAAAFP4W/rN6RevdB+oMCYCn8Lf1m9IvXug/UGBMAAAAAAAAAAAAAAAAAAAAAAAAAAAAAAAAAAAAAAAAAAU/h0+kC29RM3/bFmJgKfw6fSBbeomb/tizAd/wr0kS3v8AJnHsGnZE/Fp0LjuwsejZC7WLOUwRyTqn1JKW2aeZpZp85snucusiFyo9LqysyivqK/SzFb7GJmeXNZqTaxaY5Mekr21sq6Nl94lu1jbUVTzyFktKzcJaFKX0XKNIWnnmF9Iw6ttexlzIUZHsZbH1l/gCHnUIW2h1aUOERLSSjIlER7luX2gNvKudheP4YuFH0nwmf8l6RxssZlz6Vp6S7bHZNMokurPc1pJt3Y2T3aXt56VDMcO0rxmTqNOyBvAqZ6muZWGHYQYGHMW6YZTqWNOmkpLzrbNVCWuQ4ZyS3WjkImyIkKGiA8pWtKVJStREstlER9Rlvv1/5kQDeDE0xNIdQNNcZxTDKykuImPZ1bSLhcLa1W/DcyONGQt1XnESEMo3LYjVyo5tybQSeVJrsZxLCtSo9O8zErtYcakZ+bccyV4FTm/CKKyRF1kbciXaNKSf2xUH19RloqpSlqNSlGZme5mZ9ZjwA3+zrSfRuNm1XjtjpzMh0DWfV9XjE2RjEOlg2deaHzTH8PROW/bMyeWKpUs292yWSjU0TqWx1C8IzLIaDTFnOtJaXF7uvkZzaSKBrEekW90UasShbdMRtpekERpNDKuVC0spcXzJNRq0aW884lCHHVqS2XKglKMySW++xf06x5OQ+b3hBvOG7vvzmo+bf+u/pAfoljuHVWF59RPwMaerI9zmWmNnJjO1bdWTkk4t43IPwVlSm4yjcaUS2m1GTbnOnqMjIpBg2P12q9ZgGfNYDicK1bLLmZMOqxZEpEtiBHhLj9FWIUhE6S2c5w0pcV55NpN1SiQoz1KNSjIiNRmSS2Lc/QCFrbWTja1JUk9yUk9jIwG4etOG1en+L5zkmO44mrm2VHhcmRGlUrEFLjbjzxzVKhNmtlkjlwopOx0mpCXDUgy83lKkWuGws01hze0vdMqS7s38hvnauHIqm2mrBpGJzpULqQSedC3UMuEsj3UeyiVv1jQmjym5x6PaQ6+QXg11AXWzmHE87bzBrQ4RGR/al1ttxJl6FoSY+mJ5fdYXZyLekcaTIlVdjTuG6jnLwabDdiPkRH6D6J9wiP7D2P7AG168EnoqDyNnR2mXrMWDtWKsRRizKkMEVy4yucqoNs2vCDhkyfRGzyk2o3+TfzikGutB8i5BmEbGtP66HWsJxteQOsQ+qiuna/nlQmF7/wABCpRzEm1t/wDs5JLYm+uMpkSEPeEofcS9vzdISjJW/wDXf0j5gNstEqPI8l0508g2WleQZXSw7ua5UZLgli8xa4rKcfb6UppGy5HL/dtvo6Qkbtq/3pERkjMj8DawyE7b0ONZ/S4dE1AVFtpNMyqNPsI0glx3nXWyI1GslJe5DX5yTLfcusaPIfeaQ4028tCHSInEpUZEsiPciMvt6x6bnty7nt6dgG2lu/jeIaXS9SYenOHTbtWPYlKZOfSMPxmH5UizOQtMdSeiPnS0lHKpJpIiSZERpSZU+g0hxuNrDVUWG6MYxkmLXOeWTWWHIrEySoo5eDqjRulVucRpKVrcbLdPTKX0R9ISSSPz8Gb4Zq5kOCVZQKSox9Uph56RBtJNY25OgOOtkhamXj699kkaeclEhW6kElRmZhnzzFnY6X6RO02KRshyBuJlkREOTG8JSura3dJzk3L/AHKnbB1J/wDCpvm+zYdxwwY5KynS/Vuph6XX2oDik0K/kWkW8mUskyXf4hGy24vlT6T83b/EhB7zJrbIWKqLYvJOPSQEVsBltJJQyyS1uGRF/VTjjrij+1Tij+0dUA34t8HwrK8vjM51jsOqVFi4HAXj9tNJ52iJCZ7KaqRK81ZdOUaMpZqNK0pkpI+U0dXAx3BMum1OPnaaLxMYz3JMU1MgPVlRReAy7AkVDCYqThtpI0r/AIq0oQlBcxGSyIzcNStJKO4l49cwb2C3GckV8huS0iVHRIZWpCiMkuNOEaHEntsaVEZGW5GWw7vNtRLfOGq2DJrKmqrahLpQq6qiExHaU6olOubbmpS1mSd1KUZ7ISktkpIiDZ7SLT1uppcB0g4h6WVCnzcttbmnx2zY3nNNtVDnI0uI4ttSES5yIbaWVra6Y2lFuRHzjtrzBKptqdaYhotKnarR8VTNjUdzgUGAclo7RLa5qKBl+SgnUMGaNltpJTe7xIM09INIh9FyJDjxyHH3FOq9KzUZqP8Az9IDcdnGcVpqeVktzpRh7NtXtZ6+/VIbKXBjzYkaqNpBbmfMll514yRuaUmpSOtO+/xyupxPPaK+xqNpzg9C+WB4blLc+HWtQVItrCdVMSHVPJLdmOpuc6Rsp2aTsSkoI9zPToAH6B2GmldQ29DkSMIcp7KsvMnpXXUYa3jzXgh0clTSENpdccks87TvRSpHK65s6R7mk9vz8Hsp11e/O4pW+2+57+gti/7i6h6gAAAAKfxSfWb1d9e7/wDUHxMBT+KT6zervr3f/qD4CYAAAAAAAAAAAAAAAAAAAAAAAAAAAAAAAAAAAAAAAAAAAAAAAAAAAAAAAAAAAAAAAAAAAAAAAAAAAAAAAAAAAAAAAAAAAAAAAAAAAAAAAAAAAAAAAAAAAAAAAArOhEFF7Rar4o1dUNfY3uFsRa4rm6h1TMh5u/qJCm0vy3W2ufoWHlkk1kZk2rbccXydNQPvDph70sY7wEwABT/J01A+8OmHvSxjvAPJ01A+8OmHvSxjvATAAFP8nTUD7w6Ye9LGO8A8nTUD7w6Ye9LGO8BMAAU/ydNQPvDph70sY7wDydNQPvDph70sY7wEwABT/J01A+8OmHvSxjvAPJ01A+8OmHvSxjvATAAFP8nTUD7w6Ye9LGO8A8nTUD7w6Ye9LGO8BMAAU/ydNQPvDph70sY7wDydNQPvDph70sY7wEwABT/J01A+8OmHvSxjvAPJ01A+8OmHvSxjvATAAFP8nTUD7w6Ye9LGO8A8nTUD7w6Ye9LGO8BMBQOHmiqMp1+0zxnIIDU6rt8wpoE6K6W6H47s1pDjav8ABSVGR/4GA5/k6agfeHTD3pYx3gHk6agfeHTD3pYx3gJgACn+TpqB94dMPeljHeAeTpqB94dMPeljHeAmAAKf5OmoH3h0w96WMd4B5OmoH3h0w96WMd4CYAAp/k6agfeHTD3pYx3gHk6agfeHTD3pYx3gJgACn+TpqB94dMPeljHeAeTpqB94dMPeljHeAmAAKf5OmoH3h0w96WMd4B5OmoH3h0w96WMd4CYAAp/k6agfeHTD3pYx3gHk6agfeHTD3pYx3gJgACsw+F/VSwjzpcCfp1JYrGClTXWdTMaWiKybqGicdMp+yEG6603zK2LmcQn0qIj4vk6agfeHTD3pYx3gGkX0f63eokT9z0YmACn+TpqB94dMPeljHeAeTpqB94dMPeljHeAmAANitBNGslwrXTTnMsmy7TCHT0OWVFnYSfGdjbnQxmJjTjq+RE41K5UJUeySMz22IjPqGuoAAAAAAAAAAAAAAAAAAAAAAAAAAAAAAAAAAAAAAAAAACn8On0gW3qJm/7YsxMBT+HT6QLb1Ezf9sWYCYAKDpfpbB1DxnUO8kZVEq5OF481cxIjrbq12Di58WMTSejbVtv4RyluZH0jjJfyGtaM+xbhFu7HUTHsLvs9xpDUjLa/Ecm+Tn335OPTpS1pRHfSbJJW6o2nm0qaU40TqOVbiPSAgACmQdCba4p7a2os3xOxerY9lYM1zEqQcydXwec5ExpBsklDZIacWSXlNOKSkzJBim3nDBhEfTTPslp7m8Xf4xDx2fWRXnWVMy25VQxYT0rImyVzNocfcQZGRE2wZK5j84BrMA2JyThXjMYPpnNx27WzkGQ1tpaZa/bSUN1lPHYjwpjThGhs3EEUawZJZH0ilOmSUpIzJJ4o1wzZab0yRMzDDoFEyxXvw8gl2LjddZHO6UojcdXRdJzrONJIycbR0fQOdIaOUBIQF1yjhhl+NDNMEw7K6ZpdHklrQ0tXazVHZ2qoe6lJQllk0Erk5fPcNptSt0pMzIyLtY/DNidrpgnMGM7iY/MKHi8p2XkE7oq9v5SK2J5OzTC3VGS4MYkEkj5SU6pe6S5kBrqArFXw25rYX11iEi+xqvyWot7CiapJM1w5lhNhJ5n22EttrSRF6EuOqbQs+pKjMjIuqstEshqsGg5nNyHH25FjCYs41EuU4iyehPP9A3IbSpsmnSNz0obdU4kvOUgkkZkE8AWDOtG6OiiajxKGdLfstLriJWWi3HErZmNqUcSS+1skjSlM1suQj33bkI3MjQZrxnF9OCttQrTBzmwrkq2su5vhNXZEiO94DXSZXSNvKaXzoLoObl5CNwiNBKbNROJDBQFpe4W8mrmWZNtnOHt9EmllWsRmc87KrIFn0Pg8t5CWTLk/2holJQanEmtO6NlJM8C1awqHpvqdlOAV94zcR8etpNc3NaStJOk04aeslJSZKLblUW23MSuU1FsowxMAAAAAAAAAAAAAAAAAAAAAAAAAABT+KT6zervr3f8A6g+JgKfxSfWb1d9e7/8AUHwEwAAAAAAAAAAAAAAAAAAAAAAAAAAAAAAAAAAAAAAAAAAAAAAAAAAAAAAAAAAAAAAAAAAAAAAAAAAAAAAAAAAAAAAAAAAAAAAAAAAAAAAAAAAAAAAAAAAAAAAAAAAAAAAAAAAAAAAAAAAAAAAAAAAAU/hb+s3pF690H6gwJgKfwt/Wb0i9e6D9QYATAdxhuTPYZlVVlcetgWDlVLblJiT2Cejv8p78jiD9KT9B/b9pGR7GOnAB3ebZVJzjLbbLpldAgP20pcpcaBHSxHaNR78raE9REX/f9pmZ7mOkAAAAAAAAAAAAAAAAAAAU/SL6P9bvUSJ+56MTAU/SL6P9bvUSJ+56MTAB32B3ycZy+rulUdTcFHkJ/wBjtY3hEVzfzfPb3Lm233IjPbci3Iy6hl3E+y1H4ltWmGGkNtN5zfIQhCSJKUlPeIiIi9BEQmiFqbUS0KNKknuRkexkf9RybW1s72zmXd3YyrCxsH3JUuXKeU69IecUaluOLUZqWtSjMzUZmZmZmYDigAAAAAAAAAAAAAAAAAAAAAAAAAAAAAAAAAAAAAAAAAAAp/Dp9IFt6iZv+2LMTAU/h0+kC29RM3/bFmA6bTTUZrT+Ll8N6qkTE5TQfI6HI8wo7sN9E6JNYkEam1kskvQmuZGxcyFKIlJPZRU5fFFj1RmTWd4TptMrrKxzmqz3IWpd2mQxKlQXnXyixkpjoVHYW6+6syWp1RbNER+YZr17ABsbjPFXjmKYgeEVWD5VHqDp72gcgR8tSzElR7EpaUy5TKIhFInNNyybJ1fmcrCOVtHVy8GJxW+D2MSS5gCXoqbGlfnxVWhkmZCh0Z1EqIaia3SUlhbp8/Xyc+3Kvbc4AADZCn4zbqBeLs149YwkTZ2SvTXKa8VAltRbbwLkZhvpaM46oxwGeReyyUnzTQRb79dkHEtjOcItKHUTEMwybHnV1cmtKwzV2TaNyYSZKSU/LfYcJbbxS3iW0220lPmGjlMlGuAAA2ppON6NV5VZ5b8wLuE7ZZfZ5PIg0+U+AxJ7c1SD8GnJKMpcroCQrojNSUEa9zbPZRLlmX65M5Npl4tY2KLhspTQNty12BOqJNYi0SW6CaSRm4Vn/UuXof8Ai5/NlIANqaXjei1eV2eWpwG9huWWX2eTyINTlXgUawamqQfg88kxjVL6EkK6IzUlBGvc2z84l4OzxG11RpX4vMdxq+QroYyG2bLIfDamHIZmNSCnRYa2OZiU4TRIcUh0kH0jp8myySmHAAu2pGfYatGr91jFo0+rVK6hyoUNvfnhwnHvlKQ27uXUpp84zBfYtTbqiPZJGrA8U1DpMI1CtMuxvFJDdXLq7uqiVkiy6VyM1YVsmERqkdEXSG34Tz/7tPPycvm77lgoAK5P1/cl2WXWTWKpbXlGPY/RJSqbzFFOsXXLJ4/4ZdITnydtyeby9L/Mrl87C9UsurtQNR8lzurp5FSxkVnItThPzEylMOPrNxxPSk22Sk86lcvmEZJ2I9zI1Hi4AAAAAAAAAAAAAAAAAAAAAAAAAAAACn8Un1m9XfXu/wD1B8TAU/ik+s3q7693/wCoPgJgAAAAAAAAAAAAAAAAAAAAAAAAAAAAAAAAAAAAAAAAAAAAAAAAAAAAAAAAAAAAAAAAAAAAAAAAAAAAAAAAAAAAAAAAAAAAAAAAAAAAAAAAAAAAAAAAAAAAAAAAAAAAAAAAAAAAAAAAAAAAAAAAAAAp/C39ZvSL17oP1BgTAU/hb+s3pF690H6gwAmAAAAAAAAAAAAAAAAAAAAAAACn6RfR/rd6iRP3PRiYCn6RfR/rd6iRP3PRiYAAAAAAAAAAAAAAAAAAAAAAAAAAAAAAAAAAAAAAAAAAAAAAAADO9E8uxjCs7VbZk5aNU8yhvqSS9WRG5Uln5QqZcJDqGXHWkuci5KVGk3Ebkk9j32GCAAp/ze4ZPxd1P93Nf32Hze4ZPxd1P93Nf32JgACn/N7hk/F3U/3c1/fYfN7hk/F3U/3c1/fYmAAKf83uGT8XdT/dzX99h83uGT8XdT/dzX99iYAAp/ze4ZPxd1P93Nf32Hze4ZPxd1P93Nf32JgACn/N7hk/F3U/3c1/fYfN7hk/F3U/3c1/fYmAAKf83uGT8XdT/dzX99h83uGT8XdT/dzX99iYAAp/ze4ZPxd1P93Nf32Hze4ZPxd1P93Nf32JgACn/N7hk/F3U/3c1/fYfN7hk/F3U/3c1/fYmAAKf83uGT8XdT/dzX99h83uGT8XdT/dzX99iYAAp/ze4ZPxd1P93Nf32Hze4ZPxd1P93Nf32JgACn/N7hk/F3U/3c1/fYfN7hk/F3U/3c1/fYmAAKf83uGT8XdT/dzX99h83uGT8XdT/dzX99iYAAp/ze4ZPxd1P93Nf32Hze4ZPxd1P93Nf32JgACn/N7hk/F3U/3c1/fYfN7hk/F3U/3c1/fYmAAKf83uGT8XdT/dzX99h83uGT8XdT/dzX99iYAAp/ze4ZPxd1P93Nf32Oh1nzKs1F1hzrUGkYlMV2T5LZ3MRqUlKXkMyZTjqEuElSkkskrIjIlGW++xn6RhwAAAAAAAAAAAAAAAAAAAAAAAAAAAAAAAAAAAAAAAAAAAAAAAAAAAAAAAAAAAAAAAAAAAAAAAAAAAAAAAAAAAAAAAAAAAAAAAAAAAAAAAAAAAAAAAAAAAAAAAAAAAAAAAAAAAAAAAAAAAAAAAAAAAACn8Lf1m9IvXug/UGBMBT+Fv6zekXr3QfqDACYAAAAAAAAAAAAAAAAAAAAAAAKfpF9H+t3qJE/c9GJgKfpF9H+t3qJE/c9GJgAAAAAAAAAAAAAAAAAAAAAAAAAAAAAAAAAAAAAAAAAAAAAAAAAAAAAAAAAAAAAAAAAAAAAAAAAAAAAAAAAAAAAAAAAAAAAAAAAAAAAAAAAAAAAAAAAAAAAAAAAAAAAAAAAAAAAAAAAAAAAAAAAAAAAAAAAAAAAAAAAAAAAAAAAAAAAAAAAAAAAAAAAAAAAAAAAAAAAAAAAAAAAAAAAAAAAAAAAAAAAAAAAAAAAAAAAAAAAAAAAAAAAAAAAAACn8Lf1m9IvXug/UGBMBT+Fv6zekXr3QfqDACYAAAAAAAAAAAAAAAAAAAAAAAKfpF9H+t3qJE/c9GJgKfpF9H+t3qJE/c9GJgAAAAAAAAAAAAAAAAAAAAAAAAAAAAAAAAAAAAAAAAAAAAAAAAAAAAAAAAAAAAAAAAAAAAAAAAAAAAAAAAAAAAAAAAAAAAAAAAAAAAAAAAAAAAAAAAAAAAAAAAAAAAAAAAAAAAAAAAAAAAAAAAAAAAAAAAAAAAAAAAAAAAAAAAAAAAAAAAAAAAAAAAAAAAAAAAAAAAAAAAAAAAAAAAAAAAAAAAAAAAAAAAAAAAAAAAAAAAAAAAAAAAAAAAAAACn8Lf1m9IvXug/UGBMBT+Fv6zekXr3QfqDACYAOVZ1VnSznKy5rZUCYzt0keUypp1G5Eot0qIjLcjIy3L0GRjigAAAAAAAAAAAAAAAAAAAAKfpF9H+t3qJE/c9GJgKfpF9H+t3qJE/c9GJgAAAAAAAAAAAAAAAAAAAAAAAAAAAAAAAAAAAAAAAAAAAAAAAAAAAAAAAAAAAAAAAAAAAAAAAAAAAAAAAAAAAAAAAAAAAAAAAAAAAAAAAAAAAAAAAAAAAAAAAAAAAAAAAAAAAAAAAAAAAAAAAAAAAAAAAAAAAAAAAAAAAAAAAAAAAAAAAAAAAAAAAAAAAAAAAAAAAAAAAAAAAAAAAAAAAAAAAAAAAAAAAAAAAAAAAAAAAAAAAAAAAAAAAAAAAD6xZUqDKZnQZLseRHcS6y80s0LbWk90qSousjIyIyMusjHyABVOJaVKnalV86dJdkSJGD4U6886s1rcWrGa01KUo+szMzMzM+szErFP4i/pAqfUTCP2xWCYAAAAAAAAAAAAAAAAAAAAAKfpF9H+t3qJE/c9GJgMx021JXp0vIGncPocnrsnqSprGuuVTEsrZKZGlpUlUR9h1KyehsmRk5ttzEZHuO+8bun/AGW9MPaGT97gJgAp/jd0/wCy3ph7QyfvcPG7p/2W9MPaGT97gJgAp/jd0/7LemHtDJ+9w8bun/Zb0w9oZP3uAmACn+N3T/st6Ye0Mn73Dxu6f9lvTD2hk/e4CYAKf43dP+y3ph7QyfvcPG7p/wBlvTD2hk/e4CYAKf43dP8Ast6Ye0Mn73Dxu6f9lvTD2hk/e4CYAKf43dP+y3ph7QyfvcPG7p/2W9MPaGT97gJgAp/jd0/7LemHtDJ+9w8bun/Zb0w9oZP3uAmACn+N3T/st6Ye0Mn73Dxu6f8AZb0w9oZP3uAmACn+N3T/ALLemHtDJ+9w8bun/Zb0w9oZP3uAmACn+N3T/st6Ye0Mn73Dxu6f9lvTD2hk/e4CYAKf43dP+y3ph7QyfvcPG7p/2W9MPaGT97gJgAp/jd0/7LemHtDJ+9w8bun/AGW9MPaGT97gJgAp/jd0/wCy3ph7QyfvcPG7p/2W9MPaGT97gJgAp/jd0/7LemHtDJ+9w8bun/Zb0w9oZP3uAmACn+N3T/st6Ye0Mn73Dxu6f9lvTD2hk/e4CYAKf43dP+y3ph7QyfvcPG7p/wBlvTD2hk/e4CYAKf43dP8Ast6Ye0Mn73Dxu6f9lvTD2hk/e4CYAKf43dP+y3ph7QyfvcPG7p/2W9MPaGT97gJgAp/jd0/7LemHtDJ+9w8bun/Zb0w9oZP3uAmACn+N3T/st6Ye0Mn73Dxu6f8AZb0w9oZP3uAmACn+N3T/ALLemHtDJ+9w8bun/Zb0w9oZP3uAmACn+N3T/st6Ye0Mn73Dxu6f9lvTD2hk/e4CYAKf43dP+y3ph7QyfvcPG7p/2W9MPaGT97gJgAp/jd0/7LemHtDJ+9w8bun/AGW9MPaGT97gJgAp/jd0/wCy3ph7QyfvccXX2lxyi1DaaxTHYtFXWGNY1clXRX5DrMd6dSQpb6W1SHHHeTpn3DIluKMiMi36gE6AAAAAAAAAAAAAAAAAAAAAAAAAAAAAAAAAAAAAAAAAAAAAAAAAAAAAAAAAAAAAAAAAAAAAAAAAAAAAAAAAAAAAAAAAAAAAAAAAAAAAAAAAAAAAAAAAAAAAAAAAAAAAAAAAAAAAAAAAAAAAAAAAAAAAAAAAAAAAAAAAAAAAAAAABT+Iv6QKn1Ewj9sVgmAp/EX9IFT6iYR+2KwTAAAAAAAAAAAAAAAAAAAAAAAAAAAAAAAAAAAAAAAAAAAAAAAAAAAAAAAAAAAAAAAAAAAAAAAAAAAAAAAAAAAAAAAAAAAAAAAAAAAAAAAAABT+Iv6QKn1Ewj9sVgmAp/EX9IFT6iYR+2KwBMAAAAAAAAAAAAAAAAAAAAAAAAAAAAAAAAAAAAAAAAAAAAAAAAAAAAAAAAAAAAAAAAAAAAAAAAAAAAAAAAAAAAAAAAAAAAAAAAAAAAAAAAAAAAAAAAAAAAAAAAAAAAAAAAAAAAAAAAAAAAAAAAAAAAAAAAAAAAAAAAAAAAAAAAAAU/iL+kCp9RMI/bFYJgKfxF/SBU+omEftisEwAAAAAAAAAAAAAAAAAAAAAAAAAAAAAAAAAAAAAAAAAAAAAAAAAAAAAAAAAAAAAAAAAAAAAAAAAAAAAAAAAAAAAAAAAAAAAAAAAAAAAAAAAU/iL+kCp9RMI/bFYJgKfxF/SBU+omEftisATAAAAAAAAAAAAAAAAAAAAAAAAAAAAAAAAAAAAAAAAAAAAAAAAAAAAAAAAAAAAAAAAAAAAAAAAAAAAAAAAAAAAAAAAAAAAAAAAAAAAAAAAAAAAAAAAAAAAAAAAAAAAAAAAAAAAAAAAAAAAAAAAAAAAAAAAAAAAAAAAAAAAAAAAAAFP4i/pAqfUTCP2xWCYCn8Rf0gVPqJhH7YrBhGG48zlmVVWMyL2BTN2ctuKqfPUaY8bnPbncMiPZJfafoL7TItzIOnAd3m2ORsRy22xmHkEC9YrZS46LGAajjyiSf87ZqIjMj/AK+j+hmWxn0gAAAAAAAAAAAAAAAAAAAAAAAAAAAAAAAAAAAAAAAAAAAAAAAAAAAAAAAAAAAAAAAAAAAAAAAAAAAAAAAAAAAAAAAAAAAAAAAAAAAAAKfxF/SBU+omEftisEwFP4i/pAqfUTCP2xWAJgAAAAAAAAAAAAAAAAAAAAAAAAAAAAAAAAAAAAAAAAAAAAAAAAAAAAAAAAAAAAAAAAAAAAAAAAAAAAAAAAAAAAAAAAAAAAAAAAAAAAAAAAAAAAAAAAAAAAAAAAAAAAAAAAAAAAAAAAAAAAAAAAAAAAAAAAAAAAAAAAAAAAAAAAACn8Rf0gVPqJhH7YrBMBT+Iv6QKn1Ewj9sVgmAAAAAAAAAAAAAAAAAAAAAAAAAAAAAAAAAAAAAAAAAAAAAAAAAAAAAAAAAAAAAAAAAAAAAAAAAAAAAAAAAAAAAAAAAAAAAAAAAAAAAAAAACn8Rf0gVPqJhH7YrBMBT+Iv6QKn1Ewj9sVgCYAAAAAAAAAAAAAAAAAAAAAAANlOJDiQ4iKLiI1RpKTXrUWvrq/NLuLEiRcpnNMx2W5zyUNtoS6SUISkiIkkREREREJ15UnE32i9T/wA32HxQ4pPrN6u+vd/+oPiYAKf5UnE32i9T/wA32HxQ8qTib7Rep/5vsPiiYAAp/lScTfaL1P8AzfYfFDypOJvtF6n/AJvsPiiYAAp/lScTfaL1P/N9h8UPKk4m+0Xqf+b7D4omAAKf5UnE32i9T/zfYfFDypOJvtF6n/m+w+KJgACn+VJxN9ovU/8AN9h8UPKk4m+0Xqf+b7D4omAAKf5UnE32i9T/AM32HxQ8qTib7Rep/wCb7D4omAAKf5UnE32i9T/zfYfFDypOJvtF6n/m+w+KJgACn+VJxN9ovU/832HxQ8qTib7Rep/5vsPiiYAAp/lScTfaL1P/ADfYfFDypOJvtF6n/m+w+KMt4tcaxzG4+iSsdoK2rO20hoLOecKI2x4XMcdlE5Id5CLpHVElPMtW6j5S3PqFMybgu0wjs5ZppjGZ5OrVLAaCpv7l+wZjox+UiX4MbjMdSS6ZBtpltmS1mol8qi5S9JBBvKk4m+0Xqf8Am+w+KHlScTfaL1P/ADfYfFFkyjhe0MTqrB0awXKdSrLI6rL0YtkKF0TTrctKW1qfkwVoMkNmSm1ETb6v5TNw1cqTFAc4WtLNOKXLcooy+XqzINHMptoMa6frbd2psYNhEY6VqVDNUdThc6iJTR8yDNaebfcBq35UnE32i9T/AM32HxQ8qTib7Rep/wCb7D4omAAKf5UnE32i9T/zfYfFDypOJvtF6n/m+w+KJgACn+VJxN9ovU/832HxQ8qTib7Rep/5vsPiiYAAp/lScTfaL1P/ADfYfFDypOJvtF6n/m+w+KJgACn+VJxN9ovU/wDN9h8UPKk4m+0Xqf8Am+w+KJgACn+VJxN9ovU/832HxQ8qTib7Rep/5vsPiiYAAp/lScTfaL1P/N9h8UPKk4m+0Xqf+b7D4omAAKf5UnE32i9T/wA32HxQ8qTib7Rep/5vsPiiYAAp/lScTfaL1P8AzfYfFDypOJvtF6n/AJvsPiiYAAp/FJ9ZvV317v8A9QfEwFP4pPrN6u+vd/8AqD4mAAAAAAAAAAAAAAAAAAAAAAAAAAAAAAAAAAAAAAAAAAAAAAAAMx0202XqKvIHXcwocYrsYqSubGxuUzFMoZOZGiJSlMRh91SzemMkRE3ttzGZlsO+8UWn/ak0w9n5P3QGkX0f63eokT9z0YmACn+KLT/tSaYez8n7oDxRaf8Aak0w9n5P3QJgACn+KLT/ALUmmHs/J+6A8UWn/ak0w9n5P3QJgACn+KLT/tSaYez8n7oDxRaf9qTTD2fk/dAmAAKf4otP+1Jph7PyfugPFFp/2pNMPZ+T90CYAAp/ii0/7UmmHs/J+6A8UWn/AGpNMPZ+T90CYAAp/ii0/wC1Jph7PyfugPFFp/2pNMPZ+T90CYB6eogFP8UWn/ak0w9n5P3QHii0/wC1Jph7Pyfugdhl3CPxEYLhTuoGU6bSoVPGjszJf+2RnJUJh3/duyIqHDfYQf8AVxCSL7dhIAFP8UWn/ak0w9n5P3QHii0/7UmmHs/J+6BMAAbAar4npXnWUQbuo4ndOmWI2NY7TLTJrMlSs3oFPDhPKIk1Ki5DdjLNJ77mk0mZJMzSWHeKLT/tSaYez8n7oEwGY3ekOoeNNZGvI6AqtzE/APlaNMlsMyWfDE80c0sqWTjpKSZKM20q5SMjVykZAO+8UWn/AGpNMPZ+T90B4otP+1Jph7PyfugT2lp5t/axaavOMUmY4TTZyZTUZpJn9q3XVJQ2kvSalKIiLrMxzMsxOzwu2+RbeVUvySbS6aqy2i2LJEoz2LpozjjZnsW+xKM9jLf0gM28UWn/AGpNMPZ+T90B4otP+1Jph7PyfugTAAFP8UWn/ak0w9n5P3QHii0/7UmmHs/J+6BMAAU/xRaf9qTTD2fk/dAeKLT/ALUmmHs/J+6BMAAU/wAUWn/ak0w9n5P3QHii0/7UmmHs/J+6BMAAU/xRaf8Aak0w9n5P3QHii0/7UmmHs/J+6BMAAU/xRaf9qTTD2fk/dAeKLT/tSaYez8n7oEwABT/FFp/2pNMPZ+T90BP0TqvmpkmVYrrdgmVfNWAzZz4FZHumZPgzk2PDJaDmV7DStnZbO5dIR7GZkR7CYCn6RfR/rd6iRP3PRgJgAAAAAAAAAAAAAAAAAAAAAAAAAAAAAAAAAAAAAAAAAAAAAAAAAAAAAAAAAAAAAAAAAAAAAAAAAAAAAp/EX9IFT6iYR+2KwTAU/iL+kCp9RMI/bFYAmADvMIZxORlVcxnJ23yI48SZZVXR+FGRl1Eg3PMLdW25nvsW57H6B3mu2LU2Da36h4TjkdbFTj+VW1VAaW4pxTcdiW622k1K3NRklCS3PrP7QGDgAAAAAAAAAAAAAAAAAAAp/FJ9ZvV317v/ANQfEwGynEhqlg9fxEaowJfDfp1Zvxs0u2XZsqdkSXpS0zniN1wmrRDZLUZcxkhCE7mfKlJbEU68bun/AGW9MPaGT97gJgAp/jd0/wCy3ph7QyfvcPG7p/2W9MPaGT97gJgAp/jd0/7LemHtDJ+9w8bun/Zb0w9oZP3uAmACn+N3T/st6Ye0Mn73Dxu6f9lvTD2hk/e4CYAKf43dP+y3ph7QyfvcPG7p/wBlvTD2hk/e4CYAKf43dP8Ast6Ye0Mn73Dxu6f9lvTD2hk/e4CYAKf43dP+y3ph7QyfvcPG7p/2W9MPaGT97gJgAp/jd0/7LemHtDJ+9w8bun/Zb0w9oZP3uAmACn+N3T/st6Ye0Mn73Dxu6f8AZb0w9oZP3uA7hHGJxDJwaLpuvNK57H4VOVBHjv41VOuNQCbNsmUvrjG8WyTMiVz8xGe++/WOBkXFTrvlWnxaY3mcqfozjRYT/LAjNy5UaMZHHZflobJ95tsyI0pWsy9G++xbcbxu6f8AZb0w9oZP3uHjd0/7LemHtDJ+9wHe2/GdxI3dnQ3U3UU0TscnlaxH49XDYU9N6E2PCJPI0RSnOhNTZqe590qUX/Erfrrvit12v69dROy+G3XqpLDHExIlFXxWWqya405JjNoaYSSEKWw0Zcuxo5T5TSRq34fjd0/7LemHtDJ+9w8bun/Zb0w9oZP3uAmACn+N3T/st6Ye0Mn73Dxu6f8AZb0w9oZP3uAmACn+N3T/ALLemHtDJ+9w8bun/Zb0w9oZP3uAmACn+N3T/st6Ye0Mn73Dxu6f9lvTD2hk/e4CYAKf43dP+y3ph7QyfvcPG7p/2W9MPaGT97gJgAp/jd0/7LemHtDJ+9w8bun/AGW9MPaGT97gJgAp/jd0/wCy3ph7QyfvcPG7p/2W9MPaGT97gJgAp/jd0/7LemHtDJ+9w8bun/Zb0w9oZP3uAmACn+N3T/st6Ye0Mn73Dxu6f9lvTD2hk/e4CYAKf43dP+y3ph7QyfvcPG7p/wBlvTD2hk/e4BxSfWb1d9e7/wDUHxMBT+KT6zervr3f/qD4mAAAAAAAAAAAAAAAAAAAAAAAAAAAAAAAAAAAAAAAAAAAAAAAAKfpF9H+t3qJE/c9GJgLFw+Ytk+a41rLjOG45aX1xMwSP4NX1kNyVJe5MkpVr5GmyNSuVCVKPYuokmZ9RGOs8lvib7Omp/5QsPhAJgAp/kt8TfZ01P8AyhYfCDyW+Jvs6an/AJQsPhAJgAp/kt8TfZ01P/KFh8IPJb4m+zpqf+ULD4QCYAKf5LfE32dNT/yhYfCDyW+Jvs6an/lCw+EAmACn+S3xN9nTU/8AKFh8IPJb4m+zpqf+ULD4QCYAKf5LfE32dNT/AMoWHwg8lvib7Omp/wCULD4QCYDusJuoWN5nQZFZRDlRKq0izX2CIjN1tp1K1I6/6kky/wAxmvkt8TfZ01P/AChYfCDyW+Jvs6an/lCw+EA2F4g8SxSZn+p/EfC4pMecxXMk9NW1WPXPS3V21Jca5quTESttbDKEEfSG7uSSbb81RnsVY1h1E09m0GUpvNS9NbjBpOQ4m7pJU1MiH4TSMNSWjmKW02ROxG0xicQ6T/pV1dRmNIvJb4m+zpqf+ULD4QeS3xN9nTU/8oWHwgG+EjimoG8x5o+oWnpRmOIJNIw+lmq/h4VIRvKWhfL1RHFpSpckj61elzrHbYXe4liOHaXT5Oa6aVGk76s9LLK2yOF011UlczkxG4hLSbklO5kSEMK6jNJnuSkkPz58lvib7Omp/wCULD4Q7i20L4wr2go8Xt9DdV5VVjTb7NTFcxGfyQ0Pum86SP4P/E4o1Hv9pgNrEat6SU/ChWwcMmYq7Xw9PUMSaybk8GM/FywnDV4U3W+AuTX5iXyQ4h3pksKbIyM0EXMf21s1W0yye11gvsxz/Fclo7xWmUinjxLWK9Ik1jEhw7FhtttXSE4hfhBuIMudJOINRElSBpr5LfE32dNT/wAoWHwg8lvib7Omp/5QsPhAN4suun1a7Y49qJrRpIxjZ5Pb3GAFXs1jkyHS+AP/ACekpC0+CxWF8zKGykkrZ9JOFvyFv98i1D05nZwnIMI1BwCs1XsNKW4NPfT8hrJ6Il23ZL8IbkTkNojeGqjHyofNCCUX8hmk076YZHodxgZZGqYV9oLqc/GooZQK5hGFTGW47HMauVKW2ElualGZqMjUoz3MzHS+S3xN9nTU/wDKFh8IBmHGze4lkOrtbNx65orm5bxapYy+0oujOBPyBLO0x9lTRE2sjPkI1IIkmolH/UQAU/yW+Jvs6an/AJQsPhB5LfE32dNT/wAoWHwgEwAU/wAlvib7Omp/5QsPhB5LfE32dNT/AMoWHwgEwAU/yW+Jvs6an/lCw+EHkt8TfZ01P/KFh8IBMAFP8lvib7Omp/5QsPhB5LfE32dNT/yhYfCATABT/Jb4m+zpqf8AlCw+EHkt8TfZ01P/AChYfCATABT/ACW+Jvs6an/lCw+EHkt8TfZ01P8AyhYfCATAU/SL6P8AW71EifuejDyW+Jvs6an/AJQsPhDMcT0Y1h060r1pu9QdKMxxiufwuFFal3NFKhMrePJaVRNpW6hKTWaULMkke+yVH9hgNfwAAAAAAAAAAAAAAAAAAAAAAAAAAAAAAAAAAAAAAAAAAAAAAAAAAAAAB3uEYRkeouRs4pikaK/YvsSpRFKnx4TKGY0dyQ+44/IWhptCGWXFmpayLZJjMvJ01A+8OmHvSxjvABMAFP8AJ01A+8OmHvSxjvAPJ01A+8OmHvSxjvABMAFP8nTUD7w6Ye9LGO8A8nTUD7w6Ye9LGO8AEwAU/wAnTUD7w6Ye9LGO8A8nTUD7w6Ye9LGO8AEwAU/ydNQPvDph70sY7wDydNQPvDph70sY7wATABT/ACdNQPvDph70sY7wDydNQPvDph70sY7wATABT/J01A+8OmHvSxjvAPJ01A+8OmHvSxjvABMBT+Iv6QKn1Ewj9sVgeTpqB94dMPeljHeAzvWnRrJctzCvtcfy7TCVFYxPFqxxzxnY23tJh0UGLIRsucR+Y+w6jfbY+XdJmkyMw14jvKjPtyEERqaWSyI/RuR7jus+zKz1FzrI9QbtiKxY5PbTLmW1FSpLKHpLynVpbJSlKJBKWZERqM9ttzP0jMvJ01A+8OmHvSxjvAPJ01A+8OmHvSxjvABMAFP8nTUD7w6Ye9LGO8A8nTUD7w6Ye9LGO8AEwAU/ydNQPvDph70sY7wDydNQPvDph70sY7wATABT/J01A+8OmHvSxjvAPJ01A+8OmHvSxjvABMAFP8nTUD7w6Ye9LGO8A8nTUD7w6Ye9LGO8AEwAU/ydNQPvDph70sY7wDydNQPvDph70sY7wATABT/J01A+8OmHvSxjvAZPhPBDxHal+G+LnGsXyr5O6Pwz5EzugneDdJzdH0nQzVcnNyL23235FbegwGMcUn1m9XfXu/8A1B8TAU/ik+s3q7693/6g+J9aUdxSJhKt65+IVjEROiG6g09NHWZklxP9UmaVbH/gYDggOdNoritrq63n1z7EK3bcdgvrTsiQhtw21mg/tIlpUk/8SMcEAAc6ko7jJLWPSUFc/PnyjNLMZhBqccMiMzIiL09RGf8AkOCAAPumBOVBXaJhPnDadTHXIJs+iS6olKSg1bbEoyQsyLfcySZ/YY+AAAAAAAAAAAAAAAAAAAAAAAAAAAAAAAAAAAAAAAAAAAAAAAAAAAAAAAp/FJ9ZvV317v8A9QfEwFP4pPrN6u+vd/8AqD4mAAAAAAAAAAAAAAAAAAAAAAAAAAAAAAAAAAAAAAAAAAAAAAAAKfpF9H+t3qJE/c9GJgKfpF9H+t3qJE/c9GJgAAAAAAAAAAAAAAAAAAAAAAAAAAAAAAAAAAAAAAAAAAAAAAAAAAAAAAAp+kX0f63eokT9z0YmAp+kX0f63eokT9z0YCYAAAAAAAAAAAAAAAAAAAAAAAAAAAAAAAAAAAAAAAAAAAAAAAAAAAAAKfw6fSBbeomb/tizEwFP4dPpAtvUTN/2xZiYAAAAAAAAAAAAAAAO+w3AM71Fs3aXT7Cr7J7Bhg5TsSmrXprzbJKSk3FIaSpRIJS0FzGW26kl9pDoRtJwE2NNUWetVnkJW51kXSa3dl/JEpMab0RS4XN0DqkqJC9vQo0mRH9gDXfLsFzfT+yTTZ7h15jdgtsnkxLeuehvKbMzIlEh1KVGW5GW+23UY6Mfp7RVWlerMbQyfLi2N1ibWA5lMw+sytCLizmZCxOQhbEglOstTiIi5mY/M0R9GRGZErq+eNaQ6PztYMmhRuH5+LbKx3HFzWZOLQJ7NTOeckFJeVQMz3XI7L7SWDUSFm5HMlGZI50qMPzGHcfM3LygVtqeKXHgVy3IerZPgLvRTW2FGl9bK+XZxLaiMlmkzJJkZHsN+dO+GLGstt8ahY/gWJXzOLa7WVXl0ivJDkVunLwc2mFqeUa1xj/iIbSo1bqPkI1KPry3SmS3j9vorj9Lj9TKVNpNV62vhSYqXC502EpTTLKT22NRtk3yl6UKUn7QH5gjsIWO5BZVFlkFdRWMqrpuh+UpzEVa48LplGhrpnCLlb51EaU8xlzGWxbmP0LpNA8Kf4X7h7M9MaGPLVpxMy1q4rMZ5Vw7FMszUhVkp/pFyGkkpK4TbJNtoTspfWRKzDUrT7Fsb0q1exOx0sxjBtMlXWCwqXIqjZD15RKsWjelvOc6unNKV8/TGRHu6pO6uXqD8tAG+XGBphjuPaTZxY5Foth+nqqHN49XptOo46WHsiplJd6RbqiWo5aehSw906i3JazTuXWkaGgAAAAAAAAAAAAAAP08/sUf75f9O/8AUR+YY/Tz+xR/vl/07/1EBoxxLxpczin1ViQIrkmU/qBetssttm4t1w7F4kpSkiPmMzMiItuvfYWm00itW9Z9KLPO9HSqGLzF0LdhvY0VXXWGRJjzHI0NxpDbbRLdfbjIW2REZpV1ke4iHFJ9ZvV317v/ANQfEwAba6pVGcP33DRW32k1JHy2dul3E5Fa3WQ5kld86TTEiIRIbjpfSbZLQSUp5XDVsXMNbtTYk6BqRlcG0x+DRTI95OakVUEyONAdS+slx2uUzLo2zI0J2My2SQxxSlLUa1qNSlHuZme5mY8ALZwiYlfZjq9DqYGAJympfadYuG3KFFm1HYU2s0rM1Nr8HUa0JJLieVXpIj6zI6Joji8HF6fTnD870nqFW2WatOYrepyGjSc9qscj1ZKjpJ5POwr/AGpTiXEklaD60mRKVzangA2Owa6zWZwzZxhOF4vU3r9DlMB6Sy3icGfMarVRLTppbilMLdMm18peEGZqZJaUpUhKiI9cQAAAAAAAAAAAAAAAAAAAAAAAAAAAAAAAAAAAAAAAAAAAAAAAAAAAAAAAU/ik+s3q7693/wCoPiYCn8Un1m9XfXu//UHxMAAAAAAAAAAAAAAAAAAAAAAAAAAAAAAAAAAAAAAAAAAAAAAAAU/SL6P9bvUSJ+56MY/pXp7N1LytvHoaHFpSy5IebjyojclbaU9ZMIkvNJeXvt/DSrm5eYyI9jGQaRfR/rd6iRP3PRj5cPmW4BgOo9fm2fWOQMR6hSnWGaeqYmrkKU2tBpUbslgmyIlEZGXPv6Ni9IDzoroLm2tN7XxqOASad24h1UycqVHZUhT6+tLDbziFSXSbJa+iaJS9k77bdY6R7SzLX63Nclo6tydj+BzWIdxYdI2go/hD62Y5qQauZXOptReaSttuvYhVdJdVtFMJXj1bkVpm0iuwXO2M1p5EGkityLQujjE7GkIOZtGMlRGjQtLj2xKc6iNQnR5Jp5Px/Ud21VlbeQXdhElY23EcaTXm34S4uSU9Bq5lKJtSOi5CURL5t9i2MBPxl8zT2bX6Xw9R5KHFM2Fr8nsLYlRHmUkTa1Gl1KHjfZe3QZkhxpJGjziV1lviArLWT6Rp0Dd0+XkeXlkblyi/5Cx2KcEnkxVslH6fw7pOQzUR9L0O5F/7MwHVZdw+atYEqOnMMajVfhFoilUp+3hcsaYsjNtuSonjKKSkpUtKnuRKkJNZGaSNQ8ayaK3+jF1Hqbm5orFEqJDktuV9vDkrI34jMg0raZecW2Sem5UrURJcJPMgzSZDKdU9b8YzpGria+FbpPPc0q8jqzlNtl0MaMixQpD2ziuVzaa0SSTzFslfnFsW+LaxZhh2oNhVZdSSLlq5dqKuuta+VAaRGYch18eJ0jEhLylupcNg18qmmzRzEW6/SAngAAAAAAAAAAAAAAAAAAAAAAAAAAAAAAAAAAAAAAAAAAAKfpF9H+t3qJE/c9GJgKfpF9H+t3qJE/c9GAmAAAAAAAAAAAAAAAAAAAAAAAAAAAAAAAAAAAAAAAAAAAAAAAAAAAAACn8On0gW3qJm/wC2LMTAVnhftbOi1UlXdJYyq+xr8LzOVElxXlNPR3m8aslIcbWkyUhaVERkojIyMiMhxfKk4m+0Xqf+b7D4oCYAKf5UnE32i9T/AM32HxQ8qTib7Rep/wCb7D4oCYAKf5UnE32i9T/zfYfFDypOJvtF6n/m+w+KAmACn+VJxN9ovU/832HxQ8qTib7Rep/5vsPigJgAp/lScTfaL1P/ADfYfFDypOJvtF6n/m+w+KAmACn+VJxN9ovU/wDN9h8UPKk4m+0Xqf8Am+w+KAmBGZHuR7GQ9+me6RT3Sr6Re/MrmPc9/Tuf+O5imeVJxN9ovU/832HxQ8qTib7Rep/5vsPigJiSlERpJRkSvSW/pHgjMj3I9jIU/wAqTib7Rep/5vsPih5UnE32i9T/AM32HxQExNa1JJKlqMiMzIjPqIz9IKcWskktalEguVO577F/Qv8AvMU7ypOJvtF6n/m+w+KHlScTfaL1P/N9h8UBMlvPOpQlx1aybTyoJSjMkl6di/oQ9RT/ACpOJvtF6n/m+w+KHlScTfaL1P8AzfYfFATABT/Kk4m+0Xqf+b7D4oeVJxN9ovU/832HxQEwAU/ypOJvtF6n/m+w+KHlScTfaL1P/N9h8UBMAFP8qTib7Rep/wCb7D4oeVJxN9ovU/8AN9h8UBMAFP8AKk4m+0Xqf+b7D4oeVJxN9ovU/wDN9h8UBMB+nn9ij/fL/p3/AKiNEvKk4m+0Xqf+b7D4o/RT+yH1S1N1L8bHjG1GyjKvk75C8D+W7eRO8G6Tw/pOj6ZauTm5Eb7bb8id/QQD86+KT6zervr3f/qD4mAvGp+KQc8468twazkPsQ8i1an1Mh1gyJ1tqRcLaUpHMRlzESzMtyMt/sMdpWcP+mOZ3GJP4fdZNDoZ91kdPcrnmw/KUmmgsznH4yUIQSTeYdNKGlc5oWnY1LIwGuYDZnG9BdF8jYrM+bdzVjD7TH3rIqxVhFOyYls3cOtcR4T4N0TjRpmJcJRMpPcjSf8AKZn2sjhV0yj3drcnkNwjFKCikTpTE63hwpMmY1eyKgkFLcZNmO0tUfp91NOGnmJr+IZk4YaogK3Y4NotRaqXePWGYXNpijdM5Nq5lGtiY+U1cVLjUZ5aU9GpLbylNOuIIiMkGpPKRkRSQAAbDaZN0WX6VR8I03nYdEzoo9mq3qcixliXJvk7LWg6+e4y70DjbCdktc7B9Ig1JUtSiIukuIOkDPC/i9+1g96nJ5uTXtaqzK6jklTrEKqXutHgfMpgjkKNDPSEpBqcM3F85EkIoArmWYRpHhmluGXU9zKrDLc2x164aQxKjswK9aLKZFQa0qZUt5Kyil5hLQaTI1cyiUSC7CZhOL5Fj2iMStVaw4eVWcmsnNvriuutu+Fx2nnWnW47azSo3DUlDpucmxESjLfcImA2Sc4eNMcjyWhg4Td5LGqvnla4pdPWS2HX3W4LCJByoqUIQSFONdMRMr5zJaUeerm2LANXMF07o8LwXP8ATk8jYhZgmzN2FdyGZDsVUV9LJEl1pppLhK3NXNyFtvy7eaZmEsAAAAAAAAAAAAAAAAAAAAAAAAAAAAAAAAAAAAAAAAAAAAAAFP4pPrN6u+vd/wDqD4mAp/FJ9ZvV317v/wBQfEwAAAAAAAAAAAAAAAAAAAAAAAAAAAAAAAAAAAAAAAAAAAAAAABT9Ivo/wBbvUSJ+56MTAU/SL6P9bvUSJ+56MTAAAB3OH4ld51kkLE8dYbesbBSkMIccJCTNKDUe6j6i6kmA6YAGT3Ont3S4TTagOyq2TUXkp+CwqLKS441JZbaccadQXWhRIfaPr/7QDGAHOl1D0SqgWy5cFxuwN5KGWpTa32ujMiPpWyPmbI9/N5iLmIjMt9hy3MSu28OYztbDfyRIs3ahtzpC5jkttNuqTy+nbkdQe/o6/8AAB0wAO5yDErvGIdFPt2G22cjrCt4BpcJRrjG+8xzGRfyn0kd0tj69iI/tAdMAAAAMyxXSPNswoV5NVMVEesKQ7EZkWl5BrSlSG0IW4ywUp5s33EpcbM0tkoy50F6VJI8eLHLs8cVlpV6/khM0q45W5cpSTbNwm9t99+QjP0bAOuABzpFQ9Gp4V0qXBW1OefYQy3KbXIbNomzNTjRHztpV0hcqlERK5V7b8qtg4IAAAAAAAAAAAAAAAAAAAAAAAAAAAAAAp+kX0f63eokT9z0YmAp+kX0f63eokT9z0YCYAAAAAAAAAAAAAAAAAAAAAAAAAAAAAAAAAAAAAAAAAAAAAAAAAAAAAKfw6fSBbeomb/tizEwFP4dPpAtvUTN/wBsWYwfEsVu81yGFjWPVk6fNmucqWoUN2U6SC61rJplKnFElJKUfKkz2SfUA6gBkkPTzL7zJ7TFMOxy4ySbVLkdK3WVch13omlmlTqmeTpG0l1b86UmnfZREfUOdmOlGWYpnGTYNGgSLuTiaXXrJ+uiuutsx2+XpH17J3Q0nnSRrVsRblufWAw0AGSV+B3k7CLXP1wp7NRWvNRm5R1slcaQ+tSSU0UhCDZbWlKkqNLi0mZGW25mRAMbAd9N0/zysx9GW2WE38SjcU0lFm/WvNxFKdQTjZE8aeQzUhSVJ6+tKiMtyMZDqBoLq5pfR1GR5vgV3VV1zFTKbkSa6Q02wpTrraWHlLQkm3j6FSujM9+RSVegwGAAAAAAAAAAAAAAAAAAAAAAAAAAAAAAAAAAA/Tz+xR/vl/07/1EfmGP08/sUf75f9O/9RAaR8QOQ3GJcXmpOV49M8EtaXUi4sIMjo0udFIZs3XG18qyNKtlJI9lEZHt1kZDDqPVzUTGzqVUeSOQzo7mVkEA0MNbtTpDbLb7h7p89K0R2km2rdGyTLl85W+QcUn1m9XfXu//AFB8TABQrbXzVK4mqmO3sKIn5MRTtxK+ohw4jENExuYTTUdlpLTW8lpt1SkJJSlEfMZkZkfmLxAarxrX5XVkUaUtcSXAfjzKqHIiSY0mY5NeaejuNG08lUl1bpEtJ8quXl5eRPLPAAZxU606iY/mFnneO2lfUW9vWvVEpUCnhR4/gbrBMONIjoaJlsjbIk7oQk99z35jMxg4AAzmg1qz7F8ZLFaKTTRWEx5MRuaVBAVZMsSCWTzTc5TJyUJUTiy2S4WxKURbEZkfU1moWU1OIzsEjSYLtHYPKkuRpdZFlG08pKUKdYcebUuO4aUISa2lIUZJIjPqIY4ADtbvKb7IoVJXXM7wiPjledVWI6JCOginIekG3ukiNX8WS8rdW6vP232IiLMJnEBqZNqKWkXIxtiLjklEyq8ExKpjOw3kuIc50OtRkuEaltoNfneft5/MRmQnQAM6x3V7May6qpczI57MSFk5ZS4qA0w3JTOUaCdfaUpBkSzSgiJKiNvcv5djPfutdNaS1YLGqmDEeZrMXiSGI6nYsSIbzr76nXHExobTbEdP8iSbQRlulSzUalqErAAAAAAAAAAAAAAAAAAAAAAAAAAAAAAAAAAAAAAAAAAAAAAAAFP4pPrN6u+vd/8AqD4mAp/FJ9ZvV317v/1B8TAAAAAAAAAAAAAAAAAAAAAAAAAAAAAAAAAAAAAAAAAAAAAAAAFP0i+j/W71EifuejFM4YdTY2A6fXUVvNYVJKmzrRbjTk1tlbyUY5ZHG3SoyNSSmeDcn2dMTO3nkkTPSL6P9bvUSJ+56MTABvZjudwH8hesdPdTsPpp0nNam2zeVOuYcVFpSLq4ZvEs3VpKY0mR8odNHRzqUt1O6DPYcPQvOserDopGBag4ziuDRrzKHcnrbW5iw3ZJOoP5NWqO8tLsgibNlDRpSvonEOKM07mY0fABuJpTa4vX6BTKG71JjzaOwwDI3V1tnmcNqLFvCTNXFiMUpl0xyOkQw6mSo/OUtKUKIzShUSj+CZFw2sUcC5qGrLGcssrmZCmWceK+5EkwoTTa47bq0qkGS4rhKQ0Slluk+XY9ylAANoLZpk8U0LttUcvxrIK7FLhTeQxGswrbKYzUqmxujZJhqQ46aCYSsiQlJkgiPmJJDOcwyOfdw8BptVdeMcft2tTbSwatKbI4Mp+BVKjRvBFk+2txuM2pxDiWukLZglEakkkuUtJgAbx32XY6/lOnFvMzWkTqC3juWQG7OwzWFdvVtmcdXyUc2zTs0a+ZxXROKVytOLT5yeiUSeQjUClazynfyTOccutQmNIGayDbRcqiRkM3xXLrkhv5UJS2WJiopvF05q85SzMl7upWeigANmmMvyiy4m3shqsiwHB75eOvsTbK2yCJa176yrVNuKdltEbLkp5BcpmnczeVuZ85qGsoAA2M0D8EyDEK7FNVW9PrDTJu2kPTJFnkMaDeY90qWikSYTZPokuGpLTaktdE804pvblIzUY4GJ6kZ1Y8Md9p5QaryYCqm68JcqZeTIrikUrkN8nmmGnnkJfSbn80dvmUo3E7IVuYgQALjfav3uOcPmAYJhGWtV5Tot4zkkevfQmRIaelKSiPL5fPNvo1KUlC+o+c1ER9RlkV5FuJOkGj8rJs7xaxexTIJq5LCszrJkuDVvKq0xEEwmSp0m09G9/DSn+ESVmpKC3Ma2AA3Ls9XMLy/USNc6j5XSWdbj+ti11SXHWnmIVG4biuZtpO/NAS40ws0pI0GXN6TcMzwfifm5dN0i0sc1BzWpyrJTtMnVMsYFmxY9I2aoBNEuUypSHtiIySZKPlSRN9RoNKddK6wm1NhGta6QpiXDeRIYdR/M24hRKSov8AEjIjHa5bnOW53MYnZbeybFyK10EZLhklqO3zGo0NNpIkNpNSlKMkkRGajM+szMB0QAAAAAAAAAAAAAAAAAAAAAAAAAACn6RfR/rd6iRP3PRiYCn6RfR/rd6iRP3PRgJgAAAAAAAAAAAAAAAAAAAAAAAAAAAAAAAAAAAAAAAAAAAAAAAAAAAAAp/Dp9IFt6iZv+2LMY/pKVMjUOisMgy6uxyDXTmJz02c1KcRytOpUaCTFZdcNRkR7eby9XWZDIOHT6QLb1Ezf9sWYmADZJeR6eO3GrWO1ut1LVJzO7hZFWZKxDtksE0zMlOLhLSUUpCXDJ9l4tmzQa46C5yMfDN9SMOy3XbXLNqTWizxuoyentvkySxWPrVkhurZNFa8gkkbCH+U1KWsiSk2y39JDXQAAWXTE8Gb0cz2jvtW8co7TJ24CIVfMh2rjiDjSydUa1R4bjRcyS83ZZ9f83KI0ADYrJNZsVuafJqR3K35MKTpBjWL1sZbL/R/KsN+pdeZSk07JNCmJqukPZB7K2UfOXNgmpF5jOXac6ez6/LoabbGaD5v2FG6xKKUbhWE2QmQ24TRx1NG3Ia33dJZK5i5DIuY5gAAAAAAAAAAAAAAAAAAAAAAAAAAAAAAAAAAAD9PP7FH++X/AE7/ANRH5hj9PP7FH++X/Tv/AFEBo1xKV8+34qtVKqrhvS5s3UG8jxo7CDW486uyeShCEl1qUZmRERdZmY6+fw76w1+RU2KKxJEq0yB2THrmYFnEmpekR0kp+P0jDq0IebJSTU0pROJ5k7pLmLfNNSs8Xpbx2ZhqQiuTPPGNVbO2OKpXKT5M2zqzRzbHymZJMiVt1Hsf2DuXeIXE6jN8dvIGcZff0lXLsppwJGK1tSuGt+Gths0KjSFE+5usiWtXIXKgjIjPqIJU7oPqmzltbhJ47HXZ28By0hqatYbkRyG30nSv+FpdOOlts2HiWpThEg21krYyMhkOWcNGdUmUU+G1EREyzk4vHyWzVImxY8OvaccUg1rlrdKOTH+75XjcJCulRsZ8yd+zwvWnB4GNYxheRx7tiCzi19jNxNhxWXnmCnSlyGXoyFOo6QkK6PnSpTe6TcSR9e55nH4l9Nq6zlY7RP5TDx6XgVTiKbqTSwpc9iVAlE+mR4E6+plxpzlNJtm6Ro5yNJqNsuYIpWaGaq3OY3GA1uIuvXtBFKdYxvCWEpYimtpJPm6pZNm1/HZV0iVGnkWS9+QjUXOqOHXV2+mWEKmx2DNXXSkQDcZvICmZcpbZOIjxHen5JrxoUlRNx1OLMlF1dZDvpetNem+1KmvZHkF/868NYxasspFXGr3j5H4C9nWGXVIaZJqI60kkKWfL0ZGXWfL3OkuvlHjOltfp7bZNe4pNochl30G0qMagXByCkNRkLbUiU80bDiFREKQ4hR785koi5UmAmOM6QagZbjUrMKeoiop4j64py59pEgpfkIQS1sRykOoOQ6lKkmbbRLWRKT1ecW/3a0R1QewM9Sm8Y3ofBlTic8NjlJVES70KpRRek8INgnPMN4m+jIyMubqGUytQdOM70xq8Sz+3yist8XtLewgSa6rjzGbRucppw0PJVIZ8HdJxrrcSThGhe3L/AA0krI42umm7eHx7lxrJPnrF07kaeJrCiMnVrQ6TjJTTk9N0hbMOmfQ9Af8AFSSufY+oI3b6f5hRYdQagW1KuPj+UuzGaiabrakylxVpQ+RJJRqTyKWkvOIt9+rccLFcel5dlFPikB5hmTdT49ey4+skNIcecS2lS1H/ACpI1EZn9hDusgssDkac4nW0jmTnlEN+wVepmutnVpbW4g43gaUqNaVcpL6XmIt1cu24xuq+TDtIZXTkpFd4Q34WqIlKn0s8xc5tkoySa+XfYjMi323MgFBzzSvHaHL2sAxTJriTfsy34Vizk9VGx1hlbZdS0PPy1J5FbL26Xoj6k9RmrYvrqFw9Ztg+si9FYD9VkNy/du0dYVdaRHVS3kv9CgnEIeUcValbfw3jQpO/WXUY7XWHVbHcq0+x3AazMMvzaRSWEiU1eZTAbiyYkNbTaG4DCUyZCjaJSVLPmcJJK2JCSLmNXaSdZ9OmuKyj4i4B5I7Eey9rLrutdrmG3YjhyykOsRllIUUgv5iSpZM/YRl6TAYOnQ/OoeZ0WF30OviTrtRcjBXtd0rZEfntOc0hKGJBF1Ew8ptZqNKdtzIetXonnWV5DlFRh9Ip6Pis1UWwfspsOCmGk3ltNnIcdeJlszUg0mZOGnm2IlHunfrNN7bGK/P6vI88trmNCgTWrBx2tr250h51t1K+XkdfZTsrY91c5mX/AGTGd5lqhp87D1XrsQmZJMa1CsoVnGXYVjEM2FNzH33WnEtyXiNJE43yqIz5jI90p2IzDoMa4dNZsttraipMLcVY0lqVHLiyZsaI58o7qLwRpLziDfe8xR9G1zKIi3226xPZsOTXTH6+a0bUiK6tl1BmR8q0mZKLcurqMjG6Wm2ouCatakNZXax76oosa1Mh5tHsTXBYbbStuKh5FgtySlTDafAm1pdbJ4+txJI5lkNOcmsWLjJLW2ikomZs5+S2Sy2USVuKUW/+OxgOtAAAAAAAAAAAAAAAAAAAAAAAAAAAAAAAAAAAAAAABT+KT6zervr3f/qD4mAp/FJ9ZvV317v/ANQfEwAAHenguYJwtWormOzm8aKwaqys1tmlhctxDq0tIUf858rDpny7knl69ty36IAAAAAAAAAAAAAAAAAAAAAAAAAAAAAAAAAAAAAAAHenguYJwtWormOzm8aKwaqys1tmlhctxDq0tIUf858rDpny7knl69ty3DogAAFP0i+j/W71EifuejEwFP0i+j/W71EifuejHnS7BMAssKyHUHUh3IF1tbb1WPxY1G6y2/4VORKc6dZuNuEbbbcNw+jIkm4pSUktGxmQS8Bt/daD4NnXEpqTTZBS2FXVS9TJ+NVlhBv66qixHFS1JJtqI+0tyatJLQfQsm2RJNJGtPOkTqmxrSWi0N1GPLMMvLTI8bzCnpvlOHdR4xbuNXG3RJXEcU20fgyTcQalG4aWzJTfIZKCCgL/AIDoDjGYaWS7qyjWtPkScWt8qgynsjgKanMQSkOGSKsmvCyaUiMtHTqdIucjMkKSRiV2ldgDWm9HZ1cu+Vlz8+W3asvsoKvRFSSegNlZFzKcMzXzkZmRdWwDFAGQ6cxYs7ULF4U2M1IjyLmE08y6glocQp9BKSpJ9RkZGZGR+kUNOmVTnvFbc6ZMvIpKiRllqwo4cdP+yw2HnlrSy0WydyabNKEFsW/KXoARsBsLWaC6b5zaYFe4dZ5LUYplLGRSLCNZuMzbGKmljHLk9CtptpDpuschNl0ZcrhqSfMSdzxXEcT0vz3NpXzYw/LixisqFTrBmwy6thuxlE+lrpnLB2Klhtk+lZIkmypZuLJCeYzIzCSANoMUwKDpLxRx9P6Wcizx++x5NgSZqGJRuRpdKcxttSyTyLNC1pInWySS+QlESSVyl1WkM2sodFqGerAsWyB691LKknotKKNLkSYKobBnHbkLQb7G6lqMlMrQolHuRgNdAG1WHcLeCZVqXkGnkoreGxJzm3xLG748lr4zCvBnUobNMF5o5E4yNaDcNtbaSSpJc3MewwCBB0gTwwP5BYYPevZMnJ/k1NmzdR20k6qE4ts+Q4aldARkk1M8/MpRGZOJ32IIoA2JyXh90yxTS6LY3OcojZjNxKHlkfpbyGmO6cltEhuCmDyeEGs2Fls90uxuFy9Hy+cNdgAAAAAAAAAAAAAAAAAAAAAAAAAAAAAAAU/SL6P9bvUSJ+56MTAU/SL6P9bvUSJ+56MBMBnzmkr7eiTmtPzrp3mk38OhOoju9JMZN9mY6Tr5F1NF/sSiSk9zUSt+oiLmwEZvW5xUw9Esi02djyzs7fKqa8YdShPQJYiRLJlxKlc3MSzVNaNJEkyMkr3MjIiMMIAAAAAAAAAAAAAAAAAAAAAAAAAAAAAAAAAAAAAAAAAAAAAAAAABT+HT6QLb1Ezf9sWYmAp/Dp9IFt6iZv8AtizHroFj9dnWS3GmMmqiyrLL6SVAoXXUJ6Ri3b5ZMQmln/Ip5bHgvp2MpJ7/AOATIBuVhOK6anl2qkDFMIayW7wGPS4/SwqvHIt09Najk4xa2aIL/wDDkKW+y2s1qSo0NyDMiLYjT10U8Lxc8gt6/RWpguz9UaanVWZTSMvSK2FIiPLlQyZc5iYJSy83Y+dtJFymlRcxBqMA2srNP7HH8Ty5OieldZm+SV2o1pRWrUvH2rx+upmUtFC5WHUOEyh5xUtK5BElRGykiWn0n2WHYpgsbh5xqyrNIrnMYtzQXLmT2dVjMaeuBZpelIbN2es+mr/B2URX0oTyoWkzUrnJZkQan1tHcW8aym1dc/JYp4hTp7jad0xo5vNsk4v+ieleaRv/AFWkvtHBG6c7GptJoHqIuj05qomEOaVYzIrMoaqkNSLGe/YU7k9C5ZFzSDKV4QlbalKJk47aUknczV1PENgVLSae5w6vTikocXprOkZ02v4lY3GevIzrSzePwpKSVYEtkkvOKUpZtrIkkaSVygNQgFx4m8hqqzKHNM8YwXFaSngQKWV00OnYROekrrWHHXFyuXpeVa3Vn0ZKJv8AlPl5t1HjvEpUX9Fq/aVmT6dUODWLcSuU5SUakHDYSqEypC0GgzTzOJNLquv+ZxW/WAnVVVWl7ZxKWkrZVhY2D7cWJEisqdekPLUSUNtoSRqWtSjIiSRGZmZEQ+iqG8RayqJdNOTZQjfKTDOMsn2DYSpTxLb25k9GlCzXuXmklRntsYrXCzWVzGXZDqLeXbdLXYNjk2yTYusuOojT3yKFBXytka1KTJltOkSS3/gmfoIzFphWiqXihLK8SkUd7D1bwS1uIUuTRsSfDrV6knxnUMlKaUtBu2jT6DbIk9ISybWSkmZGGpWN4PlmYRbWZjNHIsWqSI5PsDZ2M2I7ba3FuGRnuaUobWozIj2JJmY6MXHRxnJla5ZDR5TQfI+S22K5XUpqSqkVqvD5FFMaYjJioQ2lpbji20JQSE7qWREW5in6CYBS0OmJSbPRK9zHK2Mxl1eW0rOItWk+FBbYjGxHcaf2dgJdUuWXhDRJc529udPIRGGoyYE5UFdomE+cNp1Mdcgmz6JLqiUpKDVtsSjJCzIt9zJJn9hj4DZHDb3LbDhszzDcAxCvtzo8sgvuRV4pAn2EeqXFtOklPL6Bbhm2rkT4RuZs8xJStCVER5lU6URHeHO/fyLGY02NGwFnJKu7j4fChRmZin2FJZbt0q8JmySQp1DrSvMRs6XKXISgGngAAAAAAAAAAAAAAAAAAAA/Tz+xR/vl/wBO/wDUR+YY/Tz+xR/vl/07/wBRAaJcUn1m9XfXu/8A1B8TAU/ik+s3q7693/6g+MIkYldRcOr87eYbKos7OZUx3CcI1KkxWo7ryTT6SIkS2DI/QfMe3oMB04DnXVQ9Rz/k9+XBkr6Fh/pIUpuQ1s60lwk86DNPMklklSd90qJST2NJkOCAAAAADnQah6wgWVg3LgtIrGUPuNvym2nXiU6hsksoUZKdURrJRpQRmSSUo+pJmXLyLErvFWaaRcMNtovqxu3hGhwlc8ZbjjaVHt/KfM0vqPr6v8QHTAOcqoeTRt3xy4JtOS1xCYKU2cklJQlRrNnfnJsyUREsy5TMlER7kY7nM9PbvBolDY2cqtlw8lgKsa6RAlJfbcaS+4wvcy/lUlxlxJkf2pAYwA51lUPVbFe+7LgvFZRPC20xpTbymk9ItvkdJJmbTm7ZnyK2VyqQrbZRGfLs8Su6jG6XLJrDaa7IFSkQVk4RqWcdaUu7pLrTsa07b+kB0wAO4yrErrDLCNV3zDbUiXWQLZokOEsjjTIrcphW5egzaebMy9JGZkfWQDpwAAAB3N/iV3jNfj9nbMNtx8mrDt640uEo1xilPxjUoi/lPpYrxbH17ER+gyHTAAARbmRbkW57bmMmzzT6708m10O5lV0pFvXN2sKRXykyGXoy1rQlRKL/AN5pZbf4AMZAAAAAAAAAAAAAAAAAAAAAAAAAAAAAAAAAU/ik+s3q7693/wCoPiYCn8Un1m9XfXu//UHxMAFYgZd4Rws5Jh1jk/SvsZ1j8qtqn5vMtEdMG5J9xlk1bkgnHWSWpJbEpxG/Wot5OAAAAAAAAAAAAAAAAAAAAAAAAAAAAAAAAAAAAAAACsQMu8I4Wckw6xyfpX2M6x+VW1T83mWiOmDck+4yyatyQTjrJLUktiU4jfrUW8nGRYPp9lmolm5WYtWdOUZsn50x91DEOvY5iSb8qQ4ZNR2iNSSNxxSU7mRb7mRGGOgKzHudK9IujXj8Wr1JyxPnKsLGGs6CuV5xGlmI8klT1/yq6R9KGiMjT0LpbOD6qt9JdY5Tce/gQNNMsnS1n8rV8Yix2QbhpS2h+I3squbRsZm6wl4j5j3ZSXnEHA0i+j/W71EifuejGO4Dqrm2mZWDeJT4TTVoTJyWZtZFntKcZUamXUtyW1pQ62pSjQ4kiWnmVsZbnvScc02y/TrBdXvnLW8kO508jTKmwZWTsSyjFlVKjpmHS6loM0n/AEMty3ItxCQFRq+JnWinvbPJouTwnLW1vHcmdlyqSBIcYtXDI3JcY3GVeCuq2Lc2eTqSn/sp2xqn1Tzajcv1xJ8F9GUL6W2YnVUSaxJdJS1Jc6J9pbaHEm44aVoSSk86uUy3GJgAolNxA6rUGKfM2pv4TNedTLoDdVTQnJh1kknSeh+FrZN/oT6d0yRz7JUolJ2NKTLH7HUXMrXA6fTKfcdLjVDNk2FfC8HaT0MiQSSeX0hJJxXNyJ6lKMi26iIY2ADk1dnNpbOJcVj/AEMyA+3JjucpK5HEKJSVbKIyPYyI9jIyFBu+IrVO+u4OTyJmOQbuutU3TFpUYjUVk05hGo+kcfiRm3HSM1qNSFqUhR9aiMyITUAFAtNetUrTKKHLyv41dPxgllToqquJXxYfOpSnOSNHaQz/ABDUrpN0HzkZkrcuoeW9ddQI+RScliJxmK9NrvkmXCYxWrbrpMXpif5HYSY5R3D6ZKXCUps1EpCDIy5U7T4AGZXWsWpOQZ/C1RtMnccyeuTETGntx2WTbTGbS2wRIQgm9koQlOxp2Mi699zHd0/Ejq5jrEyNj9vSViJlj8rF4Fi9UwcSb0SWuniGiMRw18iElzR+jPcub+YzMTIAFHwHiG1b0yYiM4dkcSM5XWDlpBkyqiFNkwpLnJ0q2H5DS3GicJpBLShRJWRbKIyM98boNQspxrHbfE6yTBXUXvKqZEm1kWajpEocQl5rp21mw8lLrhE60aHC5j2UXUMcABm7+s2eTMOYwewkU86viQzr4siZQwX58aIajV0DU1bJyW2yMz2SlwuUjMk7EZkeEAAAAAAAAAAAAAAAAAAAAAAAAAAAAAAAAAKfpF9H+t3qJE/c9GJgKfpF9H+t3qJE/c9GAmAAAAAAAAAAAAAAAAAAAAAAAAAAAAAAAAAAAAAAAAAAAAAAAAAJPlUStiPY99j9BgAC1cSNuxkFJo3es4/T0xzdPuZcSpi+Dxkmi9t29yRuZ7mSCMzMzMz3MzEVAU/h0+kC29RM3/bFmJgKfw6fSBbeomb/ALYsxMAHltxxpZONLUhaT3JST2Mj/wCY8enrMAAeUOONmZtrUnmI0nse25H6SHlLjiUKQlaiSvbmIj6lbejf+o9QAeTUo0kg1GaSMzIt+ot/SBrWpKUKWo0p/lIz6i/5DwAAAAAAAAA9kOON79GtSeYjSfKe25H6S/5D1AAHk1KNJINR8pGZkW/URn//AMIeAAAAAAAAAAAAAAAAAAAAAAB+nn9ij/fL/p3/AKiPzDH6ef2KP98v+nf+ogNRc7nYnV8fmS2WeNtLxuLq7Oetkup5m/BE3Czd50/8SOQj5k/aW5faMn1wyDUC50+0zpsk1cxe+1ChZrkM1E2vyyA6qEytqs8EddmNvdGyk1NOG0ta0khCEoLl6PlTJeKT6zervr3f/qD4mADa3LZttS8UdVqDBtMMylyyx+Ix0zWe1SFKlooGIst3w0n1oiy0PKcWy67/ADPNkpBOGQyTFZNsnO9bLHAtWl2OQr08q3Yt9f5JEkPwZy7KqJcdVsSkx3Hm+ZTKJKVJTz8uxpMurS4dhXZBc1EC1q62xdjxLyMiHYtIPzZLKHm30oV/gTrLS/8AmggG3ysvW7kGpJaR6lYrSalynMPOTfqvYVfHnkzXrRenFmOrQyaV2BsuuElZ9MhCzIlJ3IdlD1kwKg1AqoGn+WUFXiV9rtYruGm3Go7D2OulWtudKhRkbde6XhB8qtm9my+1vq0fABsFpNV3Nlo3qxiUfOMai1NzHjJpqu1zOtgE9PatIS1upjyZKDSrwZpf8U0kSkpNJKP0Cjyczbc0OoIUzUfF5GDx9J5dZZY83dRPDDyNUmUcLmhc/TreQtcRwnSQZIaQ4W6fO302ABe7+vyC14VMfhW2a41OfpsglWMWuczGtemRKt2HHJCW4vhBvI3dJ3dkkc5K5jNBDHs1ajZVozplMprqlW5jECbSWcN62jMTGZD1rKktKKO44l1bRtyUbuoSaEmSuY07dclABt3aPtNan6F5vqRnmI3S6ynZqbierLq23XGtSm2LkZyWlp91amWyXFWtxRG2SSJJqI9iHa2+Q2lpa6Psaga3Vz2bUlZlT0yxpcxgFL8LUlSocZ21JTrDDryeRsn1mZJSZJ3JSPN0vABu7lmV1L2dlZYXnuOwtSbHSZqNGu1ZfDkKj3yLtRSG3bZSkNeGHWtLaS+pZcxGnlUrnQs+1f1FxxvUnUKfSZdj1lnsnFsIj1ttV5bEpWnij1TKLVmJYqPoWlm8lndslJUpLTiC9BpPQ0AGwrmT3thmGt9pSZBp/hyLfHnvlWuetI01uySpxg3o1c+2RtuyFukbn8LYtiXynsQ16AAG5NLmaE6E4XAl6j4urCIOmOSV+RY78tRCmuXDsu1VXJVDNfTOOk87CdbUSFdEknFnypUfNxcvy2mf0auoq83xuRp29pzQwcbxtqzjLmRcpbVB8LdKElfTsvk6ixW7IUhKVtukXMoloIagAA2/4iMtprTTvN2Hc3xu2xOdZUi9L6iDZxpEiqiobX05FGbWbsJKWTJt1LqUdI7ynsoyMxi2M2WnkrL+H/P8ytaCXiNHFr6PIIj8+O5IiSGp8xwzkQeY31R+U2nDcJtTRpUSTPmPkGtIANxMny2wybUrA2s4yWBSWFau9kQskgamVtpPf/2QlRohz0czcBlbyUtsOPESWvCHVERJTsXbZpqRQUl9FzGLmVErMC0jtIk6YeSxrqUm3K0dKOhyanqkTEsdEaFlurZCDSaiQlQ0lABT+IS/g5ZldFlDVvGtLG0xOleuZbLyXVu2JREIfU8aTP8AjGaCNzfzjWajV1mYmAAAAAAAAAAAAAAAAAAAAAAAAAAAAAC+a42ulNfxH6yo1BwfKbyUrUC+OO5UZNHrG22/D3t0rQ5BkGs9+vclJ6urb7RhzuT8O3V4Po7nBf16bPI69/8A+mrSPpxSfWb1d9e7/wDUHxMAFJLLNA0+jRjJlf8Ax5qg/wDwgkPqWaaBJIttDLtR/bz5oo//AAiEJiACmFnOh6VbloPKUW/US8tfPq/yaIex5/ooX8nD8n/6+VTD/wDAiExABTPGFo+n+Xh8r1f/AEmSWB/+CyHg9R9KC/k4d6H/AOvf2p/+EghNAAUk9S9My/k4dMTP/wCO5uj/APCYQ+qdV9OEJIk8MenyzItt3LXIjM/+fLZkJiACn+N3AS/k4XtMU/4nPyVX/jbbB44sNL/d8NOmCP8A7W+V/wCazMTAAFP8c+NF/u+HbTBP/wBnbq/808w8ddMX+70D0wT/APwM9X/mlmJgACn+PCGX+70Q0wT/APyd9X/mfMeD10/7GjumCP8AT3N/5nDExABTPHpLI929K9M0f6XZV/5tx4PXe3L+TTjTRH+joJ/+ZBiaAApJ68ZF/wAGDabI/wBD1Z/+LBj6I4hMyaQSGcR0xSRejm05oVn/AN64hmJkACn+UXn5fyY9pkj/AOHTDGt/+/wDceq+IvUdaTQVfgLZH/8AutO8ebP/AL0wiMTIAFLa4itT2d+iViSd/wCmE0n/AKTqHlXEfqyo9ys6Bv8A+jxWpR/5YxCZgApnlIawke6Mkgo/+Cir0f8AgwPYuJbWwi2TmZI/+Cshp/8ABoTEAFMPiU1wM9yz+Wk//cjsJ/8ABA7Jrif1Kt6NzC9S3o2c4nIfKS9UWqTbNDxFsTzEhjkeZcSRnsRLNsz2523C6hIQAVmw0kxjPX1zuHq9lXZuuK5MStltt5CykiLYm0pJLViaj5tkxeZ3Yt1MoLrBnSLH9O0RLXiCs59SqS307GJ1CmlXshs0kaVPmslN1yFGfpfSp7qMyYUkyUJXFlSoMpmdBkux5EdxLrLzSzQttaT3SpKi6yMjIjIy6yMejrrr7q333FOOOKNa1rMzUpRnuZmZ+kwGxGNau3WWaRa1YNT1cDGcKiYnFsomPViT6FMn5yUjZPvOrM3ZL5NmaekdUZkRmSSQk+UYZpVpFSaiaa5pklhlFXj0vHrWjis2FtJcahNMyymk4S0tNuOKUa2GCTypPl3UatkkpSePpF9H+t3qJE/c9GMap86+SdNcn08+S+l+cdnVWPhnT8vQeBIlp5OTlPm5/C99+YuXo/QfN1Bm2P8AC9ntxa29LbXmNY1LrMmXhrKLma42VhdoMyVDjqbbWXMXm7uOGhoukRusuYh1OJ6D5BkWPXWWXWU41iNTj9w3RWMm+kPt9FNWhxSWibZZdcWZ9C4WyUmZcpmZEkjUWfeVPi9zlNzkObaVSrOO7nkjUKkiRb4o3gc57k6SPIWcZfhDCiZj8xJJpf8ACPZRc3VMbrVafkGEXmK2lclcy/yxOVyZyHuVJO9C+hTZNcvoM3zVzc3Vttse+5Bzcd0RtMsxC0yfG8zxqwmU8GXaS6Npcvw5uHGNZuvc5xyjdTba3SR0/SGgtySfoHhzRK0haa1WqF3m2KVMC/hy5lPBlSnzm2BxpDrDrTbbbKkpWSmTMjcUhBktBEo1GaSzrEeKaHi2m7eEnh90/JaxG5xFKWclVHqeSeiURzjgEwfNKI5REpanTJaWyLZJmSkSrLM7PKMSwjFvks4xYbVyq3pun5/CumnyZfPy8pdHt4Tybbq35N9y32IO9vNKJDeP6dLxg4V1YZw6/HjuQJjyzek9K02mMpl5hronEKcJBmlbiFme5KIi6/nqZoje6aVce8cyfHMjrXLKTSyJdHJdebh2LCUqdiu9K02fOSVkZKSSm1kRmlatj2yNeuWFVNDgDGFaf5BXXunNr8sVU+fkrEyO5IVJZfX0sdEFpRp5mSJJE6WxH1modZqjq/imV4sjC8AwGXjNXIv5OTWKZtumwcdmutpbS20pLDJNsNoJZJSZLUfOZqWfUQDE9TdP7DS3ObTArW7pbeVUqbQ5NppnhUN3naQ4Rtu7FzERLIj6i2URl9g7LS3BKjN4ecyLaTMaVjOJyr6IUdaUkuQ0/HbSlzmSe6NnlbkWx7kXWXXv1upuR4hl2c2mRYFgbeF0MxTZw6JuwXOTDJLSEqIn1pSpfMtKl9ZFtz7fYO20e1HodO5+RpyjFp99VZNj8iglR4FqiukNoddZc6RDy2H0kZGyRbG2e/N9mwDj6c6VWeokW5tzySixykx9Ec7C3u3nkRWXH1mhhrZlp1xS1mlexJQZESFmoyIjMd6zw75fFtsug5jfY9iMHCZzNZa2tvIeVE8Le6Q2GWfBmnnXlOIaccTyNmXIg1GZFtvy6HVXSejh5LhiNMcofwjJ018iRBeyuOqyYnQ1um083MTAS3yGh95BtnHM9lmZL3Ih2FnxEUmbTM4h6l4DJm4/mNxDu48SmtkwZNTIiNOsR0tPOsPJWjwd5Ta0qb3VypURpMtjDHNPtCrTUybLpMYznFXL1Ex6FAqFuSzkWi2yIyUwtEdTCELNRJQp9xolK6h86fGcTt9Bsoy06iQzkGN3tPCTMTLM25DExE5SkqaMtkmnwVGxkf2nuKDonxV02jbdM3EwS+kM47k0nIIUOFlZwYsxDxMpJqwQmMo5SmkMbNr3QRGs90KLdKpdg+f0+P4nk+DZRjky3p8kVDlGUKyTCkR5kTpiYdJa2XkqRtIdJSDR5xK6lJMiMBnMrGuH9OhLWpjGE6gptpF0/jiGl5lCVGRIRDbeKSaSqiUpHO5t0POR7J/3m57l0LejL1vR6XtY5YVEyw1Du5FOzMbnSOjak80JCYz7TkZBtKaVKLmcbU8lfP5u3J52OOagdJpHH0r+SdugyN7IPD/CP5ukitsdD0fL1bdHzc3N9u23VuKDQa76cYzTadRKrTDJFWGnWSFk0aRIyxhbMt9b0JchtbSa9KkoUmCSUbOboNwzUbm3KYfG24TtQoiaMsdyDF8peyCwra+GzTy3zXzTykeDOL6dlpKW1Khy0GZnug2FGoiQpCl4nqfo1faXw6q2l3lPeVVw7JjR7CqOT0JSY/R9MwopDLThKSTzStySaFJWRpUot9s8xriwtcRRj79JiDBTcflUMltx+aa23irnLFSkKQSEmSXk2RpPZRGkm9yMzV5uD6saj0meFXt0LWctNRnH3XUZLlny0RGvk5Us/wCzs9GSeVRGZ8ylcxbmXL1hPQAAAAAAAAAAAAAAAAAAAAAAAAAAFP0i+j/W71EifuejEwG1/wDZ+YpobmWRajUWu+Uv0+Oy8UjtzjcWiJD8HK8q1pU7NNwlMmclEVvbo9jQ64ZuNmkuYIho5oJqzr3kKMc0twyfcO9IlEiUls0xIZKP+d98/MbLbr6z3PbqIz6hnfEXwRa98McVq6z2lgWGPvOIYTe0sk5EMnlFuTa+dKHWz+zdbaUmfUk1D92NOsJ0/wBPsPrsb0wx+pqMdaZQ5EZrG0pZcSpJbO8yf96pRERm4ozUv0mZme4yCVFizor0KbGakR5DamnmXUEtDiFFspKkn1GRkZkZH1GQD+YwB+g3H9ovwK4ZmbisW1Hk4llrzxrs8cxenatIkfzSTymyTzDcJe6eY2+kM9lbk0RGRjUH5s8P5/3v5iX/ADwdjvIBNwFI+a+gB/3xZcX/ADwhrvAefmroEf8AfJlRf88Jb/8AXgJsApPzT0DP++fJv88KR/64efmjoKf99WRF/wA8LL/1oCagKV8z9Bj/AL7L4v8Anhn/APmDz8zdCD/vvuv88NV/6oBNAFL+ZehJ/wB+Nv8A54cv/wBSPPzK0L26tc7Pf/HD3P8A1ACZgKV8yNED/v0ml/zxJ74w8lg2iB/37yi/54lI+KAmgCm/MTRE/wC/p4v+eJyfiDz8wtET/v8All/zxOV/+mAmICn/ADA0SP0cQP8A34pL/wD0g8X2ih+jiDa/zxab/wDmAmACn+L3Rf7OIWN/ni87/wDIPF3oz9nEPC/zxiw//RATABT/ABc6OfZxE1v+eNWPww8XGj32cRdT/njdn8IBMAFP8W2kJ+jiNpf88dtPgh4tNIz9HEfQf549bf8ApwEwAU/xZ6TH6OJHHP8AOguP/TB4sdKD9HEni/8AnQ3P/pAEwAU/xX6Vn6OJXE/86O7/APRj5uaZaYIPZHEfia+r0lS3RF/98MBNAFI8Wmmv2cReI/5091/6IPFnpx9nEZhv+dTef+hAYFOt7azYgxbK0ly2ayOcOC2++pxMVjpFu9E0SjMkI6R11fKnYuZxZ7bqMz4gp/ip01+zicwL/OpyHu0PFPpv9nE9p7/nVZF3YAcOn0gW3qJm/wC2LMdTo3pi5q1mCsVbsZMU24Mid0cGF4bOldEnm6CJG6Rvwh9X/C3zp32M9+oZ1pRi+PYxqPMZoNSKLL0v4DnKnXamLPZRHMsZsiJKvDI7CjM+s/NJRbF6d+oSfEcgq8btFz7fDajJo62VNHDs3ZTbaVGZGTiVRXmnCWXL1edtsZ7kYCrYHw0Kzm9zUmbjJIlBhTsSNKcXjP8A8sLkSTWTTJ16pKUtrLoXzXzP7JJo9jUZkR8uBwuV8TI7WjznU1qkZbyiLiVNMj1SpjdhLfbJ1LrhdKg47KWlsqWfnrSbqU8h7Htja+I3JrK+yqyyrFceyCrzFqAzZUk0paYpFBbJqGttxp9EhLjLZGlKzdUaiUvn5+Y98p0P1tw3F7WfMy+px6uomL+uyKBSNU0yccSRH5yNyAtUtPK6SOVO0pbrS9yNe5oIjDpq/hslT8qxHFyy5pCsrz+2wRL3gRmUdcFcJJyTTz+cS/DiPk3Lbo/5j5upQcPdReYHRZB4xSZyLJsdu8jq6Mqk1oU1Vqlm+h2T0pdGa24TimzJtXMojSrk2JSvfE+KjJ8PvjyCLg+K20qJlkzMKdy2alOqq5so2ykE0TT7aVpWlhlJk4lWxtkpPKrrGKU2teVUacZTEr6pZYpQXOOQukacPpI1kUwn1ubOFu4nw97kMuUi5UbpVsfMFIgaGYPjemmoM+9ycrPM6vAKnIvkdVappFWdhYVa2XG5HSn0rhRZXK4hTaSSckiI1mRmnrss4bavEG7NuPnibu6wu2q63MKg61UZuIuWo0/7PI6VRyEtul0KzNDRkpRGklF1jopnEfkU3A7TCnMKxUpd5j1fjFlfkzKOykwILsdyKgzN/oUqQURhvmS0XMhCebdREovfL+JbLMwqpUN7FsarrC5m19hkNtCZklKvH4aTJhUglvKbQW5mtRMoaJa/OPfYtg+mRaRVN5xc3GhWLOpo6uXqHKxauWolyShRzsVx2t+dXO5yJ5f5l7nt1nue44eB6EO5pT4rkD2Ut1tffSci8PeVDU78mw6aFHmSZGxKLpTNp9RJb83dSCLm8/q5GT8Rcm/zxjVOp0nwnGcyayVGVLuqly2U69OJ831czUmc8wSFOnzGlLaT6iJJpLcj7Kp4jZcrIcOhtYvh+G49jMq4WiNArpkqKtq0jtsTWpCHZK3XmnG2+QyStKkpcWST2JBJD1k8PmPfOXC4VFmmR5HTZtjr+Qw36bEjk2TbbcyTGNlUPwkk86TirNajeJCPO85RESlciTwvOV+rM7Tm3zpqsr4mKuZgVtMrVpWmEiH4UaHY6VqNDpJJSDQlay507JNZGRnzM+4jaUr6kh4XiNDYY5UYYvDJlc/DlxIM2O5YPTV9ESZJykJS440SVqe6VRtGpf8AOpIw6/4hMsv8lkZKePY7XqexJWFNw4UZ5EaPXeDnHSTZKdUrpEtmREpSlbmRGolHvuHX12FaX3GR38CHq25Cpqyik2dbYWtGcd6ymtNkpEHoG3nCaU4szSlfSKLYiMy69in4yfAs9fwGRdSWMYx+6O6pJlIpFzCOSmKmQkknJYIlJ5JCNt0OdfKf2GMYAbDaV6I49lPD/kuRWmNTJeVXTdpKxac2t4m4bVKyzKm8yEn0ayfZdebTzkZkuP5ux774zlGBaP1mgGH51XZLkh5RczrWM80ukaKM87HRBM2Tc8MM222zkOcrpNmpzm85DfKW/Gxjia1Rw93CmsfsGolVhEY4jNM27ITX2aFSXn3jmspdLpjdOQtCzI0+YSUly8pGMXb1Ikq078W1ljFLYwo0+TY1kyR4SmVVvSEsJf6E23koUlaYzJcryHCLYzTsajMwyvMKCBfaVaU2NFi9dDvbyda1Dy4TZtnONhcRDBubqMjXu6rdXVuajGSat8LMbSCAVpeZrZPxqy8aor5SaFLZtrWlwzfryXJI5rKTZcSal+Dnube6SJZGJlD1PtIuBR8CepKuWmssXLSmtHTkJnVL7psG90Cm3UtqSvwZvdLrbhJ840cilGoc7UzVlnU92Ta2Gm+K1OQWc87K1u6zw1EifIUS+kUptyQuO2Ti1m4ommkEaiLblLzQGY6t6TaYVOt0TTjTy6y2QzKcjNSY6ccKRIYNyKy4gozaJS1y1rNa/MPouU9iI1F1ljut+icnR57HZCbGxlV+TQHZsUrSrKunMG2+tlxp+Ol15KFEaCUXK6sjSsvQe5F5Vr9fKzOj1B+Z+NFf1UNUCdL5Je90yqGUMyloORyJM2CUnmjkyozWpRnzbKLqtSdWZ2o1XjWP/NSgx2oxGNIh1UGobkEltp55Ty+db7rrjijcUo+ZSt/OP7NiIMFAAAAAAAAAAAAAB+nn9ij/AHy/6d/6iPzDH6ef2KP98v8Ap3/qIDRLik+s3q7693/6g+JgKfxSfWb1d9e7/wDUHxMAAAAAAAAAAAAAAAAAAAAAAAAAAAAAAAAAAAAAAAAAAAAAAAAAAAAAAAAAAAAAAAABT+KT6zervr3f/qD4mAp/FJ9ZvV317v8A9QfEwAAAAAAAAAAAAAAAAAAAAAAAAAAAAAAAAAAAAAAAAAAAAAAABT9Ivo/1u9RIn7noxMBT9Ivo/wBbvUSJ+56MYvgmnt3qLLn12Pyq1MyBAk2Pg8qUllx9qOy4+90RH/OpLbS1bf0IBjAAAAADJ7nT27pcJptQHZVbJqLyU/BYVFlJccaksttOONOoLrQokPtH1/8AaAYwADt8QxLIc9ymqwvE6/w65u5bcKDG6VDXTPLPlQnncUlCdzP0qMi/xAdQAAAAAyfDtPbvOYF7No5VaS8er3bSTGkSktPuxmkKW6tpB/z8qUGZkX9S/qAxgAAAAAAAAAAAAAAAAAAAAAAAAAAAAAAAAAAAABT9Ivo/1u9RIn7noxMBT9Ivo/1u9RIn7nowGX8NXG1rfwwuorsQtWLXGFPLdfx60SpyIpSzTzrbNJktleyeo0q5dz3UlXWR1vic/tRdWdZIqsW0sjytO8dVuT7sWYarOYRltsp9JJ6FH/ut9Z/asy6hpMAD2dddfdW++4pxxxRrWtZmalKM9zMzP0mPUAAAAAAAAAAAAAAAAAAAAAAAAAAAAAAAAAAAAAAAAAAAAAAAABT+HT6QLb1Ezf8AbFmJgKfw6fSBbeomb/tizHU6M6S2+tGcRcJp7arrXH0LcXInzo8ckpSkz8xLziDdVuReagzVturbYjMgwYBnFPotqDkGQ2mNU0Kolv0rLciwmN5BX/JsZtzl5DVP6fwUjUa0pIul3NW6duYjIvai0O1TyPIL/F6vE3PlHFVGV03JlMRkV5E50ZrdceWlCUEr0rNXKRdZnt1gMFAZ/SaD6nZC7cJrKit6GjmFXS5ki9gR4apR7mllmS68lmQ4oi3SllazURkZEZGRnxqbRbUvIMOdz2qxxLlM2zJkoWudGafkMxiM5DrEZbhPyG2iJRuLaQpKOVXMZcp7BhIDL5mns2v0vh6jyUOKZsLX5PYWxKiPMpIm1qNLqUPG+y9ugzJDjSSNHnErrLfmWOh2p1RiEbOrTHmYtROjR5kJT1lETImMPqSltxiMbvTvJ5lpIzbQokmeyttjAYIAr1fww6lx9Q8IwbOK9OPsZpksTGSntSI1gUCS8+02tt5th4+jfbJ1KjYdU25t6SL0lPKvD7y/yOTi+Ow1WE2OiY9yJUlBqZitOPPL84yIuVppxW2+/m7FuexAOkAZjj2kGomUSaWNTY+lfzgrpNvBefmx47Bwo7rrL0hx51aW2G0OMOpNTqkF5v8AQy37B/QTU+Flb2FW1RWVVrHgs2S02l/XwWPBniSbS0yH30Mq5yWk0kSzNRGRkRgJ8Azun0N1Wvcpv8LrsQfO5xdvp7iO/IZYKE0TzbJuuLcWlBNkt5vdfNyklXOZ8hGouK3pDqC+nLXIdKzMZweOiXevxLCNIZjMrWlCHEutuGh5JqWkiNo1ke+/o6wGHAAqEjQ6SxoFH1tPIkKkvWSWjo/BT501ilusIsOm5+tJymHWDRydR8p8x7mRBLwFL1C0GybTrCsXzayvMblxskrlTzYh39fIeYMpsiMSEttPrW+n/Z+Y3G0mlJrNCjJSFEXw1E02q6Z3AFYC7cWqc8okWkWJJjoOUmQqymQiYSlozJZqVEI07dZ9Jtt1AJ2Ao1hoBqXSZHR43fwaivcv5D8WLKcv69UNLzBJN9pySl82WnmyUjmacWlwjWhPLutJH9M00Ey/ENU7HSpFnjc+dDlzGG5SMirm45tx3FoU4+4qR0cQzJszNt5aFp3IjLcBNQHeZnhGT6f3R4/llamJM6FqS30chqQy+w4klNutPNKU262oj3JaFKSf9eodGAAAAAAAAAAAD9PP7FH++X/Tv/UR+YY/Tz+xR/vl/wBO/wDUQGiXFJ9ZvV317v8A9QfEwGynEhoLnFxxEao28S906bYnZpdyWkStSMdivJQuc8oicZdnJcaXsfWhaUqSe5KIjIyE68nTUD7w6Ye9LGO8AEwAU/ydNQPvDph70sY7wDydNQPvDph70sY7wATABT/J01A+8OmHvSxjvAPJ01A+8OmHvSxjvABMAFP8nTUD7w6Ye9LGO8A8nTUD7w6Ye9LGO8AEwAU/ydNQPvDph70sY7wDydNQPvDph70sY7wATABT/J01A+8OmHvSxjvAPJ01A+8OmHvSxjvABMAFP8nTUD7w6Ye9LGO8A8nTUD7w6Ye9LGO8AEwAU/ydNQPvDph70sY7wDydNQPvDph70sY7wATABT/J01A+8OmHvSxjvAPJ01A+8OmHvSxjvABMAFP8nTUD7w6Ye9LGO8A8nTUD7w6Ye9LGO8AEwAU/ydNQPvDph70sY7wDydNQPvDph70sY7wATABT/J01A+8OmHvSxjvAPJ01A+8OmHvSxjvABMAFP8nTUD7w6Ye9LGO8A8nTUD7w6Ye9LGO8AEwAU/ydNQPvDph70sY7wDydNQPvDph70sY7wATABT/J01A+8OmHvSxjvAPJ01A+8OmHvSxjvABMAFP8nTUD7w6Ye9LGO8A8nTUD7w6Ye9LGO8AEwAU/ydNQPvDph70sY7wDydNQPvDph70sY7wATABT/J01A+8OmHvSxjvAPJ01A+8OmHvSxjvABMAFP8nTUD7w6Ye9LGO8A8nTUD7w6Ye9LGO8AEwAU/ydNQPvDph70sY7wDydNQPvDph70sY7wAOKT6zervr3f/qD4mAp/FJ9ZvV317v/ANQfEwAAAAAAAAAAAAAAAAAAAAAAAAAAAAAAAAAAAAAAAAAAAAAAABT9Ivo/1u9RIn7nox8eHe5qaPVaE/d2cavizau6qilSnCbZaemVcqKypxZ9SEdI8jmUfURbmfUQ+2kX0f63eokT9z0YmADbbh2mz8IxyNjdDqHheOXVdn7MjNXJOR1xMWGOEwySUE90ptT46VFL6RhlThqN1vzTPYdVS5LIXpdYQuHPOqbEJXzyupV9HlXsWnlzaVxEf5OLnkuNnJjoSmUlTCTVspe6kHzpGrwANxNKbXF6/QKZQ3epMebR2GAZG6uts8zhtRYt4SZq4sRilMumOR0iGHUyVH5ylpShRGaUKiUfwTIuG1ijgXNQ1ZYzlllczIUyzjxX3IkmFCabXHbdWlUgyXFcJSGiUst0ny7HuUoABT9X7G/m4hpixc5tit7HiY10UCJTLQqRVMeEOH4POJJEZP8AMZq2VufKpI9+Fi4qMf4j9Nru+tYdZXQclgvypkx9DDDDaXUmpbjizJKEkXWZmZEQloANgtGMLlaT6mxZ+V5PgUWxsKO7j43YR8wp7OPBuTguJhvPrjSHURtnlo5HXuVKV8q9/MMyofzuqi1No3bvO8Ye1Ta0wlQHMmdtYr8RvKTlyFRluz+dTByUwFNM+Em4aUu8hmslIMy06ABtDphbZ5AzPM77MNY33M6Zj1re8TUmBWnZMq5ukU9bGtxD5MoS0S2EOG4rn6zPo1JHyvLfAPKr1Vi4xkOPM0mU1WQV1RYNS2WKxciVBWbX8YzS00hbp8pKPlQk1lzcpEZlrGADk2ldIqLKXVS3Izj8J9cdxcWU1JZUpCjSZtvNKU24ncupaFKSotjIzIyMcYAAAAAAAAAAAAAAAAAAAAAAAAAAAAAAAAAAAAU/SL6P9bvUSJ+56MTAU/SL6P8AW71EifuejATAAAAAAAAAAAAAAAAAAAAAAAAAAAAAAAAAAAAAAAAAAAAAAAAAAAAABT+HT6QLb1Ezf9sWY6HR7N4WnGpuPZrZw35cKslkuUywZE6phSTQ5yc3VzklSjTv1bkW/UO+4dPpAtvUTN/2xZiYALtpTq3gWm0HO8Bg5HkTVDlKquVCyBWLQZE1iRDJ7zHa96Sto21+EvJNSXzUXI2oi6zQXT2mscOXD1YiSbu+upOdxKyFEsZMBiIt5EWXHdM5DLTikNFyMESUoNwiMk7n6VCQgArGKZpppcaQMaU6j2OS0x0+Rysir51LWszyk+FRozDzDzTshjkMiiNqbcJS9udZGkiPcZlS8RFOWk+L4weWZDi95h9NPpWm63GK+wYs2npEl9CjkvuoeimZyltOElLhGkuYiNRmk9dQAVlrJ9I06Bu6fLyPLyyNy5Rf8hY7FOCTyYq2Sj9P4d0nIZqI+l6Hci/9mY4mU6uxbDLtOcqqIcp48FpKWAceaSUpcehK51pRyqV/CUvcyM9j84zMiExABtCjiG0fxfMcfuMSRmNlXOasV+pl38pQY7L8RqM6pRQ4xJkLKQvZ57d1amiWaWt0p6zLCMdy7RHT/UuvzTGcozi9hSytIVuxPxiJXux4k2G9GWtg0WD5POJTIUZJV0ZbpLzuvqioANnsaz3TnJpNDpJh0PL7CmLT6yw+fPVBhs2KnXLd60TKjx1SujURK6JJtG+lRp6RJKP0q7DOdStH8b1MmVb0qYZVmEY1j9bfM09dkL0CREix/CEEw88UfpVEk2lONuK6JaFJQak7qGqIAL7qFxA4nlGW6zX9DX3cOPqLjtZT1iHm2ScZWxLrHXen5FkkkKRBeSRoI9zUjdKSM+WYYZZ4HBxnMIuWO5Om2m17TdAVU62mIqSTyTWU0lKJSmujJWxJIz5tvsGIgADY6ZxLYNKoJumqcEQnE3NPmcSj2Hgf/wAr+FstolocWXhHQkydslTpkXnE2sz61bpPXEAFDyvMMOyvS7CqZ2RcxclwuvkUzcdMBpyDMjO2Mqb0pyOmJxtxJzFo5OhUR8iT5i6xleL624pjkrRzOPBbV7J9J3o8Y6w4jRwLGG1ayrAnPCel6Rp3eUbfL0Ki80l85H5oiIALJq/qxUZE3Ux8UzvIb2DCtHLVEC1xavqG4izJJJ86I84b7hknlUoyQWyUmRdeyeyk6m6MSNeci1QUzeya7KjtrDlsschTF0djMW4ttaIzkhTM5DRr2JTnRbmfMSCNJbwkAFX4i9UcY1UyXHLHFStVR6TGolI+/ZQo8R2U+y48pTxMx1KbbSsnEmSCPzT3TurbmVKAAAAAAAAAAAAAH6ef2KP98v8Ap3/qI/MMfp5/Yo/3y/6d/wCogNEuKT6zervr3f8A6g+JgKfxSfWb1d9e7/8AUHxMAAAAAAAAAAAAAAAAAAAAAAAAAAAAAAAAAAAAAAAAAAAAAAAAAAAAAAAAAAAAAAAABT+KT6zervr3f/qD4mAp/FJ9ZvV317v/ANQfEwAAAAAAAAAAAAAAAAAAAAAAAAAAAAAAAAAAAAAAAAAAAAAAABT9Ivo/1u9RIn7noxMBT9Ivo/1u9RIn7nox2WgmI4/aQbrJ8wxrGbSmhz62o5rl625vC5fhCmmYzVYpLi3VpjumSnD6NPR9ZKNRJMI8OUiptHK5dw3WylQG19EuUTKjZSvq8017cpH1l1b/AGkNpPkXCdIbDiZ04Z04pMnj4i50cN63kTvCVw276Cwhpw40houVBKSo1oSlZrPY1Gg+QTDTSymytFdZ6ll95MVNbVT0wUOrU03/APK0VKnCQZn6OZCTUfX1pIzASABsw5p1oBi2juMLyxxpd/mOITcgYtEosnJbU5LspuOywlr/AGPoELjIQ8TqVOec4olIIkkMe1FyDG5fDjpnFgaW43EmTHbeJ8qR37A5DLzL8Y1KLnkqaNbiVEayWhSUk55iW9yAQgBtDqxovgNLphd3JY9T1GQ4Rmdbi1w3jT1q+gzeal+EMursDNt2S2uKjZUbla85RbGSkKGC8QWKYRAgUmX6WVGMIw2zn2UGusKqXZqlvmwTC+hnsz1Gbcltt9o1KYSTKulPl35QEYAZ7rvU1FHqxf1VFppcafwWHGCZxu4ecdmQCNhszJxbnnmajM3C3+xZfYMh4eyM6zVsiL+7mw//ABcMBJGGH5LyI8ZlbrriiShCEmpSjP0ERF1mY9BV+Flmsl6+4XTW9Sctq2to0FDqJ0uHIhLW6jaSw7GdbWl1Gx8pmZp6z3SZ7bc7h4xzTrKnLGhyKvoJ+W2c+BCxuJkj9nHq5XSdMl5rpq9SVokqWcUmjdUTOxuc5+gBGgF/0+tqDH9CdVK260nxq3sKi5pkPLmSbA3dlOy0HzKjykJJLauVJGgkkZrLn5/N2+WAaT6c2mBxsnoSf1Ny52O45KxWNZt1KqtRb7czK95VkXKRKMovISdy3V1GQCCgRGZ7EW5mNxrLATRwmeKwrShOfX41F1QVXJntfKXyi4+o3N4+/SJb+RpDDpmZbGbJf4GJfxCZHjVhg2lCabS/G6Nyfh6JaJ1e/YKcbJFrZNqYT00lxCk8yNzNaVOErcuckkSSCJ2NVaU8jwS3rZUF/lJfRSWVNL5T9B7KIj26jHFGzL+JRdZdVeHfFcwuZioOU41Wwpc3pjU88n5SmtrQhxW+7hqSbZGe+yjLqPbYcOyk6CVOoen1zhWMUch9F+uDc1Blct1yWicY6B41ynUv9Og1u9IknOj3Q2fIRKUgBrkA2Ht6mgy3iIz91/TbDKmnxJdtKto0+VcIgkhqabZyXksPLlKcNbzaOjYU2jc09SEkoxk2TaDYFBz+bWRNO5TuKWWOUF+7cNZD8kM44uZGU4fK7ZEaFtOmS1IYf/jqS2SUr5iUZhqkAybUjH8QxbM7CjwXN05dSxlIKNbJgridPugjUXRrMzI0qM07kZpVy7pMyMhjIAAAAAAAAAAAAAAAAAAAAAKfpF9H+t3qJE/c9GJgKfpF9H+t3qJE/c9GAmAAAAAAAAAAAAAAAAAAAAAAAAAAAAAAAAAAAAAAAAAAAAAAAAAAAAACn8On0gW3qJm/7YsxMBWeF+1s6LVSVd0ljKr7GvwvM5USXFeU09HebxqyUhxtaTJSFpURGSiMjIyIyHF8qTib7Rep/wCb7D4oCYAKf5UnE32i9T/zfYfFDypOJvtF6n/m+w+KAmACn+VJxN9ovU/832HxQ8qTib7Rep/5vsPigJgAp/lScTfaL1P/ADfYfFDypOJvtF6n/m+w+KAmACn+VJxN9ovU/wDN9h8UPKk4m+0Xqf8Am+w+KAmACn+VJxN9ovU/832HxQ8qTib7Rep/5vsPigJgAp/lScTfaL1P/N9h8UPKk4m+0Xqf+b7D4oCYAKf5UnE32i9T/wA32HxQ8qTib7Rep/5vsPigJgAp/lScTfaL1P8AzfYfFDypOJvtF6n/AJvsPigJgAp/lScTfaL1P/N9h8UPKk4m+0Xqf+b7D4oCYAKf5UnE32i9T/zfYfFDypOJvtF6n/m+w+KAmACn+VJxN9ovU/8AN9h8UPKk4m+0Xqf+b7D4oCYAKf5UnE32i9T/AM32HxQ8qTib7Rep/wCb7D4oCYAKf5UnE32i9T/zfYfFDypOJvtF6n/m+w+KAmA/Tz+xR/vl/wBO/wDURol5UnE32i9T/wA32HxR+in9kPqlqbqX42PGNqNlGVfJ3yF4H8t28id4N0nh/SdH0y1cnNyI32235E7+ggH518Un1m9XfXu//UHxMBT+KT6zervr3f8A6g+LncOacX/GY/o3a6e4fS4VRZHZtwocKojsPS5jMaQcdh2R5rjrb0omU9CtwmyJSUpJBANPQG2V9UVnjhwo7XhszJqyKstm59Z8xYsB6cpLbpR5rNQ0RMvnGWvnWkySh0o6UrP+dQ7XF9N6Ov1c1EavqaJlGV1+J11pQU1dg8JiT0j643Tc1CZFG8MZjuKNcfZaU7uOcqjRuQacANoorOHU+pusOQSNGG69VDgUe0jY7k1OhgoVoqVVIOR4JuaWkqU8t0mf5SQ6bZlyGZH8NHK3ENZKyXm+YYxjkd7Ta7VlmRMV9bHgM2VF4GalxzZZSlBJ8JgsMpSlJESrM9iIj6g1kAbk8O+mMbM8Djy8lxSBa0eUwMilyHoWGQTj1TzLUjokvXCjKRFf6VDamozXKk0qa3JZLMik8rIarB+HPCZFRguKybjJ5+QxbK1sqdiZJOM34KlttpTqT6JSTdcMnE7OEfLyqT18wSWRh2XRZFjElYtbsv08RufYtuQXUrhxlm2SHniNO7bajfZIlq2Izdb2Pzi36gbwajXeHzLXXmiYwlqvto+mNAqbeInvuuSWvC8f3T0Cj6NP8yT3SW/8Mv6mMZ4msEqqHCc7dl6aUeM0tLmFfX6aWsCtbiuXlOtmUbi/CEpI7BBtIhvKfWazQtwk8xEvlAaigNptQE1+Q8S1fohiOG4LjNPCu4RxnCxqK+848UYlOdIpREuSTi1q5Yqlk0pXRJIk+k8yu9MsXc1g4bJOR6fJgScsyP5Pv62xxiHSLmMNT46UeE1kb+Ayam3j6uUjU2aDVzbkow0thQ5VjMYr4Mdb8mU6lllpBbqcWoyJKSL7TMzIh7WNfNqbCTVWcVyNMhPLjyGXE7LacQo0qSovsMjIyP8A5Cv4DkWT6qazYqxi+lGOyUQ5aGE1FTiMaU2VcpxKXDkNdEvwjkQo/wCO8SnCM+Y17kRlS6LSnJcXyzWiPjuirdrnVZbxVYzjtrjRTTKmenSUPyo8B5tSXkkSIrZLJBkhDqlJMttyDV+hxy6yeVIh0cFUl2JCk2D/AJ6UJajsNKddcUpRkRESEn9u5nskt1GRH86OiuMltY9HQVz8+fKM0sx2Ecy3DIjUZEX29RGf+Q2OyemxKhy3iWxHAWIsflomfAosR3pW2m2reuenxmFbmaktGhw99z/hR177luM34SMbmlS4DdYlpzVXdfMl5CeXXz9Uh5+qkNRv9kaKWZGuIXKba0JSpBPLdWgyXtsA0sH3dgTo8WPPfhPtxpZrJh5bZkh00GRK5FGWytjMiPb0bjbzSnSeJaaCTHcixmNa1cvT/IsjjWkfD4SGYU6Kma4w0u75vCnJZLjEZxk7JJrqNKi5lFgeb5Fm2V8KuFPVWK1EykppFnX3lhAxOCSqxRPxTjk7KbYJcZThKR5/Ok3jMyUaz5iAa/wYM60nR6yshvy5kt1DEeOw2bjrzqzJKUISnc1KMzIiIuszMcl/HcgiwpdnKorFmHAmJrpchyKtLceWolqSw4oy2Q6ZNOGSD2UZNr6vNPbeqPpREoqylmXuMxk2OL57hzNTeR8PhUcac09INL3gbzCukso5/wAIzkPcxmfRmRp5zSOqpnNJ88TNoLbBoOPUTuvdLFuuktn3GrAlMWxfxVuq/goUZcqjTsREsz6tiAaNANubLB1Sc30BLVrSmkxPL77P3Ky4oGaJqsbl0iZsBMZx+EhCUESluzmSWad3UNbmattzxPA58vVTVqzi0WF4tVxsUr7GTXVVRgsG2lyY6XW0JYbiOkSZ8hJHzdI+a1JQTy+vlJIDXIBt5kWnD1Xxe4jRaf6O49kNpc4rHtH8Suo0eJBdlrqXVSelYSroWHEGhbptIMkodRypItiSNQwHLXT27VQzkDlVMRVyZLsNmcphRR3JDaULcaS5tymtKXWlKSR7kTiDMtlFvxBsJR6YalalcJeMtac6e5LlK6/UXIlS00tU/NOOS6ym5DcJpKuQlcqtt9t+U/6DPdPdOa1elmNNS9MKiVh0zEMpmZzk8qpQqZUXsZc5MZk5ik9JDcR0Vb0bBKSTxyDJSVc/UGnwDYjMMbv6vQzEZumultXbYjZYyqbk2UJx5qdIYtSlPJfbdnqQpcFTRJYShpC2yUlSFGS+k6871M0niVPDjk82/wAZjLmY1Fx6TT3sbEIVPGleEKaS8UWYyrprNokvFzuvb+fyHsg1ERhrJa6Xah01/T4tOw+0+V8gabfqYTDBvvT0OOraQbKW+Y3OZxtaCJO58yTL0kOvyrDMwwW0+RM3xS5x6x5Cc8DtYLsR/kMzIlcjqUq26j69vsG0+jdLcWupXCRmVbUzJVFWOQaObYtMKVGi2BZJZPeDOuEXKh02nW3CSoyM0rIy3IcDHMAyeNh+lOkeoEVNRmRZbfWkCovatM2XDq/AIxk2qveNJqN+Qw6TMdzlJx0j6tl7mGqsGDNs5setrYb8uXLdQxHjsNm4464oyJKEJLc1KMzIiIuszMfEyNJmlRGRl1GR/YN27Biq0r154cc6exeBjcy+sIqciRb4pX1q2m2rpKfCHIDaVMQXyZJJktpKFpSSF7kozM8S0qxOyn6haiPapaXK+fdRj7UnHscjYTBJx/eY0h2SxVG23HlrSwpxRcyFkaOdzZfRkZBAcO0a1f1ErHbrT/SnMcnr2H1RXZdNRSprLbxJSo21LaQpJLJK0GaTPfZST+0h1svAM4rrq0xuzxC4g29JHcl2UCXCcYkQ2UJJa1utrIlIIkqSZ7kXUZGNg6KPWReIPUJurwW0w4laZZO5IprKAmC9HkKxl9TqvB0mZMIcWZupbLqQlwkl1EQxPhrwDLs6pdQ4VVpi/k1aeL2C25TeOFOcj2TbXNHQzI6JS2XT5jMkIUk19W5HsWwQoBvLo/ieLJxbTvDck0txZyRaKoIVq5Y4/HVYE5NyK4gyyW6tHSpX0DDTZbnu2bSVJ5VlzDGJ2KYLW8PVO/RaRXOR1Nlg70+fkVbjMaQ3DvCNw1uP2pn08boHUtoVHI0oU1y+YpThLAap2WOXVPWVNzYwVNQr1hyTXvktKkvIbdW0v+Uz5VJW2ojSrZW3Ke2ykmfWirX6m4/DBhkSw28Lk5pfTK9Cv50w/BK5t1f/AMC3m+Uj9HMy79pGPhq/UX9biGmMm506ocbjz8a6eBOrVIN67Y8IcLwuVymZk7zEaPO2PZJdQCYAAAKfxSfWb1d9e7/9QfEwFP4pPrN6u+vd/wDqD4mAAAAAAAAAAAAAAAAAAAAAAAAAAAAAAAAAAAAAAAAAAAAAAAAKfpF9H+t3qJE/c9GMNxXPs5wVU1WE5leY+diz4PMOrsHYpyGv+w50ai5k9Z9R7+kZlpF9H+t3qJE/c9GJgAyCu1E1AqMnk5tU51kMLIpinFSLePZvtzXjcPdZrfSonFGo+s9z6/tHwxzNMxw+6PJMSyy5pLdRLSc+unuxpJkv+YulbUSuv7evrHTAAyip1T1MocXmYRSah5JX49YE6mVVRrR9qI8TieVwlspUSDJaepRGXnF1HuOvh5nmFfjU7DIGV3EbH7NxL02pZnOohynEmk0rdZJXItRGhBkaiMyNKf6EOnABll1q7qvkkKNXZDqbldnEhLYcjMTLmQ82ytnm6FSEqWZJNHMrlMutPMe2244eYah57qFJYmZ7mt7kb8VBoYctbB2UppJnuokm4o+Xcy3Pb0n1n1jHwAdlkeTZHmN1JyTLsgsru3mmk5M+yluSZLxpSSUmt1wzUrZKUpLc+oiIvsHJxDOM10+tTvsCzC7xqzUyqOc2osHob5tKMjUjpGlJVymaUmZb7HsX9B0gAM4LXXW4sjdzEtY84K/fjohu2vzhl+GLYQrmS0p7pOc0EozMkmexH17D0ia3azQJ9raQtWsyYm3nRfKclu9lE9NNtHRtm8vn5nDSjzEmozMk7kXV1DCgAdxjGZ5hhMx6xwzK7mhlSGlR3n6ye7FccaP0oUptRGaT+0j6h05GZHuR9YAA7hWZZeq3dyBWVXB2j8RUB2cc53whyMpjwdTKnObmNs2P4RoM9jb8zbl6gXmeYOYujCF5Xcqx1t/wpFQc504SXuv+ITHN0ZL6z87bfrMdOADuk5tmacei4knLroqKFMKxjVhT3fBGJZEZE+hnm5EubKV55ESvOPr6zHLzLUzUbUVUNef57kOSKryWUQ7azelmxz8vPydIo+U1cqdzLrPlLffYhjQAMt8b2rB5HEzBWp2WKva+L4DEs1XMlUpiN538FDpr50t+crzCPl84+rrMdLkWU5Nl9idvlmRWl1PUkkHKsZjkl40lvsXO4Zq2Lc+rf7THWAAAAAAAAAAAAAAAAAAAAAAAAAAp+kX0f63eokT9z0YmAp+kX0f63eokT9z0YCYAAAAAAAAAAAAAAAAAAAAAAAAAAAAAAAAAAAAAAAAAAAAAAAAAAAAAKfw6fSBbeomb/tizGBY9jOSZdZopcUx+yurFxKloiV0RyS8pKS3UZIbI1GRF1me3UM94dPpAtvUTN/2xZjtdAGk2mN6kYxEtptFY2lNDNu6ZiTJDEVhqewt1qQUNt19DTiiZ2WltRc6G0nsStwE9rtN9RLifNqqnAsjmza2OmXNjRqt9x2MwpJKS64hKTNCDSolEpRERkZHvsY+ETBc2nwYVpBw68kQ7F5uPDkNV7y2pLq1uIQ22sk7LUpTDySIjMzNpwi60ntu9mOreBU+aZPil/lePx76uvsau5FvlLF80uX4LRxGFqSiqdbc8LYfbdV0MgyTzPLIlJUShLZOuuEZdmWnCbfNpFZQVNdlMqXFjNzYEKHazbK3fjJWljpHWmVokwkuKYU6tDS1JSvmSZkGvqtMdSkX8jFF6e5Mm7iEhUitOpkFKZJaiSk1tcnOkjUpJFuXWaiL7RnNNw3W9nLo8bsNRcPpswyePFkVGMT3phTHylJJcRC3UR1RmHH0rbUhDryD2cSa+Tct6tn+t2AwcLsIuA5xVw7aRplGxAmceYtWWilN5L4W6007MI3jaVCcPZbjm6koWgyTulB/Gul8POqmq+N605rrbHw1huFSHb0yq6c7PZs4LUZhZMm0wplUd0o6lJcJ0lNc/Wg+QkqDWmXhmXQJ5VczF7VqWbUqQllUNznU1GU6mQ4ktutDRx3yWoupPQubmXKrb2nYTmdZjsPL7LEbqJQ2C+jh2j8B1uJIX1+a28pJIWfUfURn6DGz0jVfTHJpsTUfKdRaqsvKzEM+oJFExCmvrfsbV27djLZdQybJx1fKyEEs3CUSkdaSSfMXNiat6E0OFvx2shprgvAcRfZiyU3L1rNOtfiLkw5Rup8CY5UokNsojpJPRkZKc/lNYa8S9CtUq/F0ZPY4dbxOmmIiMV8iuktzX0KjOyfCG2jb85kmmHFGsj6iSZ+gjMumf0y1IjVNpfSdPslarKOUqFaTV1MhLEGQkyJTL7ho5WlkZkRpUZGRn6BtdX66YTgrU94+IheU2knIMnyGulxodkRwzm49YRYqjU8wg0SFSXo6VpRuhBmg+YyJZpwbG9VsQTjmJZpZ6kx2JWL4RkGMz8TeYmLkWc6YdhyOkpLRx3GnjmsrdW46lZdCvqMya3CdZFw3agY1mWn+ESpVPImakVlXa1L8eQ4cdlqcRGhMhamyNtbaVJU4REokpMlEaiMjHR5XopqNi2U5ni7eOTrv5hT5EC8saeG/JhRlMrUhTinejLkbM0KMlLJPUXoIXvJNfdLbHGbqW1fOv5FjOM08DDOWE8RPSZmNQKm3Qpakl0fgxxVONmrYlL5lIM9yUeeyeJbR6ZllhlNJkWIxyo9R8iypp67gX63rGPLdbXHfiRobzDL61IbNlbM00ESeUjPkU4RBqFimkGfZdRT8qg0EyPRV9fNnnayojyIT3grZuOMtvEg0Kd2Seydy6y6zIfXF9FNSMnv8AEqNWMWFM1m8xmFS2VtCfjwZKnVESVpd6MyWjr3M0Erq+wxca7VbBCwWTanq23WtydLH8LRhjcWcpxFkST849mjjky64Rv9J0pqJx3lNJESjLPabWjh+x2wiuRNQKdUKLm2LZBHkqYvJVnIgQUvsuqmqfQbCJCESEbNRUJbJCHCJS9kEoNTsk0a1BxrGa7NH8emzMfsK2NZKtYcR9yHES+pSW2n3jQSEO7p/l3P8AmTsZ7jp52AZ5WQKm1ssJv4kK+NJVUl+tebanmr+UmFmkid336uQz3FtTrXjjtdDpJOYSlVsfSCRixRDbkGymzUpxxLHJy7f7w0K59uTciPm6uqmvawaL1EN1rE9UaGFIZy7Gb6qs5FddWc5ceEiQybtgiSXQdK2UhvdmKSEE0h0kKWomyUGq7Ok2eNZBNxvIsdsMbmVlW/czUXMN6IqPEabNfSKQtPNssyShHV5y1oSXpHEyPT3JMdnNxPBFWDT1SxetSYLa3WlwHW0rJ4z5d0pSauRfMRcq0qSfWQ2Juck0+yOBl2J4XbQZNvL0ylQ0MU0uykVMd+NdR7J1iB8pEUhCFxI0hxSOtJKUokGfMoinepc1tFHgWMycuKksKDTRLE0tnjXNXJsJc9mCroUntzR5kc/4myCJPnGR7EAioAAAAAAAAAAAAAAAAD9PP7FH++X/AE7/ANRH5hj9PP7FH++X/Tv/AFEBo3xJVlldcVWqtVT18mdNl5/fNMRozSnXXVnYP7JQhJGajP8AoRCbQsfv7JmPIrqOwlNS5aa+O4zGWtL0oyIyYQZFspwyMjJBed1l1Cpa/ZFa4hxf6kZZRSDj2VLqTcWEN0v/AGb7No6tCv8AJSSMU+RrXotjGsODowG5kRsHgrvbqXLbgupXVWty080SktmklueAtFAQSkkfMqMtSN+Ytw11nae6mVuXMYZZYPk8XKHSSbFS/WSET1ly7p5WVJ6Q+pJmWxegv8B95Gm2XO6hWmn2H09xktvVzJEdDdbUy/CXiZWZKcKMttL7fo3NK0JUn/iIjIyFB1LscNyGr010yiauU1g9i1dYN2GVvRrIoDZvynH2oqN4py1pQR+noNiW+oi80jUM4y7M9MLnVrXJ6k1mo4kDVRMmXUZCiDbIaiEdwzL8DlJ8EJ9HSNNGZm224nmS2k1bGoyCAak4Ha6bZa7id3IQ9NbhQJzqkpUnl8LhsykoMlERkpKXySrf/iSYxgVPiezPHdQNarnKsVyN2/rpMGpYRZvMOMuSnWK2Mw8tSHCJRH0rTm+5dZ9ZbkZGcsAeeZRJNHMfKZ7mW/Vv/wD6ZjwAAA8qWtRJSpajJBbJIz9Bb79Q8AADypSlqNa1GpSj3MzPczMeAAB5QtbaudtakqL7SPYx4ABya60s6iQqXU2MqE+pl6Op2O8ptZtOtqbdQZpMj5VtrWhRehSVKI9yMyHHJSiSaCUZJMyMy36j29A8AA88yuXk5j5SPfbfq3HgAAeTUpRESlGZJLYtz9BDwAAPK1rcVzOLUo9iLcz3PYuogSpSFEtCjSoj3IyPYyMeAAAAAAeSWskG2S1ElRkZp36jMvR/4mPAAPJOOEhTZLUSFGRqSR9RmXo3L/MDUpRESlGZJLYiM/QXp/8A7jwAAAAA8qUpajWtRqUo9zMz3MzBC1IUS0KNKknuRkexkf8AUeAAFKUpRqUZmZnuZn6TMAAAHsTjhIU0TiiQoyNSSPqMy9G5D1AByZdpZT2IcWfYyZLNcwcaG288paYzJuLcNtsjPZCTcccXylsXMtR+kzMcYAAAAAFP4pPrN6u+vd/+oPiYCn8Un1m9XfXu/wD1B8TAAAAAAAAAAAAAAAAAAAAAAAAAAAAAAAAAAAAAAAAAAAAAAAAFP0i+j/W71EifuejHXaQaYVupkrJlXWYtY1XYrQuZBMluQ1STUyiVHYU2hCVJM1n4Rukt9lKSSTNPNzJ7HSL6P9bvUSJ+56MYhi2bWuI1+TVtbHiONZVTnSTDfQpSm2PCo8nmb2UWy+eK2W58xcpq6tzIyCxab8LVVqZWzstps8uE4qq7TQVNgWNEuQ9JJhp11yUwUrljMtE+0SlJceUfN5qFbGMeqeHx1en+SZve210a8dtbCnfjUFEVs1Efittq6Wc8l9vwSO4pzkbdJLhKNtzq83rxzDdXHMZxGRgV/g2O5fj7lj8rx4VwqY34HNNtLa3WnIj7K/PQhCVpUpSTJCeojIjH2wvWR3AWZ8nHsAxpq8lonsMXfPOKRDYlsqZcaQ0mSUdaUoWokdI0sy5j35tk7Bza3Q1+xbx5wskbb+X8Cuc5SXgpn0Ka9Vkk4x+f5xr+TT8/q5elLzT5ev2v4FBN4ecPyb5v18C0LLLalkzobJk7Jisw691HSEatlrJUh09+rffYe+N8RORY1hrOJs4di82RFx+1xWLcy2ZKp0ersPCDfYRyvpZ6nJT7iFm2ayNRkZmgzQeK1mokuFgE3TmfjtRbVsiYuyhuzPCCfrJa20NuPR1NOoSZqQ22SkupcQfIk+XctwGdax6c6Q4yzgjWB5Nk0ibkNLXzpLcyhQ2haHlvJXII0S3VE5uhBEwlBp23MnN+o8guuEOzjTsOTVXt3Fg5PbyaiUrJscOpmVpx2UyHpC4yX3uZkmTWsvPSv+EojQnqM5yWs94mNhbqceoyvMDeiqqb7kkHMNmO+48zHdQb3g7jaXHN9+hJzZKU8/KWx5M/xQ5Oz8gtYxgmIY5FoMidyhuPBYmOplTXm0tvk+qRIdWttxCSQaCUREnqTtue4ZZY6BaeZDj2nR4PmhHU2Fbk17d5JLqVMSW4NcZLWTkMnlkbqUoWltCHTJZuN7qTufLgtnoziVXnWEVkvVNmJhOd16LWFlEyqU2qLF6d+O4ciKhxfK42/GdQaUuqLqIyUZGOa5xPZCzPxo6PT/DqelxiDa1bFFGZmLhy4VklSZjEhTslbzhLJa/OJxK083mqLlRy9RJ16tn9QsTzksFxHwHCYrUCmxl+G9JqG4qFuudE4266p14lOvuuKNbhqNSzPci2IgnFgwxFnyYsWWmUyy8ttt9KeUnUkoyJZEfoIy69v8Rs9wy6L4vqJpvCs52mlDks2bnKaWwk2GQSIEqJVlEbdcVCabktk++W61EgmZCz6iJtXUQ1hsJZ2E+TPUwywcl5bxtMp5W0cyjPlSX2JLfYi/oMlrdTsnpsNg4XUrYiM1mRFk8Wa0S0y2pqWktpNK+blJJEhKi83fm69/sAVzT/AIS0aj0ysorMwmw6i5vp1NjLx0/ToeSwaCKTPcN1vwNlRutp5iS6ojJwzQSU7nh0HQ1KtHZGq1laX6uR6XGJmpx/w+HCdZNKSRYyyfR4GpwzPo/4bnMRb9RDkT+I6VkKZ0fMtKMHv4T93MyGDCkNz2GauZL6Pwko5R5TauhcU02o2lqWgjT5pJIzI8fxPV17CsWsaPH8IoGLW0rZtNKvzcmnMchSkqS80bfhHgx+YtSCUbJmRbH/ADElRB2TmhkhtuS585Gz8HwJnOdvBT85Dim0+Dfz+kul/n/w/l6x99RK7GJGnmlGRnSQ6R25jWDVtIrIpmp1DE3oku9GpwiW4TZejmSSj9JlvuPWNxE5FGwd/Diw/F3JUnGzxJ69cZkqsF1XTk+hn/f9ARoWlJEsmublSlJmZEMVf1ElzdO4unVpjtROZrJDz9XZveEJm16XloW802aHUtKbWpG5k62s0mpRpNJmZgM/1g0v0poc7xDE9P8AIcpfXe1OMyJTL2PpUtJT62I+p9pLctxbzq1PmvwckpJKldGlaiIlH3F5wlyaq7xRJZNbwKDIo13Mlyr7HjgT6tmpjFKmqdhofdJWzKkG2ROkalK5DJBjBmdeMhj32GZexjOPoyPCSgNRrfo5JvzWITSGozElBvGyaUtNoRzNttrMklurctx3CuJi+iqxKJQae4dS02HOXBxaiKzMXHls2kduPOYkrekredQ402ad+kSsicURKIiQSAy/I9A9PbKHgsnGsyONjLOnc7ML/Ijqj8Lfabu5sVP+x9MafCCM4sboyeJHMnfnMvOOQ6radt6b5BCgQL5N3U3FVEu6mxKOcdUiHIRzINbRqV0biVEtCkcyiJSD2UotjPMH+JvIHbeqfZwDEI1FVYu/hvzeaameAyqp2U7JU08pUg3zWTzvOTiXUq5m0HuZ7mrBdSNRLXUzIWryyrq+sZhwY1XX11chxMWDDjtk20y30i1uGREW5qWtSlKUozMzMBiwAAAAAAAAAAAAAAAAAAAAAAAKfpF9H+t3qJE/c9GJgKfpF9H+t3qJE/c9GAmAAAAAAAAAAAAAAAAAAAAAAAAAAAAAAAAAAAAAAAAAAAAAAAAAAAAACn8On0gW3qJm/wC2LMTyournH5qbKhtptbMQRpTIiPrZcSR+kiUkyMtxQ+HT6QLb1Ezf9sWYmAD2eedkOrffdW464o1rWtRmpSjPczMz9JmY9QAAAAAAAAAAAAAAAAAAAAAB7svvRnUvx3ltOIPdK0KNKiP/AAMgfffkuqfkvLdcWe6lrUalGf8AiZ+kegAAAAAAAAAAAAAAAAAAD9PP7FH++X/Tv/UR+YY/Tz+xR/vl/wBO/wDUQGiXFJ9ZvV317v8A9QfEwFR4oGnHuJ/VplltTjjme3yUISW5qM7B4iIiL0mJtPrrCqlKhWkCRDkIIjUzIaU2tJGW5bpURGW5AOOA+/gE4nFMnDf6RDfTKR0Z7pb5ebnMvsTymR7+jY9x8AAAAAAAAAAAAB9I8eRMkNxYjDj77yybbbbSalrUZ7EREXWZmf2D2mQpldJchWER6LIaPZxl5s0LQe2/Wk+suoB8QHYHjmQlZrpDorH5RbaU+uJ4KvpktpaN1SzRtzEkmyNZntsSS5vR1jrwAAAAAe6WH1tLfQytTTRkS1kkzSkz32Iz+zfY9v8AkDcd95Lq2WXHEso6R00pMyQnck8yv6FupJbn9pkX2gPQAAAAAAAAAAAAAAAAAAAAAAAAAAAAAAAAAAAAU/ik+s3q7693/wCoPiYCn8Un1m9XfXu//UHxMAAAAAAAAAAAAAAAAAAAAAAAAAAAAAAAAAAAAAAAAAAAAAAAAWLh8qK++xrWWptcpq8civ4JH6Szs25TkZjlySlUXOmKy88fMZEkuVtXWot9k7qLrPFFp/2pNMPZ+T90BpF9H+t3qJE/c9GJgAp/ii0/7UmmHs/J+6A8UWn/AGpNMPZ+T90CYAAp/ii0/wC1Jph7PyfugPFFp/2pNMPZ+T90CYAAp/ii0/7UmmHs/J+6A8UWn/ak0w9n5P3QJgACn+KLT/tSaYez8n7oDxRaf9qTTD2fk/dAmAAKf4otP+1Jph7PyfugPFFp/wBqTTD2fk/dAmAAKf4otP8AtSaYez8n7oDxRaf9qTTD2fk/dAmAAKf4otP+1Jph7PyfugPFFp/2pNMPZ+T90CYAAp/ii0/7UmmHs/J+6A8UWn/ak0w9n5P3QJgACn+KLT/tSaYez8n7oDxRaf8Aak0w9n5P3QJgACn+KLT/ALUmmHs/J+6A8UWn/ak0w9n5P3QJgACn+KLT/tSaYez8n7oDxRaf9qTTD2fk/dAmAAKf4otP+1Jph7PyfugPFFp/2pNMPZ+T90CYAAp/ii0/7UmmHs/J+6A8UWn/AGpNMPZ+T90CYAAp/ii0/wC1Jph7PyfugPFFp/2pNMPZ+T90CYAAp/ii0/7UmmHs/J+6A8UWn/ak0w9n5P3QJgACn+KLT/tSaYez8n7oDxRaf9qTTD2fk/dAmAAKf4otP+1Jph7PyfugZjieC4vjGletM+k1nw7Ln3MLhMqhU0W4aebQeS0pm6o5sCO3yEaSSZEs1brTsky5jLX8U/SL6P8AW71EifuejATAAAAAAAAAAAAAAAAAAAAAAAAAAAAAAAAAAAAAAAAAAAAAAAAAAAAABT+HT6QLb1Ezf9sWYmAp/Dp9IFt6iZv+2LMTAAAAAAAAAAAAAAAAAAAAAAAAAAAAAAAAAAAAAAAAAAAAAB+nn9ij/fL/AKd/6iPzDH6ef2KP98v+nf8AqIDRTifddY4oNWn2HVtuN57fLQtCjJSVFYvGRkZegyHY8QtktzPcNv7WOVuh3CMTkupluumibyVcZLiVrQpKzI1oWhRpUSiMlbGRluXWcUn1m9XfXu//AFB8YlF1I1DhQqithZ7kUeJj8g5dRHatH0N175+l2OklbNLP/tI2MBs1j1bSxOJLNG/m9MtK3xTO2J1J2Ml5TiVYvHkHGS+6tb5NEZ8ifPNSWyJKT81I4dJpDo1MesNS7nH4VVWR9PK7LTxh+RYvw4sqRZeAqU4bKzmqjEkkvkkneYvCWuZzlI94NN1z1ssraDfWOsWbyrOsQ63Cmv5DLW/GQ4SScS24bnMglEhBKJJlvyJ39BDhI1X1QbzFeoaNRclTlLieRd0Vq+U1SOUkcpvc3OaeQiTy77cpbbbdQCuUWLaBy871MvYNDKv8SxzCmcirK/wiXESiwVJrm1Nc69nlR+kkvII1eebSiPfn2UWQcPum+nGq99SLynTfFailz/LPm3WMMz7x2ewttqKcgoHRuLaQTZSUOm5NU4X8Qi2NKFGWutrneb3lpa3d1mN3PsL1hMW0lyZ7rj05lJtmlp9alGbiCNloySozIujR1eaW3KxXVDUrBYMiswnULJcfiSnkSH2Ku1fituOo25HFJbURGoti2V6S2IBScaqdL8L0Zm5zlenbOX3qczex+O3MspcWImKiKlxa1JjONrNwlfybKIvPM1EoiJI6/XojPEdEjJJ7eLlH63bCWO3Vy/XHTvW01yAcpU04qpCzZOQpJJU9yGfLzmkiI1bbmRbbjKa7W/Wmoxb5i1Or2awsb8HdifI8fIJbcHoHObpGugS4TfIrnVzJ5dj5j39JgLNn+kumlXhub0FVhTkGwwPDsZydjKznyFquX7A4BOsuNKWbCWlFPcUz0SErIo3nKVurbotV8FxOj1Or9BMH0rjOz49hUw2Mgfs5ZSrtchDfnL3dOM2w8p1Jtm20lSU8u61HuJJY6k6h2+JwsDtc7yCZjVcolw6eRZPOQo5lvsaGVKNCduZW2xdXMrb0mPpO1R1KtMdrsQstQcjlUdOttyvrXrR9caIpvfozabNXKg08yuXlIuXmVttuYCxa36f4Tj2mOPao4FEqKmzZyqfj0lzG3bYoK3I7LLqVtqsjN/pUKWolLQaUHunZKTSe/wAdSY1TecXmON5c501PbycRVPdePmS9DegwDccMz/mSpCjPffrIxIct1O1Iz5tprOtQMjyJthXO0i1tH5aUK225kk4oyI9jMty6+sxwbbMMtv6qqob3KbexrKJC26uFLnOvMQEL5edLDalGlolciNySRb8pb+ggFMorPLXuL2FZPIW5kT+oaOlaVufPIXY8q2lF9qTMzQaTLYyMy226hx8Ox/EJmu2QUjGm9vn1Aw9dFBqah5xp9bLaHjYfJTfncjRJS6ovQaUHv1DCj1LzY84d1JO7P5yvrcdcsfB2ukN1xs21u7cvKTpko1dIRc5LPnI+fzh1eP5NkeJWRXGK5BZU08mnGClV8tyO8TbiDQ4jnbMlcqkqNJlvsZGZH1GAsGhGkOJ6uY+z4Q05GlYzkseXk8pDqzP5sOMLckvknflT4N4G55xbGZy0EZnsW2a6XaW6S5ZAwSHO05XI8a9xfx/lRNnKI8XjxtiZQySXCQ4bSVE86qQlzmbNJFynuoa00+SZFjyLBugvrGsTbQ1109MOUtkpcRZka2HeQy6RtRpSZoVukzSW5dRDsqLUnUPGMessSxvO8gqqS43KxrYVk8xFl7p5T6VpCiSvdPmnuR7l1H1AM0xVqrncOmfOFVeDT6q4ozOYxOlp8LQ8qUXI+x0vg6yR0e6FdGSk86/OPcV9GL4ZiGk+qmOY9gqm5kfSfGLaTlJTJC/lFdjYU0t1tTalGylCVr5G+RCFEUdznNRnsnXel1h1cxvHjxHHdU8vqqI0rQdXCvJTETlWZmsuhQskbKNSjPq6zUe/pHxd1T1NfxJGAvaiZMvGW2ugTTKtnzgk10iXeToObk5ekQlfLttzJJXp6wGLgAAAAAAAAAAAAAAAAAAAAAAAAAAAAAAAAAAACn8Un1m9XfXu/wD1B8TAU/ik+s3q7693/wCoPiYAAAAAAAAAAAAAAAAAAAAAAAAAAAAAAAAAAAAAAAAAAAAAAAAp+kX0f63eokT9z0YmAp+kX0f63eokT9z0YmAAA7DHKGyyrIavF6ZpLk+4msQIqFrJCVPOrJCCNR9REalF1n6B9vmzPS/eRX5MCO9QNqcktvzG21Oml9DJoZJRkby+ZwlciN1ciVr25UKMg6kAHOKoeOjVfeFweiTLKJ0HhTfhJqNBq5yZ35+j2Lbn25d9i33MBwQAAAAHc4bh2R6gZRW4ZiNac+4t3yjQ4/SoaJaz6+tbikoQRERmalKJJERmZkRAOmAd83gmXOZDcYoikeO2oG5ztlF5kkqMiGha5Jq69v4aW1mexn/Ke245OHae3ecwL2bRyq0l49Xu2kmNIlJafdjNIUt1bSD/AJ+VKDMyL+pf1AYwADsSxy7PHFZaVev5ITNKuOVuXKUk2zcJvbfffkIz9GwDrgAd5a4dbUuK0WXWC47UbI1yvAGDUfTrZjrS2p807bE0pw3G0q33NTDpbFy7mHRgMlzXTbNtO2qF7MqJdajJ6hi9qjU8254RCe36NzzFK5DMi35F8qyI0maSJRGfwlYTd1WYO4PkRRqSzjvnGklYPpbajrItz6RZbkRf49fpAdCA7rNcQutP8uuMIyNppu0o5jsCYhpwnEJdbUaVElRdSi3L0kONj+OXeU2C6rH69c2WiJLnKaQZEZMRo7kh9fWZFshlpxZ/bsk9tz6gHXAAAAAO9fw62ZwmJnyFx3quVZPVK+iUZuRpLbaHCS6ky2STiFmaDIz5ujd+1BgOiAAAAAAABzr2oeoLqfRyJcGU7XyHIy34MpuTGdUhRpNTTzZmhxB7bktJmRlsZHsOXl2JXeEXR4/kDDbUwokObyocJZdFJjNyGT3Lq3Nt5BmX2GZkfoAdMAAAAAAAp+kX0f63eokT9z0YmAp+kX0f63eokT9z0YCYAAAAAAAAAAAAAAAAAAAAAAAAAAAAAAAAAAAAAAAAAAAAAAAAAAAAAOzxnKcnwq7jZNhuR2lDcQ+fwawrJjkWSzzoUhfI62ZKTzIUpJ7H1koyPqMxnnlScTfaL1P/ADfYfFEwABT/ACpOJvtF6n/m+w+KHlScTfaL1P8AzfYfFEwABT/Kk4m+0Xqf+b7D4oeVJxN9ovU/832HxRMAAU/ypOJvtF6n/m+w+KHlScTfaL1P/N9h8UTAAFP8qTib7Rep/wCb7D4oeVJxN9ovU/8AN9h8UTAAFP8AKk4m+0Xqf+b7D4oeVJxN9ovU/wDN9h8UTAAFP8qTib7Rep/5vsPih5UnE32i9T/zfYfFEwABT/Kk4m+0Xqf+b7D4oeVJxN9ovU/832HxRMAAU/ypOJvtF6n/AJvsPih5UnE32i9T/wA32HxRMAAU/wAqTib7Rep/5vsPih5UnE32i9T/AM32HxRMAAU/ypOJvtF6n/m+w+KHlScTfaL1P/N9h8UTAAFP8qTib7Rep/5vsPih5UnE32i9T/zfYfFEwABT/Kk4m+0Xqf8Am+w+KHlScTfaL1P/ADfYfFEwABT/ACpOJvtF6n/m+w+KHlScTfaL1P8AzfYfFEwABT/Kk4m+0Xqf+b7D4oeVJxN9ovU/832HxRMAAXbVK14ZNS9Tcu1G8ZWp9d86r6wu/A/mBXveDeEyFvdF0ny0nn5efl5uVO+2+xegYx83uGT8XdT/AHc1/fYmAAKf83uGT8XdT/dzX99h83uGT8XdT/dzX99iYAAp/wA3uGT8XdT/AHc1/fYfN7hk/F3U/wB3Nf32JgACn/N7hk/F3U/3c1/fYfN7hk/F3U/3c1/fYmAAKf8AN7hk/F3U/wB3Nf32Hze4ZPxd1P8AdzX99iYAAp/ze4ZPxd1P93Nf32Hze4ZPxd1P93Nf32JgACn/ADe4ZPxd1P8AdzX99h83uGT8XdT/AHc1/fYmAAKf83uGT8XdT/dzX99h83uGT8XdT/dzX99iYAAp/wA3uGT8XdT/AHc1/fYfN7hk/F3U/wB3Nf32JgACn/N7hk/F3U/3c1/fYfN7hk/F3U/3c1/fYmAAKf8AN7hk/F3U/wB3Nf32Hze4ZPxd1P8AdzX99iYAAp/ze4ZPxd1P93Nf32Hze4ZPxd1P93Nf32JgACn/ADe4ZPxd1P8AdzX99h83uGT8XdT/AHc1/fYmAAKf83uGT8XdT/dzX99h83uGT8XdT/dzX99iYAAp/wA3uGT8XdT/AHc1/fYfN7hk/F3U/wB3Nf32JgACn/N7hk/F3U/3c1/fYfN7hk/F3U/3c1/fYmAAKf8AN7hk/F3U/wB3Nf32Hze4ZPxd1P8AdzX99iYAAp/ze4ZPxd1P93Nf32Hze4ZPxd1P93Nf32JgACn/ADe4ZPxd1P8AdzX99h83uGT8XdT/AHc1/fYmAAKf83uGT8XdT/dzX99h83uGT8XdT/dzX99iYAAzHWfMqzUXWHOtQaRiUxXZPktncxGpSUpeQzJlOOoS4SVKSSySsiMiUZb77GfpGHAAAAAAAAAAAAAAAAAAAAAAAAAAAAAAAAAAAAAAAAAAAAAAAAAKfpF9H+t3qJE/c9GMv4WrNdDDye7qtQpVFbsya1pFezmMbG0SoavCDfkOyHkmchtk0tEcZvz19OR7KJBpPENIvo/1u9RIn7noxMAG+2HZdi9JrNeu6SakYTjVGxrU7Z5E67dQoUOwxY3Gjjk0Ti0lJjIMpm7TXN1usmSS2Soo1py1b3mM66VDGd4zGpMjhPM1VfZ5jWwG5dmm6rnidQxJkIPfwVD+z3LymklpJRn5o1uABsYu6yYuHTHabSjUGjpa+FW3LOfVJZDDgSrCYqTINK3GXHUrntrhnGbaJtLhEtBkWyjIz4KoF1Z8KkKsuszxyYiqyZNtCqXcyrTmRqw4rnSk1EVI6VBm6rfoSQSzUrfkMQEAG8mo+bY9JuZEjIdQsStcWe1Ox+dprFh20V/5FoG1vm+RtIWaoDCWVREONPEjmdQauXdClDD7DUCn1Ousdk5jqjEr5VVqlbIrrCPOjsvVtOtplbKY61boYjdK2SWnDSbTSlLVttzb6lgA3ZvcuxFzWLhtyTK8tpn7isyQ05PLnZjFvn4cRuwjuMeH2LezayJtbiiUZ8qSNSdy5FJTLtMNXUZHZZhqJrXnc5aKLFplNj0KI4ycphyyUURTUCO4tCUtNRnZS+VGyW9kmREZlvruADb+PqtArOIW/wAq031Wepq3VXCJs1bqrpEEm756pktpTPUh3o2H/DycWk3FESPCEL3JKucSTSu0mNapZfW53lkBy5yHHb+nVazbth+M9YPw3Utm5O6RTJpccIkdMbho3WRmok7qKNgA3H0Ly2DgmlUDHMXbxeZkFblFmjM4EvPa6oi2UXlYRHJ5xxRt2UE0pkI5WnFpSfMoi3dQs5xjGpWb2vDPkGn+Oaoyar5LvDlrpZWUpgpdpXIb5PMMIedQUhPP1KYbJSlm4kyQrcxr+ADcSptcXjcON9jVxqTHt6mRgLUisi2WZw3W2rvp2HFRYlMRE7Fda2dSb6vOcJKjIzS6SRK8kpq7UWs0DQdzDqaWXWfM+fPlvoYjVktm3kuyDccWZJQkmJ8aQalHt/GP+gh4ANqtd9W9P87xeTm+k+YXVTf4dm70ipblvNQpbVVOjkhtEI2nTcW1GOvaLfqUnwrc/wCbqwXi3y7I861MkZXN1ARk+O2jjkvH0pyFqwOGwtDZrbUwl1S4at9iNDiUGZoPYjItxDwAbi01/h0Lih1C1GVkGNyfnrVWllg05vJ4UU48999laCdkGpXybI6A5LaVPk2aVqIyMupQ66n1lyOn4kF2EjJ42HSbzELGnspcDNGZzEyxXUTWIMmbOjrJlTxPuRjUtR7oUklqMlcxjUsAG0+gV3kNBeZfkGRawvJyj5bq27VKNRYUBibCJD6npj8w1OlZttnyI8HYWo1dJ1kvYkiH65pxtGtuoKcNcgOY+WVWxVSq9aFxVQ/C3ehNlSPNNvo+XlNPUadtuoYQADcThrtcXqtNoNfkOpMc8et6y/bvqqzzOHCr4UhTD6IzJ1Cy6WW84ZMrTI3NKDWnY0m0ZiIQXm6bheuo9gZdLleb1jlW2r08lbCmlLdT/TrsoqN/Qe6i6zSe0qABT9QrC/k6KaTQLHNsVtKyG1eFXU9atB2dOS53M6VgRFzEbq/4jXMZ7t+jYhheDZZPwPM6LNqtttyXQ2MexZbcLdDimnEr5FF9qVcuxkfUZGZDpAAbgNW+jOnuren+C4rlmOzcXTPvMrTaOPNvRYc+e061TNSl9aUnFQxAW4lXU2t14lbbGYxHVi3zW1ttL2U6lU0vVuvrZ53GQxsugp6JPhLqojb9qT5MKeSzzlv0xqJK2299yJI1tABuHdynKfX/AF4t9PdQMPrsiyo5s7CryJltYmOcddw048hqWl/oor7kZLhpJxba+jJxG27hEcd4uLutyLXu8tqq/qLphyvpW1Tql1DkN51uqiNu9EbfmkknErTyl/KZGWxGWwjwAAAAAAAACn6RfR/rd6iRP3PRiYCn6RfR/rd6iRP3PRgJgAAAAAAAAAAAAAAAAAAAAAAAAAAAAAAAAAAAAAAAAAAAAAAAAAAAAAAAAAAAAAAAAAAAAAAAAAAAAAAAAAAAAAAAAAAAAAAAAAAAAAAAAAAAAAAAAAAAAAAAAAAAAAAAAAAAAAAAAAAAAAAAAAAAAAAAAAAAAAAAAAAAAAAAAAAAAAAAAAAAAAAAAAAAAAAAAAAAAAAAAAAAAAAAAAAAAAAAAAAACn6RfR/rd6iRP3PRiYCn6RfR/rd6iRP3PRj66C0GB2hZ/e6g447eQ8VxFy6iQ25jkYnJabCEy2S1tmSuQyfWlRF18qjNJkokqIJWA2c03xjh+sNPJesmoGKVFfCtMu+b5U5SLh2PVxm4jDq1x1MOLe6Z1TrnRnIW4guhUXKvr27TSPR3SO1dxKgmYHLzCPmdnkqTvTlS4j9cxXNmbDaWm1pbSo0pS86TiVK5Hkkk0GW4DVJLD62lvoZWppoyJaySZpSZ77EZ/Zvse3/Iegq+KtVc7h0z5wqrwafVXFGZzGJ0tPhaHlSi5H2Ol8HWSOj3QroyUnnX5x7jubLEtPrDQ0sjwOjx2fZ4/Bgy8pdnSrNm7hvOyktc6GjWUF2Gs3WUJ6MjeLnJSuX0gIeAunElkGN2NHpwxTaZY7Qrl4fXzSnV709TnITkltUcunkuNqQS0nuo0m5zI2NexGQ77P8AC9N166w9DdNtJattUO1im9Y2l1Yc8tHg3SyWXuRw0txyNRmRtN9NytdSlGrYBraA2ve0V0mvtR+HyXW00BFBqZenWW0Socs2oEhpme0wtyMc5Ry0EpLqkmZrPrRunl32L10HzvDGq/V24wz5X0lg1mFxWPl3HpEudacir+rSl5ZOSWyN1ZKNCyaW0jlWrZHVsoNUgG5+U4DpjbZxqfqpnkCql1dHX4qdQcrw3wK5YmxOU7l5Nf0bxG94MS1IQaEoelGlZmaDJU9wfENBbzULKsaxyPU2sm0tq+PhMXLV20WvfZfS4b0Y3YZoeTJJxcZDK3uVpSSWpe25ANchylVNomuTcKrZRQFr6JMo2VdCa+vzSXty79R9W/2DYHSTRDGMvsdIq+2xp+TIyHUq5xzI2mJTh/7FGbq3EtboV5nKmRLVzp2My3Pc+UtsQxGfPlcMepNUubIejw8kxiS3GNxSkMpNFmlbhJ9CSNS2yMyL0qSR+kgEjAXbMsixpzhZ0+Zj6XY21Meur+vXatvWByGnmWatSnuuSbZuuEvdSVINsi26NDe5755kOgGAy8GsYsusx7G8kxPJ8foLeTSyLZ5uOU5TrbyJjk01MuPINBL5opJQXKstlkaTAaoeDv8AQeFdC50JL6PpOU+Xm235d/Rvt17D0G7bOnGn2c1VBplE09l4VRv63njEttmc+87MaZjKR/PIUvllKJXIrl2b5lINKE9ZHHsoxTTW0p9LdRGMGRg0TI8rsaK3qG5smQwcSG7BPwpCpK1ukZplutL3Vy87Bmkk9ZEENn11hVSPA7SBIhvm2290UhpTa+jcQlxteyiI+VSFJUk/QaVEZdRkOONvNO7+0p9e+Ja7ucyvMNmxKO6Q9bUjSlzK4038BHKwhLrJ7EWzZJJxGyOouotj7PJ8D01yLOc51OzdqBaVFBiOMzKqXMKYmNkSJDbUZVzKbg8j6TUptRONoUk0Pucri1GlZrDTABsVimM8PlpqTlVNRoqZrdg7WIxBjKTt49UpyQ3zSI63YnJJSsnFJQwt0yQpKVKcPrIedN9D8fyO309prrFnV2FrrE/iF9Fjy3FkivR4AZscyVdRF0kz+KR8xklR83m9Qa/FU2h1x3BVsrwAl9EcroVdDz/9nn25d/8ADccUWbEpMstCtYaBqXIXDhTqSQ1E6VSkNJKW6hThJ32LrU2k1f1Ukj9JDsLrIsZPhKxNlvS7Gzmqy6/gLsyfsPCGnEwKhSZP/wA56PpHN1lyqQbX8LzG0nzmoISPco75sKlEy4bKVk2pzlPlJRkZkkz9G5kRnt/gY2jyHQzBl6TZA5Nqscx/KcMcx1FhKqZFs90Ph60IWieuUZxlucrnSf7KSUpNCiI1l6M4naZae5DWPaO1mDycJpT1+psKlzDnPPOS2G2ZzPTLN9Skpk8rhqVyElr+I3sgiIzMNIQFq1hxfCH9M6TUjGdPDwSW9lNzjT9SU2TJRIaiNRXEP7yVrcS6k5Cm3dj6M1Ek0pR5yRjHD1ieM51rXh+I5lGekUdpZIYntsuGhxTOxmrlUkyMj6urrAYJArrC0eVGrIEiW8hl2QpthpTiktNIU44sySRmSUISpSj9BJSZnsRGOOLXpHkdFkHEnpgrA9PIONRzyOtr3YTU6TLTOZclJQ54Qp9a9zW0tSHOQkNmkz2QkjMY/ptSYvY6g5HAVpzc55VR622chQ6x5xp5gkIUbM1Zt9ZttERLUR9RkXWAmgAL7pLpVgmZ4NU6kWdS45WYVJtlZ00mS4kpLDcXwqtLmJW7RyXEvRC5OXrQlW+5mYCBD3Nh8mCkmyvoTWbZOcp8pqItzLf0b7GXV/iNmce0l00l4TQY5LwlyRZZFppe545l/h8hKoMuEc5TcZDRL6A2P9hbYc50KcNx/clJ2SRz21j1Nhw241YR69NZIazKbWyXG50tbEnaHGX4Q4w46tpDvn8pqaQjdKEkZHsAlCY76mFyUsuGy2pKFuEk+VKlEZpIz9BGfKrYvt2P+gpmkX0f63eokT9z0YsutON4dh+i+reGYdgDtDHxXVCix/5SVMffO5RGiXCUSHCdWpKXVbm4fRcrfI+0RJ6uZUa0i+j/AFu9RIn7nowEwAAAAAAAAAAAAAAAAAAAAAAAAAAAAAAAAAAAAAAAAAAAAAAAAAAAAAAAAAAAAAAAAAAAAAAAAAAAAAAAAAAAAAAAAAAAAAAAAAAAAAAAAAAAAAAAAAAAAAAAAAAAAAAAAAAAAAAAAAAAAAAAAAAAAAAAAAAAAAAAAAAAAAAAAAAAAAAAAAAAAAAAAAAAAAAAAAAAAAAAAAAAAAAAAAAAAAAAAAAABT9Ivo/1u9RIn7noxOoNta1jU2PW2cuI1Yx/BJiGHlNpksc6HOicIjLnRzttq5T3LmQk/SRCi6RfR/rd6iRP3PRiYAMkw3UvUXTpctzAM7yDG1TkpRKOpsnonTkk908/RqLm5TMzLf0H1lsMy054hco00xq4qKX5SdsLd6S85JcvZiYqnHmei6Z2GhZNPPtmaltuL32WZGol8qSKUgAy6l1h1cxvHjxHHdU8vqqI0rQdXCvJTETlWZmsuhQskbKNSjPq6zUe/pHFs9S9RbrGImE3GeZDOx6ASExaqRZvORGSRuSCQypRoSSdz5SIurc9ttxjYAO4kZnmEvGI2ESsruHsdhyDlx6hyc6qEy+fNu6hg1dGlfnr84i385X9THzPKsoVkKMuVklod628iSizOY54Wl5G3I4T2/OSi2LZW+5bEOrABlNvqvqjkF3X5Le6j5RYW1S+UqvnSbeQ7IhvFybOMuKWam1fw2+tJkfmJ/7JbdDCuLetiT4FdazIsW1ZTGnssvqQ3LZS4h1LbqSPZxJONtrJKtyJSEq9JEY4gAMnodUdS8Xmw7LG9Qskq5VdBVWRHolo+0tiGpanFRkGlRcrRrWtRtl5pqUo9tzMcqt1m1epplvY1OqeWw5d+4T1rIYupKHZzhEZEt5RL3cURKUXMozPZRl6DMYcADJcW1O1JwaHIrsK1ByTH4st5uS+zV2r8VDrrZ7ocUltREakmRGRn1lt1Dg43mGW4dIkS8Ryi3o35bC4sh2tnOxlvMq/mbWbaiNSD+1J9RjqAAdxX5nmFRQWGKVWV3MKktlJVPrY851uLLMttjdaSokOGXKW3MR+gv6DsbzVXU/JqVjG8j1Gye0qIyG2mYE22kPR20N7chE2tZpIk7Ft1dWxbeghiwAMryTVrVTMUQm8t1Kym6TWuNuw02FxIkFGcbIyQtslrPkUkjPYy2Mtz/qOHmWoGd6iWDVtn+aXmSTWGiYakW1g7Lcbb3M+RKnFGZFuZnsX2mZ+kzHQAA7+1z7Mrq0tLmfkUzwy7iNwLN1hfQeHR0E1sh8m+UnSM2GlK5iM1LQS1br84fah1M1HxaXXzsaz7IquRUxXYMByHZvMqixnFqccYbNKi5G1rWtSkFslSlKMyMzMY0ADMq7WjWCotbe9q9VMuiWV+barWYxdSUPzlNkZNqeWS+Zw0kpRJNRmZEoyLbcxwsW1N1IwduWzheoGSUCJ7rb8pNZavxSfcbVzIWvo1FzKSfWRn1l9gxoAHcY5meYYdZO3WI5XcUdg+0tl2XWznYzy21/zoUttRKNKvtIz2P7QqszzCiprHHaTK7ivqbhJIsYEWc61HmJL0E82lRJcL/4iMdOADKLbVTU6+x5nErvUbJ7CjjMojM1kq2kOxUNINJoQTSlmgkpNtsyLbYuRO38pbe2Rasao5fBiVeV6kZRcw4CmVxY8+3kSGmFNJUlpSErWZJNCVrJJkW5EpRF6TGKgAyHMtRM/1FlRp2f5vfZLIhtdBHdtrF6Wtlvfc0oNxRmkjPrMi9JmZn1jqKq2taKxYt6Szl18+KrnYlRHlMvNK/qlaTJST/xIxxQAdnjeTXeI2hXeOzjhzkx5EZL5NoWpCH2VsucvMR8quRxZEstlJMyUkyURGXihybI8Vluz8YyCyp5MiO7DdegS3I7jjDqeVxpSkGRmhSTMlJPqMuoyMdaAAOxgZHkNXU2dDWX1jErLpLSbKExKW2xNJpfO0TzaTJLhIX5yeYj5T6y2MdcADI4upOocLD39PYed5Axi8pw3X6VuyeTBdWZkozUwSuQzM0pM9y6zSk/SRDlvaw6uSMWLBn9U8vcxxLCYpU67yUcEmUkRJb6A19HyERERJ5dtiIYiADKMh1T1Ny2kjY1lOomTXFRDJko9fPtn34zXQpUhrlbWo0lyJWtKdi80lGRbEYyfSL6P9bvUSJ+56MTAU/SL6P8AW71EifuejATAAAAAAAAAAAAAAAAAAAAAAAAAAAAAAAAAAAAAAAAAAAAAAAAAAAAAAAAAAAAAAAAAAAAAAAAAAAAAAAAAAAAAAAAAAAAAAAAAAAAAAAAAAAAAAAAAAAAAAAAAAAAAAAAAAAAAAAAAAAAAAAAAAAAAAAAAAAAAAAAAAAAAAAAAAAAAAAAAAAAAAAAAAAAAAAAAAAAAAAAAAAAAAAAAAAAAAAAAAAAFP0i+j/W71EifuejHH0JxnE80yyfi2VVEiUmRRXE2JIYlmyqK/ErZMpCtiIyWRqYSkyPbqMxyNIvo/wBbvUSJ+56MYzpjnK9OM1hZYVYmxaZZlRJMRTpteERpMdyM+2SyI+RRtPLIlbHsZkex7bAOx0swOJnB5Kt+bXqepMfsrVmvflvxn5PQRHnjcaWiO62roujJam3FN9IWyUqIzM0+tJpRMtMAXqPaZdQUFW5Ml11eiyOUbtlLjMtPOss9Aw4hCiS+zsbym0ma9iUex7d5pvqXpbp/kGR2y9OcqsItvWWFNCjllkdlyLEmRHIz3SOfJ6iedJLpqSpKG0kZFuhQ52nWuOPaaUmSVdFj2WuovEz4ya2TlDa6d6O+yppjw6H4GRSnWebmJxKmuZSUmSW9tjDhno5ixaExNWFaq0TVnItpUA6lxmfzH0UZp0mEmmKaPCDNzrM3Ca2Ujz9+Yi6xvRW1nac2Go1Dl+O3LNLEYnW9ZDVLKZXMOuttJU4bjCGFmTjzSVJadcUnnIzIiIzLiVOoFIjS2bppkmNTpyU2blzUzYdmiKcSW4wllfTIUw507Rk20fIlTat09Sy3MUiw4pokzS+2wFvD7pMi5xKuxRfPkqlVUJERyKvwiLAJgibceOJzO7uKM1urURp5jSYYPmGh1xg2M1d9fZliyZ13WV9zW0TEl92xkw5jba23CSlno0mXSbGhbiVmaFGlKkkSjyvXHQPEtN8hxeqo8z8GgzW5VNfWd0a3Y8LIa9zo7BlPgrK3OhI1sGgiQtRE6RKMyLmGNFrJAkaq4PqPbYYU2LhsLH4i6lc/ZM75LjMMlzOdGfIl02CUaeU9iUadz/mH2zziGy7VLAHsQ1BYYtLBGQFfQbVpliKcY3GVty2lNNNJJ3pjKMrnNRGRxyLzubzQ++rOmmF6Ma5WuDIyGFmtRUXc2tdjR3ZUaS0lp5TSW5Di2G0k6WxGZs86N0mRK2Mci+0Cl2+vepemuDyWINHg1xbpfsLRxxTUGuizjjNuOmy2txxRqUygibbUpSllsn07Ytq9qJTamZzO1ErcbnUtxeS3rO4J2zRLYdnOr51uR0Ew2plBqNR8ilOmW/8ANsWwoEXiaqompGY55Dw29gNakQpDWVx4OTEw+ct6YiYqTXyExt4hE80gybWl/wA01pNRkrqDi4nw0tSM8yXB891Do6FdNjMrIoUkkzHGrFkq9yWy+0aIyz6EkoQbhLSh0iUaUoNxKkliWDaPN5/kUvGafU7EGJSJaIdeqSViSbVazMkmxyRFKbR1FuuQllJcxbmXXtz4OslbV6mycyap8jtaedTTaGXDu8i8LsHosuE7FeMpvQJJCy6ZS0fwTSkySRkst+bvdJuIXHdKGLGurMPyU69y/jX0JuHlZQnniYSom4lg63F/2uPurmNKEsnvzbbc3mhikLRK9LH7bI8pyWhxWNVW8qgJFqqSpcqyjoSt2M34My6lKiJaPOdNtBmotlenb41WI0zGiV9qJaRjkT5F9Dx6oLpFJSwfROSZT+xGRKUSUMNElW6dn1ntzJSZZxinEpXYxe5tlSMbyVU7MLSynPVjeSoTSSGZRKNDE6EqKrwsmlLWolc7fNuWxIMtzntTm9e3pPkGm1vHkqVJtYN7UPspSaWpTSXGXm3N1EZNuMvGrmIlHzsNltspRkHKexGmnaGR9Qa+MbFnUZMdFaKJxSkyW5MZT8RfKZ7IUk40tJ7bEouTq3IzV1GUaf2GKYxiuUy7ulmMZbEflx40KZ0smIlp42jTJRsXRLMy5klue6TIxzZWb17ekEDTarjySkP3z17bvupSTa1IYJiI21sozMkJXJUo1EW5vERFsndXCyjI8QuMYxWox/A26S0poj7NzaJsFvncvLeNbbptKSRMciDJHKkzI9t/SA5WjOHVmomsGC6f3b8piuyfJaymluxVJS8hmTKbaWps1JUklklZmRmky323I/QOh+SYi8lOkctY9fG8NOMc2YThtMI5+XpHOiQpZkRdZ8iFH/Qj9A7TS3NfFrqbiOo3yZ8o/NW9gXfgfTdD4T4NIQ90XScquTm5OXm5Vbb77H6B3GTZFola3ESwo9Oc3gR1ynHrRmVmUSUuQ2rcyQwtNY2TCiUe/MpLpGXVyl6QHb3eiFnK1kttMqJytrkVUFVjIlPTnpUWPEahJkuyDcTHS8tPJuokpY5/OJJJMy3P66W6KYrnWolxhdjq7jjMOtpLO0j2UVuepqccerkTCNojic5IQbJdKTqG18pLJBLXsk+bkutuBXurjGqlXiGdY4+TCEunV5q03MaebYbZZdjSUwE9Fsls+ZJpXzcx7KQOJO1+Kdrg/q87iZqYmVjtNMgLnJ8IlxnqtVdIddkpaSSpLrbjjiniaIjdWauT7AGN0ejWZZbYWLeGJh3VNVOk1KyQnVQadrctyNyVNSylrct9ic5FHsexGM90q4esezKvzj5byk5MytM6fFn6V5K4lndeBy5iWzU43zONGiEprdJJPpJDJ83KfXgtHq5e4PMsYGALkMYpYPk8vHb849xEe2Tykb7bjCGXHCLcidSyhaSPzTIy3Gd4xxa5RgMPHYenGKU2MtVWRyMmsI8ZpEhibIcNgkobKQhxyOhDcckESXFH/EWZGW5EQY9Q6OYtcaGWWq0vVWirbKFdRq1NZIZnmaScYluE0s24q09M54MlTZpWbZJNXOpCtiHAdxnE5fD+WbxaiRGv6/KGKWRJ8LNbUpl2NIe36Iy2QpJtIT1H1kR/1HtH1PxE8ezXDJ+BzvkDI7xq/qY8K5Qw9UyGUS22G1OKjrTIaJuYZKTyNqUbaTSpG5kfW41n9PA05yDTfJscmWcSzmsW9dIh2SYjkGwZYfZQtZKZdJ5kyf3W2XIo+jTyuI3PcMjynhoznDsWXk95bUja4LcGRcVyFSVSqePLNBMvSP4PRGndxolJZccWhTiUrSlR7Dxq3otjGns7FodHqvj1wvIKyqmOpJE5s4/hTCXFSDU7FbQUYjPq6zdJJlzII99ux1X4h2dV6KQu0hZlGyGxjw2J5Jyw10bi2CbJTyK44/MlTnRko0m+aUrNSiL0JT1fjpo1XeneZSMDclZFgqqph9UizSuts4cAy6JpcXoOdtakpQlS+mUkySfmEZ7gPW34fber+b05nUHDZlJk65keuvPCpMOCqVGQ2tyO4qYwytpRk8zyrWgmldIRk5sSjLD8104zjTqVHjZljkquTNQpyFIPlcizW0mRG5HkNmpp9BGZFzNqUnr9Iq2c8T1fk9NjlIxgU25RjttaXBP5xkDl87KemMx2/wCLytxyMmjjkpCdjQZn5yFedzSvN9Ss21FeiLy28XKj16VogQWWW40KChZkakx4zKUssJPlTuTaEkexb77AMZAAAAAAAAAAFP0i+j/W71EifuejEwFP0i+j/W71EifuejATAAAAAAAAAAAAAAAAAAAAAAAAAAAAAAAAAAAAAAAAAAAAAAAAAAAAAAAAAAAAAAAAAAAAAAAAAAAAAAAAAAAAAAAAAAAAAAAAAAAAAAAAAAAAAAAAAAAAAAAAAAAAAAAAAAAAAAAAAAAAAAAAAAAAAAAAAAAAAAAAAAAAAAAAAAAAAAAAAAAAAAAAAAAAAAAAAAAAAAAAAAAAAAAAAAAAAAAAAAAAFP0Tn4p8lak4rlWbVeK/OrE2qyBPs4016N4S3dVkw0LKGw+6ndqI9sfRmW5ERmW4eKLT/tSaYez8n7oEwABT/FFp/wBqTTD2fk/dAeKLT/tSaYez8n7oEwABT/FFp/2pNMPZ+T90B4otP+1Jph7PyfugTAAFP8UWn/ak0w9n5P3QHii0/wC1Jph7PyfugTAAFP8AFFp/2pNMPZ+T90B4otP+1Jph7PyfugTAAFP8UWn/AGpNMPZ+T90B4otP+1Jph7PyfugTAAFP8UWn/ak0w9n5P3QHii0/7UmmHs/J+6BMAAU/xRaf9qTTD2fk/dAeKLT/ALUmmHs/J+6BMAAU/wAUWn/ak0w9n5P3QHii0/7UmmHs/J+6BMAAU/xRaf8Aak0w9n5P3QHii0/7UmmHs/J+6BMAAU/xRaf9qTTD2fk/dAeKLT/tSaYez8n7oEwABT/FFp/2pNMPZ+T90B4otP8AtSaYez8n7oEwABT/ABRaf9qTTD2fk/dAeKLT/tSaYez8n7oEwABT/FFp/wBqTTD2fk/dAeKLT/tSaYez8n7oEwABT/FFp/2pNMPZ+T90B4otP+1Jph7PyfugTAAFP8UWn/ak0w9n5P3QHii0/wC1Jph7PyfugTAAFP8AFFp/2pNMPZ+T90B4otP+1Jph7PyfugTAAFP8UWn/AGpNMPZ+T90Dvaur0806081Naa10w7J7HJ8ai01dXU0C7S8t4ruslqUpUuvYaSgmYbxmZub78pER7iJgAAAAAAAAAAAAAAAAAAAAAAAAAAAAAAAAAAAAAAAAAAAAAAAAAAAAAAAAAAAAAAAAAAAAAAAAAAAAAAAAAAAAAAAAAAAAAAAAAAAAAAAAP//Z;" vertex="1" parent="1">
          <mxGeometry x="-40" y="130" width="1066.91" height="580" as="geometry" />
        </mxCell>
      </root>
    </mxGraphModel>
  </diagram>
</mxfile>
